<?xml version="1.0" encoding="utf-8"?>
<!-- Generator: Adobe Illustrator 18.0.0, SVG Export Plug-In . SVG Version: 6.00 Build 0)  -->
<!DOCTYPE svg PUBLIC "-//W3C//DTD SVG 1.1//EN" "http://www.w3.org/Graphics/SVG/1.1/DTD/svg11.dtd">
<svg version="1.1" id="Layer_1" xmlns="http://www.w3.org/2000/svg" xmlns:xlink="http://www.w3.org/1999/xlink" x="0px" y="0px"
	 viewBox="0 0 971 655" enable-background="new 0 0 971 655" xml:space="preserve">
<title>Group 3</title>
<desc>Created with Sketch Beta.</desc>
<g id="Oval-Copy">
	<path fill="none" stroke="#FDFF59" stroke-width="3" stroke-linecap="round" stroke-linejoin="round" d="M746.4,229.3
		c0.3,0.6,26-15.9,26.4-15.2c1,1.8-74.7,63.3-73.4,65.5c2.1,3.6,137.6-82.9,139.1-80.3c2.1,3.6-153,105.4-150.3,110
		c2.6,4.5,174.7-107.2,177.4-102.4c2.5,4.4-185.7,122.7-182.4,128.5c3.4,5.8,208.5-128,211.8-122.3c3.3,5.8-208.8,137.5-206.1,142.2
		c3.8,6.6,212.2-129.1,215-124.2c3.6,6.2-211.5,137.3-208,143.4c4.1,7.1,231.3-139.9,234-135.1c3.4,5.9-233.1,149.3-229.2,156
		c3.4,5.9,233.5-141.3,236.3-136.4c3.5,6.1-236.3,151.5-233,157.2c2.9,5.1,241.1-146.2,244.1-140.9c3,5.2-237.7,152.8-234.2,158.7
		c3.9,6.8,245.4-149.9,248.9-143.7c3.4,5.9-233.6,151.7-230.7,156.7c3.1,5.3,236.4-145.5,240.3-138.8
		c3.9,6.7-228.7,146.5-224.7,153.3c3.1,5.3,217.1-134.2,220.9-127.6c3.3,5.8-217.1,139.5-213.5,145.8c2.9,5.1,219.7-134.5,223-128.7
		c2.6,4.4-186.2,123.1-183,128.7c2.8,4.8,173.1-105.9,175.7-101.4c1.9,3.4-152.8,106.4-150.8,109.9c2.3,4,128.3-78.7,130.3-75.2
		c1.2,2.2-81.9,66.8-80.4,69.5c1,1.7,55.1-34.2,56.1-32.4"/>
</g>
<g enable-background="new    ">
	<path fill="none" stroke="#000000" stroke-miterlimit="10" d="M325.5,317.2h-0.6l-7.9-16.3h3.4l6.4,13.8h0.4l6.4-13.8h3.4
		l-7.9,16.3h-0.6v8.9h-3V317.2z"/>
	<path fill="none" stroke="#000000" stroke-miterlimit="10" d="M340.2,310.6c0-3.3,0.8-5.8,2.3-7.6c1.6-1.8,3.7-2.7,6.5-2.7
		s5,0.9,6.5,2.7c1.6,1.8,2.3,4.3,2.3,7.6v5.6c0,3.4-0.8,5.9-2.3,7.7c-1.6,1.8-3.7,2.6-6.5,2.6s-5-0.9-6.5-2.6
		c-1.6-1.8-2.3-4.3-2.3-7.7V310.6z M349.1,323.7c1.9,0,3.4-0.7,4.4-2s1.5-3.2,1.5-5.7v-5.2c0-2.3-0.5-4.2-1.5-5.6
		c-1-1.4-2.4-2.1-4.4-2.1s-3.4,0.7-4.4,2.1c-1,1.4-1.5,3.3-1.5,5.6v5.2c0,2.5,0.5,4.4,1.5,5.7S347.1,323.7,349.1,323.7z"/>
	<path fill="none" stroke="#000000" stroke-miterlimit="10" d="M365.5,300.8v16.7c0,2,0.5,3.6,1.4,4.6s2.3,1.6,4.2,1.6
		c1.8,0,3.2-0.5,4.2-1.6s1.4-2.6,1.4-4.6v-16.7h3v16.7c0,2.9-0.8,5.2-2.3,6.7c-1.5,1.5-3.6,2.3-6.3,2.3c-2.7,0-4.8-0.8-6.3-2.3
		c-1.5-1.5-2.3-3.8-2.3-6.7v-16.7H365.5z"/>
	<path fill="none" stroke="#000000" stroke-miterlimit="10" d="M401,326h-3v-8.4c0-0.6-0.1-1.1-0.4-1.4c-0.3-0.3-0.8-0.5-1.5-0.5
		h-7.8V326h-3v-25.2h9c1.3,0,2.4,0.2,3.4,0.6s1.8,0.9,2.4,1.5c0.6,0.6,1.1,1.4,1.4,2.2c0.3,0.8,0.5,1.7,0.5,2.6v1.1
		c0,0.9-0.3,1.9-0.8,2.8c-0.5,0.9-1.3,1.7-2.4,2.2v0.4c0.7,0.1,1.3,0.4,1.7,0.9c0.4,0.5,0.6,1.1,0.6,1.9V326z M388.2,312.8h5.6
		c1.7,0,3-0.4,3.8-1.1c0.8-0.7,1.2-1.8,1.2-3.2v-0.6c0-1.3-0.4-2.3-1.2-3.1s-2.1-1.2-3.8-1.2h-5.6V312.8z"/>
</g>
<g enable-background="new    ">
	<path fill="none" stroke="#000000" stroke-miterlimit="10" d="M300.1,368.6V379h-3v-25.2h9c1.3,0,2.4,0.2,3.4,0.6s1.8,0.9,2.4,1.5
		c0.6,0.6,1.1,1.4,1.4,2.2c0.3,0.8,0.5,1.7,0.5,2.6v1.1c0,0.9-0.2,1.8-0.5,2.6c-0.3,0.8-0.8,1.6-1.5,2.2c-0.6,0.6-1.5,1.1-2.4,1.5
		c-1,0.4-2.1,0.6-3.3,0.6H300.1z M300.1,365.8h5.6c3.4,0,5-1.4,5-4.3v-0.6c0-1.3-0.4-2.3-1.2-3.1s-2.1-1.2-3.8-1.2h-5.6V365.8z"/>
	<path fill="none" stroke="#000000" stroke-miterlimit="10" d="M334.9,379h-3v-8.4c0-0.6-0.1-1.1-0.4-1.4c-0.3-0.3-0.8-0.5-1.5-0.5
		h-7.8V379h-3v-25.2h9c1.3,0,2.4,0.2,3.4,0.6s1.8,0.9,2.4,1.5c0.6,0.6,1.1,1.4,1.4,2.2c0.3,0.8,0.5,1.7,0.5,2.6v1.1
		c0,0.9-0.3,1.9-0.8,2.8c-0.5,0.9-1.3,1.7-2.4,2.2v0.4c0.7,0.1,1.3,0.4,1.7,0.9c0.4,0.5,0.6,1.1,0.6,1.9V379z M322.1,365.8h5.6
		c1.7,0,3-0.4,3.8-1.1c0.8-0.7,1.2-1.8,1.2-3.2v-0.6c0-1.3-0.4-2.3-1.2-3.1s-2.1-1.2-3.8-1.2h-5.6V365.8z"/>
	<path fill="none" stroke="#000000" stroke-miterlimit="10" d="M340.2,363.6c0-3.3,0.8-5.8,2.3-7.6c1.6-1.8,3.7-2.7,6.5-2.7
		c2.8,0,5,0.9,6.5,2.7c1.6,1.8,2.3,4.3,2.3,7.6v5.6c0,3.4-0.8,5.9-2.3,7.7c-1.6,1.8-3.7,2.6-6.5,2.6c-2.8,0-5-0.9-6.5-2.6
		c-1.6-1.8-2.3-4.3-2.3-7.7V363.6z M349.1,376.7c1.9,0,3.4-0.7,4.4-2c1-1.3,1.5-3.2,1.5-5.7v-5.2c0-2.3-0.5-4.2-1.5-5.6
		c-1-1.4-2.4-2.1-4.4-2.1c-1.9,0-3.4,0.7-4.4,2.1c-1,1.4-1.5,3.3-1.5,5.6v5.2c0,2.5,0.5,4.4,1.5,5.7
		C345.6,376,347.1,376.7,349.1,376.7z"/>
	<path fill="none" stroke="#000000" stroke-miterlimit="10" d="M371.2,376.7c1,0,1.9-0.2,2.6-0.5c0.7-0.3,1.3-0.8,1.8-1.4
		c0.5-0.6,0.8-1.3,1-2c0.2-0.8,0.3-1.6,0.3-2.4v-0.4h3v0.4c0,1.3-0.2,2.5-0.6,3.6c-0.4,1.1-0.9,2.1-1.7,2.9
		c-0.7,0.8-1.7,1.5-2.8,1.9c-1.1,0.5-2.4,0.7-3.8,0.7c-2.8,0-5-0.9-6.5-2.6c-1.6-1.8-2.3-4.3-2.3-7.7v-5.6c0-3.3,0.8-5.8,2.3-7.6
		c1.6-1.8,3.7-2.7,6.5-2.7c1.4,0,2.7,0.2,3.8,0.7c1.1,0.5,2,1.1,2.8,1.9c0.7,0.8,1.3,1.8,1.7,2.9c0.4,1.1,0.6,2.3,0.6,3.6v0.4h-3
		v-0.4c0-0.8-0.2-1.6-0.4-2.4c-0.2-0.8-0.6-1.4-1-2c-0.5-0.6-1.1-1.1-1.8-1.4c-0.7-0.3-1.6-0.5-2.6-0.5c-1.9,0-3.4,0.7-4.4,2.1
		c-1,1.4-1.5,3.3-1.5,5.6v5.2c0,2.5,0.5,4.4,1.5,5.7C367.8,376,369.3,376.7,371.2,376.7z"/>
	<path fill="none" stroke="#000000" stroke-miterlimit="10" d="M385.5,353.8h15.3v2.8h-12.2v8.4h12v2.8h-12v8.4H401v2.8h-15.5V353.8
		z"/>
	<path fill="none" stroke="#000000" stroke-miterlimit="10" d="M421.1,361.1c0-0.8-0.2-1.5-0.5-2.2c-0.3-0.6-0.8-1.1-1.3-1.5
		s-1.2-0.7-1.9-0.9c-0.7-0.2-1.5-0.3-2.3-0.3c-0.7,0-1.4,0.1-2,0.3c-0.6,0.2-1.2,0.4-1.7,0.8c-0.5,0.3-0.9,0.8-1.2,1.2
		c-0.3,0.5-0.4,1.1-0.4,1.7v0.2c0,0.7,0.1,1.3,0.4,1.8c0.3,0.5,0.7,0.9,1.3,1.3c0.6,0.3,1.3,0.6,2.1,0.9c0.8,0.2,1.8,0.4,3,0.6
		c2.6,0.4,4.6,1.2,5.8,2.3c1.2,1.1,1.9,2.7,1.9,4.6v0.4c0,1.1-0.2,2.1-0.6,3c-0.4,0.9-0.9,1.7-1.7,2.3c-0.7,0.6-1.6,1.2-2.7,1.5
		s-2.3,0.5-3.7,0.5c-1.6,0-3-0.2-4.3-0.7c-1.2-0.5-2.3-1.1-3.1-1.9c-0.8-0.8-1.5-1.8-1.9-2.9c-0.4-1.1-0.6-2.3-0.6-3.7v-1.1h3v0.9
		c0,2.2,0.6,3.9,1.8,5c1.2,1.1,2.9,1.7,5.1,1.7c1.9,0,3.3-0.4,4.2-1.2c0.9-0.8,1.4-1.9,1.4-3.3V372c0-1.3-0.5-2.3-1.5-3
		c-1-0.7-2.6-1.2-4.7-1.5c-1.3-0.2-2.4-0.4-3.4-0.8c-1-0.3-1.9-0.8-2.6-1.4c-0.7-0.6-1.3-1.2-1.7-2c-0.4-0.8-0.6-1.7-0.6-2.8V360
		c0-1,0.2-1.9,0.6-2.7c0.4-0.8,1-1.5,1.7-2.1c0.7-0.6,1.6-1.1,2.6-1.4c1-0.3,2.1-0.5,3.4-0.5c1.4,0,2.7,0.2,3.8,0.6
		c1.1,0.4,2.1,1,2.8,1.6c0.8,0.7,1.4,1.5,1.7,2.4s0.6,1.9,0.6,2.9v1.5h-3V361.1z"/>
</g>
<g enable-background="new    ">
	<path fill="none" stroke="#000000" stroke-miterlimit="10" d="M366,414.1c0-0.8-0.2-1.5-0.5-2.2c-0.3-0.6-0.8-1.1-1.3-1.5
		s-1.2-0.7-1.9-0.9c-0.7-0.2-1.5-0.3-2.3-0.3c-0.7,0-1.4,0.1-2,0.3c-0.6,0.2-1.2,0.4-1.7,0.8c-0.5,0.3-0.9,0.8-1.2,1.2
		c-0.3,0.5-0.4,1.1-0.4,1.7v0.2c0,0.7,0.1,1.3,0.4,1.8c0.3,0.5,0.7,0.9,1.3,1.3c0.6,0.3,1.3,0.6,2.1,0.9c0.8,0.2,1.8,0.4,3,0.6
		c2.6,0.4,4.6,1.2,5.8,2.3c1.2,1.1,1.9,2.7,1.9,4.6v0.4c0,1.1-0.2,2.1-0.6,3c-0.4,0.9-0.9,1.7-1.7,2.3c-0.7,0.6-1.6,1.2-2.7,1.5
		s-2.3,0.5-3.7,0.5c-1.6,0-3-0.2-4.3-0.7c-1.2-0.5-2.3-1.1-3.1-1.9c-0.8-0.8-1.5-1.8-1.9-2.9c-0.4-1.1-0.6-2.3-0.6-3.7v-1.1h3v0.9
		c0,2.2,0.6,3.9,1.8,5c1.2,1.1,2.9,1.7,5.1,1.7c1.9,0,3.3-0.4,4.2-1.2c0.9-0.8,1.4-1.9,1.4-3.3V425c0-1.3-0.5-2.3-1.5-3
		c-1-0.7-2.6-1.2-4.7-1.5c-1.3-0.2-2.4-0.4-3.4-0.8c-1-0.3-1.9-0.8-2.6-1.4c-0.7-0.6-1.3-1.2-1.7-2c-0.4-0.8-0.6-1.7-0.6-2.8V413
		c0-1,0.2-1.9,0.6-2.7c0.4-0.8,1-1.5,1.7-2.1c0.7-0.6,1.6-1.1,2.6-1.4c1-0.3,2.1-0.5,3.4-0.5c1.4,0,2.7,0.2,3.8,0.6
		c1.1,0.4,2.1,1,2.8,1.6c0.8,0.7,1.4,1.5,1.7,2.4s0.6,1.9,0.6,2.9v1.5h-3V414.1z"/>
</g>
<g enable-background="new    ">
	<path fill="none" stroke="#000000" stroke-miterlimit="10" d="M798.1,319.1c0-3.3,0.8-5.8,2.3-7.6c1.6-1.8,3.7-2.7,6.5-2.7
		c2.8,0,5,0.9,6.5,2.7c1.6,1.8,2.3,4.3,2.3,7.6v5.6c0,3.4-0.8,5.9-2.3,7.7c-1.6,1.8-3.7,2.6-6.5,2.6c-2.8,0-5-0.9-6.5-2.6
		c-1.6-1.8-2.3-4.3-2.3-7.7V319.1z M807,332.2c1.9,0,3.4-0.7,4.4-2c1-1.3,1.5-3.2,1.5-5.7v-5.2c0-2.3-0.5-4.2-1.5-5.6
		c-1-1.4-2.4-2.1-4.4-2.1c-1.9,0-3.4,0.7-4.4,2.1c-1,1.4-1.5,3.3-1.5,5.6v5.2c0,2.5,0.5,4.4,1.5,5.7
		C803.6,331.5,805,332.2,807,332.2z"/>
	<path fill="none" stroke="#000000" stroke-miterlimit="10" d="M823.4,309.3V326c0,2,0.5,3.6,1.4,4.6s2.3,1.6,4.2,1.6
		c1.8,0,3.2-0.5,4.2-1.6s1.4-2.6,1.4-4.6v-16.7h3V326c0,2.9-0.8,5.2-2.3,6.7c-1.5,1.5-3.6,2.3-6.3,2.3c-2.7,0-4.8-0.8-6.3-2.3
		c-1.5-1.5-2.3-3.8-2.3-6.7v-16.7H823.4z"/>
	<path fill="none" stroke="#000000" stroke-miterlimit="10" d="M858.9,334.5h-3v-8.4c0-0.6-0.1-1.1-0.4-1.4
		c-0.3-0.3-0.8-0.5-1.5-0.5h-7.8v10.4h-3v-25.2h9c1.3,0,2.4,0.2,3.4,0.6s1.8,0.9,2.4,1.5c0.6,0.6,1.1,1.4,1.4,2.2
		c0.3,0.8,0.5,1.7,0.5,2.6v1.1c0,0.9-0.3,1.9-0.8,2.8c-0.5,0.9-1.3,1.7-2.4,2.2v0.4c0.7,0.1,1.3,0.4,1.7,0.9
		c0.4,0.5,0.6,1.1,0.6,1.9V334.5z M846.1,321.3h5.6c1.7,0,3-0.4,3.8-1.1c0.8-0.7,1.2-1.8,1.2-3.2v-0.6c0-1.3-0.4-2.3-1.2-3.1
		s-2.1-1.2-3.8-1.2h-5.6V321.3z"/>
</g>
<g enable-background="new    ">
	<path fill="none" stroke="#000000" stroke-miterlimit="10" d="M769,377.1v10.4h-3v-25.2h9c1.3,0,2.4,0.2,3.4,0.6s1.8,0.9,2.4,1.5
		c0.6,0.6,1.1,1.4,1.4,2.2s0.5,1.7,0.5,2.6v1.1c0,0.9-0.2,1.8-0.5,2.6c-0.3,0.8-0.8,1.6-1.5,2.2c-0.6,0.6-1.5,1.1-2.4,1.5
		s-2.1,0.6-3.3,0.6H769z M769,374.3h5.6c3.4,0,5-1.4,5-4.3v-0.6c0-1.3-0.4-2.3-1.2-3.1s-2.1-1.2-3.8-1.2H769V374.3z"/>
	<path fill="none" stroke="#000000" stroke-miterlimit="10" d="M803.8,387.5h-3v-8.4c0-0.6-0.1-1.1-0.4-1.4
		c-0.3-0.3-0.8-0.5-1.5-0.5H791v10.4h-3v-25.2h9c1.3,0,2.4,0.2,3.4,0.6s1.8,0.9,2.4,1.5c0.6,0.6,1.1,1.4,1.4,2.2s0.5,1.7,0.5,2.6
		v1.1c0,0.9-0.3,1.9-0.8,2.8c-0.5,0.9-1.3,1.7-2.4,2.2v0.4c0.7,0.1,1.3,0.4,1.7,0.9s0.6,1.1,0.6,1.9V387.5z M791,374.3h5.6
		c1.7,0,3-0.4,3.8-1.1c0.8-0.7,1.2-1.8,1.2-3.2v-0.6c0-1.3-0.4-2.3-1.2-3.1s-2.1-1.2-3.8-1.2H791V374.3z"/>
	<path fill="none" stroke="#000000" stroke-miterlimit="10" d="M809.1,372.1c0-3.3,0.8-5.8,2.3-7.6c1.6-1.8,3.7-2.7,6.5-2.7
		s5,0.9,6.5,2.7c1.6,1.8,2.3,4.3,2.3,7.6v5.6c0,3.4-0.8,5.9-2.3,7.7c-1.6,1.8-3.7,2.6-6.5,2.6s-5-0.9-6.5-2.6
		c-1.6-1.8-2.3-4.3-2.3-7.7V372.1z M818,385.2c1.9,0,3.4-0.7,4.4-2s1.5-3.2,1.5-5.7v-5.2c0-2.3-0.5-4.2-1.5-5.6
		c-1-1.4-2.4-2.1-4.4-2.1s-3.4,0.7-4.4,2.1c-1,1.4-1.5,3.3-1.5,5.6v5.2c0,2.5,0.5,4.4,1.5,5.7S816,385.2,818,385.2z"/>
	<path fill="none" stroke="#000000" stroke-miterlimit="10" d="M840.2,385.2c1,0,1.9-0.2,2.6-0.5c0.7-0.3,1.3-0.8,1.8-1.4
		c0.5-0.6,0.8-1.3,1-2c0.2-0.8,0.3-1.6,0.3-2.4v-0.4h3v0.4c0,1.3-0.2,2.5-0.6,3.6c-0.4,1.1-0.9,2.1-1.7,2.9
		c-0.7,0.8-1.7,1.5-2.8,1.9c-1.1,0.5-2.4,0.7-3.8,0.7c-2.8,0-5-0.9-6.5-2.6c-1.6-1.8-2.3-4.3-2.3-7.7v-5.6c0-3.3,0.8-5.8,2.3-7.6
		c1.6-1.8,3.7-2.7,6.5-2.7c1.4,0,2.7,0.2,3.8,0.7c1.1,0.5,2,1.1,2.8,1.9c0.7,0.8,1.3,1.8,1.7,2.9c0.4,1.1,0.6,2.3,0.6,3.6v0.4h-3
		v-0.4c0-0.8-0.2-1.6-0.4-2.4c-0.2-0.8-0.6-1.4-1-2s-1.1-1.1-1.8-1.4c-0.7-0.3-1.6-0.5-2.6-0.5c-1.9,0-3.4,0.7-4.4,2.1
		c-1,1.4-1.5,3.3-1.5,5.6v5.2c0,2.5,0.5,4.4,1.5,5.7S838.2,385.2,840.2,385.2z"/>
	<path fill="none" stroke="#000000" stroke-miterlimit="10" d="M854.4,362.3h15.3v2.8h-12.2v8.4h12v2.8h-12v8.4h12.5v2.8h-15.5
		V362.3z"/>
	<path fill="none" stroke="#000000" stroke-miterlimit="10" d="M890,369.6c0-0.8-0.2-1.5-0.5-2.2c-0.3-0.6-0.8-1.1-1.3-1.5
		c-0.6-0.4-1.2-0.7-1.9-0.9s-1.5-0.3-2.3-0.3c-0.7,0-1.4,0.1-2,0.3s-1.2,0.4-1.7,0.8c-0.5,0.3-0.9,0.8-1.2,1.2
		c-0.3,0.5-0.4,1.1-0.4,1.7v0.2c0,0.7,0.1,1.3,0.4,1.8c0.3,0.5,0.7,0.9,1.3,1.3c0.6,0.3,1.3,0.6,2.1,0.9c0.8,0.2,1.8,0.4,3,0.6
		c2.6,0.4,4.6,1.2,5.8,2.3c1.2,1.1,1.9,2.7,1.9,4.6v0.4c0,1.1-0.2,2.1-0.6,3c-0.4,0.9-0.9,1.7-1.7,2.3c-0.7,0.6-1.6,1.2-2.7,1.5
		s-2.3,0.5-3.7,0.5c-1.6,0-3-0.2-4.3-0.7s-2.3-1.1-3.1-1.9c-0.8-0.8-1.5-1.8-1.9-2.9c-0.4-1.1-0.6-2.3-0.6-3.7v-1.1h3v0.9
		c0,2.2,0.6,3.9,1.8,5c1.2,1.1,2.9,1.7,5.1,1.7c1.9,0,3.3-0.4,4.2-1.2s1.4-1.9,1.4-3.3v-0.2c0-1.3-0.5-2.3-1.5-3
		c-1-0.7-2.5-1.2-4.7-1.5c-1.3-0.2-2.4-0.4-3.4-0.8c-1-0.3-1.9-0.8-2.6-1.4c-0.7-0.6-1.3-1.2-1.7-2c-0.4-0.8-0.6-1.7-0.6-2.8v-0.4
		c0-1,0.2-1.9,0.6-2.7c0.4-0.8,1-1.5,1.7-2.1c0.7-0.6,1.6-1.1,2.6-1.4c1-0.3,2.1-0.5,3.4-0.5c1.4,0,2.7,0.2,3.8,0.6s2.1,1,2.8,1.6
		c0.8,0.7,1.3,1.5,1.7,2.4c0.4,0.9,0.6,1.9,0.6,2.9v1.5h-3V369.6z"/>
</g>
<g enable-background="new    ">
	<path fill="none" stroke="#000000" stroke-miterlimit="10" d="M834.9,422.6c0-0.8-0.2-1.5-0.5-2.2c-0.3-0.6-0.8-1.1-1.3-1.5
		c-0.6-0.4-1.2-0.7-1.9-0.9s-1.5-0.3-2.3-0.3c-0.7,0-1.4,0.1-2,0.3s-1.2,0.4-1.7,0.8c-0.5,0.3-0.9,0.8-1.2,1.2
		c-0.3,0.5-0.4,1.1-0.4,1.7v0.2c0,0.7,0.1,1.3,0.4,1.8c0.3,0.5,0.7,0.9,1.3,1.3c0.6,0.3,1.3,0.6,2.1,0.9c0.8,0.2,1.8,0.4,3,0.6
		c2.6,0.4,4.6,1.2,5.8,2.3c1.2,1.1,1.9,2.7,1.9,4.6v0.4c0,1.1-0.2,2.1-0.6,3c-0.4,0.9-0.9,1.7-1.7,2.3c-0.7,0.6-1.6,1.2-2.7,1.5
		s-2.3,0.5-3.7,0.5c-1.6,0-3-0.2-4.3-0.7s-2.3-1.1-3.1-1.9c-0.8-0.8-1.5-1.8-1.9-2.9c-0.4-1.1-0.6-2.3-0.6-3.7v-1.1h3v0.9
		c0,2.2,0.6,3.9,1.8,5c1.2,1.1,2.9,1.7,5.1,1.7c1.9,0,3.3-0.4,4.2-1.2s1.4-1.9,1.4-3.3v-0.2c0-1.3-0.5-2.3-1.5-3
		c-1-0.7-2.5-1.2-4.7-1.5c-1.3-0.2-2.4-0.4-3.4-0.8c-1-0.3-1.9-0.8-2.6-1.4c-0.7-0.6-1.3-1.2-1.7-2c-0.4-0.8-0.6-1.7-0.6-2.8v-0.4
		c0-1,0.2-1.9,0.6-2.7c0.4-0.8,1-1.5,1.7-2.1c0.7-0.6,1.6-1.1,2.6-1.4c1-0.3,2.1-0.5,3.4-0.5c1.4,0,2.7,0.2,3.8,0.6s2.1,1,2.8,1.6
		c0.8,0.7,1.3,1.5,1.7,2.4c0.4,0.9,0.6,1.9,0.6,2.9v1.5h-3V422.6z"/>
</g>
<path id="Path-27" fill="none" stroke="#000000" stroke-width="3" d="M26.5,263.3c17.1-37,33.1-74.5,51.4-110.9
	c2.6-5.2,6.7-9.8,11.1-13.6c38.2-33.1,76.6-66.1,116.6-97.1c7.9-6.1,16.9-11,26.5-13.7c30.9-8.8,62.2-17,94.2-20.8
	c25-3,68.5,8.5,90.5,19c68.2,32.6,127,90.7,173.1,149.8c34.3,44,63.6,88.2,86.7,139.1c8.3,18.4,13.5,41.8,17.2,61.4
	c2.1,11.1,3.2,22.4,5.1,33.6c0.3,1.7,0.4,3.8,1.7,4.9c1.1,1,3.1,0.9,4.4,0.3c1.9-1,4.2-2.6,4.4-4.7c0.2-1.3-2.5-0.6-3.7-0.8"/>
<path id="Path-28" fill="none" stroke="#000000" stroke-width="3" d="M672.2,434.5c-10.8,21-20.8,42.4-32.3,63.1
	c-26,46.9-113.7,91.8-159.7,112.5c-38.1,17.1-88,25.8-128.1,32.9c-37.2,6.5-81.4,13.6-119.3,8.3c-87.5-12.1-156.5-92.5-177.5-174.3
	c-16.4-63.8-34.1-122.1-17.2-185.3"/>
<path id="Path-29" fill="none" stroke="#000000" stroke-width="3" d="M138.3,74.7c0.2,6.5,0,13.1,0.7,19.6c0,0.4,1.4,0.2,1.2-0.1
	l2.4-15.5c-4.4-8.5-10.5,6.2-9.3,8c9.2,13.5,11.8-12.8,11.2-14.7c-0.3-0.9-8.8,6.4-2.8,6.4"/>
<path id="Path-30" fill="none" stroke="#000000" stroke-width="3" d="M383.5,2.9c-5.3,0.2-11.8-2.6-15.9,0.7
	c-3.9,3-7.4,11.6-3.3,14.4c5.5,3.8,25.7,0.6,20-2.9l0.7-1.8c-10.1-6.2-11.1-7.3-16.5,1.9c-0.6,1-1.1,2.5-0.6,3.6
	c3.6,7.2,17.5,1.9,15.5-5.7c-2.2-8.1-18.4,9.1-12.9,11.9c0.6,0.3,16.5-6.6,0.1-6"/>
<path id="Path-31" fill="none" stroke="#000000" stroke-width="3" d="M575,172.3c-3.4,1.5-7.1,2.6-10.3,4.6c-0.5,0.3-0.6,1.7,0,1.7
	l11.2,2.8c5.2-0.6,15.2-15,9.6-19.1c-5.2-3.8-18.6,8.8-13.7,11.8c6.5,4,16.3-2.6,17.6-9.2c0.2-0.8-0.1-2.4-1-2.4
	c-4.9,0.3-13.7,13-4.3,12.5c9.2-0.5-0.3-14.6-7.6-4.2"/>
<path id="Path-32" fill="none" stroke="#000000" stroke-width="3" d="M686.3,344.6c0.5,4.1-2.1,14.1,1.5,12.2
	c6.5-3.5,15.7-13.3,11.1-19c-7.4-9.1-42.3,36.2-6.2,11.1c2.9-2,5-5.3,6.5-8.5c0.8-1.7,1.4-4.1,0.3-5.5c-5.7-7.5-19.3,12.5-16.9,15.9
	c1.6,2.3,10.7-3.1,8-2.2l1.9-3.7c-6.4,2-4.2,4.3-2.8,7.4"/>
<path id="Path-33" fill="none" stroke="#000000" stroke-width="3" d="M634.8,478.5c-1,10-5.5,20.3-2.9,30c1,3.8,6.3-4.6,9-7.5
	c3.3-3.5-9.7-4.4-14.8,5.3c-0.9,1.6-2,4-0.8,5.4c10.1,11.6,18-22.7,5.5-8.2c-3.6,4.2-6.6,8.9-9.8,13.3"/>
<path id="Path-34" fill="none" stroke="#000000" stroke-width="3" d="M372.7,634.4c0,0.3-0.8,28.6,4.7,5.3
	c0.7-3.1-13.5-3.3-14.8,2.5c-2.8,12,26.3-10.5,3.6-9.8c-3.4,0.1-13.1,9.7-6.2,11.6c1.5,0.4,18.7-3.9-4.2-0.1"/>
<path id="Path-35" fill="none" stroke="#000000" stroke-width="3" d="M61.4,454.5c-1.5,0.9-5.2,4.5-4.6,2.8l5.1,2.1
	c0.2-0.6,3.4-21.2-6.9-19.4c-0.6,0.1-27.5,16-11.5,20.1c8.2,2.1,13.7-13.6,7.5-17.6c-6.1-3.9-11.2,8-10,12.3
	c2.3,8.6,13.3-0.4,4.6-2.2c-2.5-0.5-5.2-0.2-7.8-0.3"/>
<path id="Path-36" fill="none" stroke="#000000" stroke-width="3" d="M2,352.1c3.5-6.4,7.4-12.6,10.5-19.1c27-55.8,10.3-70,62.8,9.2
	c1.7,2.6-4.3-4.5-6.4-6.8"/>
<path id="Path-37" fill="none" stroke="#000000" stroke-width="3" d="M694.5,372.6c7.6,13.7,15,27.5,22.9,41
	c1.2,2.1,2.6,4.1,4.3,5.8c26.8,26.9,101.7,32.2,138.2,20c51.4-17.1,99.4-69,99.6-125.2c0-9.6-0.6-32.9-7.1-44
	c-40.9-69.6-136.7-58-186.6-4.2c-27.8,30-7.8,14.7-33.4,53.4c-1,1.5-3.7,2-5.3,1.1c-2-1.1-2.4-3.9-3.6-5.8"/>
<path id="Path-38" fill="none" stroke="#000000" stroke-width="3" d="M722.7,305.8c-3.7,9.1-3.2,6-1,22.3
	c4.2,30.9,20.7,3.2,36.9-0.6c0.7-0.2-0.7,1.3-1.4,1.7c-3.7,1.9-7.4,3.6-11.4,4.9c-1.4,0.4-3.1,0.7-4.3,0c-1.1-0.6-1-2.3-1.5-3.5"/>
</svg>
