<?xml version="1.0" encoding="UTF-8" standalone="no"?>
<svg width="971px" height="655px" viewBox="0 0 971 655" version="1.1" xmlns="http://www.w3.org/2000/svg" xmlns:xlink="http://www.w3.org/1999/xlink">
    <!-- Generator: Sketch Beta 41 (35231) - http://www.bohemiancoding.com/sketch -->
    <title>Group 3</title>
    <desc>Created with Sketch Beta.</desc>
    <defs></defs>
    <g id="Page-1" stroke="none" stroke-width="1" fill="none" fill-rule="evenodd">
        <g id="Group-3" transform="translate(2.000000, 2.000000)">
            <ellipse id="Oval-Copy" fill="#FDFF59" cx="825.186208" cy="345.19956" rx="143.017756" ry="143.277708"></ellipse>
            <g id="Group-2-Copy" transform="translate(284.944499, 284.011577)" font-size="36" font-family="SpaceMono-Regular, Space Mono" fill="#000000" font-weight="normal">
                <text id="YOUR-PROCESS">
                    <tspan x="29.0591743" y="40">YOUR </tspan>
                    <tspan x="7.02717429" y="93">PROCES</tspan>
                    <tspan x="62.1071743" y="146">S</tspan>
                </text>
                <text id="OUR-PROCESS">
                    <tspan x="509.007015" y="48.4920405">OUR  </tspan>
                    <tspan x="475.959015" y="101.492041">PROCES</tspan>
                    <tspan x="531.039015" y="154.492041">S</tspan>
                </text>
            </g>
            <path d="M24.5316456,261.310936 C41.6779559,224.332244 57.6783696,186.800287 75.9705765,150.374859 C78.5944154,145.149986 82.6456803,140.617501 87.0643929,136.788943 C125.289361,103.669219 163.691921,70.6825676 203.683388,39.7190966 C211.546307,33.6312162 220.608783,28.7262313 230.169018,25.9899083 C261.06867,17.1458352 292.400975,8.95516974 324.320077,5.19056188 C349.342079,2.23941289 392.834311,13.6530081 414.864555,24.1896654 C483.048566,56.8008142 541.913119,114.852821 587.918125,173.952435 C622.179119,217.965288 651.549782,262.121214 674.581947,313.032102 C682.908156,331.436569 688.118818,354.818785 691.773936,374.464613 C693.843707,385.589387 694.935139,396.878777 696.906617,408.02139 C697.204524,409.705128 697.261612,411.772875 698.569755,412.873948 C699.703054,413.827854 701.67988,413.816743 703.00479,413.154263 C704.934764,412.18924 707.173074,410.580051 707.439825,408.438748 C707.59788,407.169994 704.94408,407.882271 703.696207,407.604033" id="Path-27" stroke="#000000" stroke-width="3"></path>
            <path d="M670.216555,432.502592 C659.446646,453.534496 649.377875,474.940476 637.906827,495.598303 C611.858085,542.508612 524.17403,587.433422 478.170821,608.054308 C440.089995,625.123995 390.18942,633.848196 350.046896,640.919643 C312.874203,647.467929 268.641709,654.48449 230.793041,649.241873 C143.28215,637.120282 74.3097704,556.701188 53.3044366,474.935999 C36.9023832,411.089502 19.1860726,352.853581 36.1124471,289.672938" id="Path-28" stroke="#000000" stroke-width="3"></path>
            <path d="M136.310426,72.6788909 C136.540898,79.1967254 136.354356,85.742709 137.001843,92.2323945 C137.04332,92.6481161 138.440811,92.465793 138.247639,92.0953517 L140.608423,76.5659206 C136.183049,68.0794923 130.065798,82.7817766 131.314782,84.6078362 C140.522344,98.0696249 143.101324,71.7602918 142.545636,69.9068905 C142.263668,68.9664337 133.729956,76.2856059 139.773739,76.2856059" id="Path-29" stroke="#000000" stroke-width="3"></path>
            <path d="M381.50707,0.909300982 C376.191672,1.13978191 369.747684,-1.68224657 365.560877,1.60074377 C361.678987,4.64464066 358.177974,13.2145882 362.234601,16.0213748 C367.76488,19.8477834 387.930517,16.6292985 382.198487,13.1123317 L382.896133,11.3058596 C372.792958,5.10691543 371.816285,4.04456159 366.395561,13.2493745 C365.77833,14.2974803 365.297637,15.7679419 365.841181,16.8560895 C369.423887,24.028477 383.385775,18.7224717 381.370033,11.1688169 C379.20723,3.06407903 362.987268,20.2710137 368.47604,23.0977622 C369.098369,23.4182651 384.966397,16.4564176 368.613078,17.1301749" id="Path-30" stroke="#000000" stroke-width="3"></path>
            <path d="M572.990992,170.29671 C569.569205,171.820791 565.927154,172.924266 562.725631,174.868953 C562.251809,175.156765 562.174681,176.593724 562.725631,176.532153 L573.956485,179.310383 C579.184674,178.726111 589.18291,164.30841 583.5242,160.174237 C578.30446,156.360768 564.903963,168.953195 569.801754,171.95991 C576.29757,175.947641 586.144071,169.382591 587.411085,162.802965 C587.571642,161.96919 587.28645,160.390407 586.439364,160.448322 C581.561168,160.781844 572.786991,173.425573 582.141367,172.931667 C591.359253,172.444968 581.791529,158.30436 574.517093,168.770552" id="Path-31" stroke="#000000" stroke-width="3"></path>
            <path d="M684.299131,342.558833 C684.807831,346.62651 682.216052,356.705478 685.825232,354.761864 C692.281996,351.28477 701.529539,341.46582 696.919048,335.762761 C689.565276,326.666333 654.589193,371.951242 690.677609,346.856991 C693.59975,344.825066 695.639151,341.599789 697.193123,338.397718 C698.000993,336.733046 698.593701,334.326378 697.473428,332.853717 C691.774504,325.362169 678.166377,345.395697 680.555513,348.800506 C682.15302,351.077147 691.250074,345.742011 688.597129,346.576677 L690.540571,342.832919 C684.115046,344.854508 686.315811,347.140736 687.768674,350.183392" id="Path-32" stroke="#000000" stroke-width="3"></path>
            <path d="M632.818001,476.497829 C631.848357,486.481183 627.278641,496.768636 629.909067,506.447891 C630.933395,510.217142 636.244164,501.803451 638.922404,498.960376 C642.218393,495.461531 629.209463,494.517838 624.084969,504.230291 C623.23396,505.843208 622.056267,508.25885 623.250286,509.637249 C633.327898,521.271056 641.221541,486.948821 628.800308,501.458291 C625.210821,505.651237 622.234962,510.332845 618.952288,514.770122" id="Path-33" stroke="#000000" stroke-width="3"></path>
            <path d="M370.739725,632.391048 C370.723309,632.707121 369.890544,660.9828 375.455065,637.660964 C376.193229,634.567193 361.959295,634.358575 360.61763,640.152649 C357.848677,652.110565 386.952918,629.697651 364.224211,630.310491 C360.808815,630.402581 351.142074,640.028207 357.982771,641.959121 C359.528127,642.395327 376.661166,638.068993 353.821811,641.822079" id="Path-34" stroke="#000000" stroke-width="3"></path>
            <path d="M59.4306393,452.476679 C57.9045387,453.400679 54.2734926,456.936236 54.8523377,455.24868 L59.9850186,457.329237 C60.2032441,456.693026 63.3998815,436.157424 53.052162,437.919006 C52.4931748,438.014167 25.5486833,453.904403 41.5410038,458.02068 C49.7178132,460.125316 55.287297,444.434043 49.0282398,440.410691 C42.8938811,436.467496 37.8686771,448.405864 39.0431822,452.750765 C41.3645512,461.338313 52.365999,452.389172 43.6214837,450.533164 C41.0871445,449.995255 38.4431236,450.350441 35.8539435,450.259079" id="Path-35" stroke="#000000" stroke-width="3"></path>
            <path d="M2.84217094e-14,350.104987 C3.51106935,343.726272 7.35812162,337.521292 10.5332081,330.968841 C37.5510502,275.211907 20.8747398,261.017184 73.3524885,340.125786 C75.0699333,342.714781 69.1001703,335.595071 66.9740113,333.329713" id="Path-36" stroke="#000000" stroke-width="3"></path>
            <path d="M692.547225,370.595716 C700.173575,384.277147 707.569117,398.089822 715.426275,411.640009 C716.636611,413.727314 718.01819,415.758178 719.724272,417.464324 C746.573842,444.314896 821.418189,449.623117 857.970292,437.435185 C909.372775,420.295543 957.366191,368.479902 957.528107,312.21552 C957.555683,302.632956 956.942867,279.301421 950.458212,268.255955 C909.579147,198.625672 813.748631,210.303459 763.819234,264.09484 C736.012482,294.052412 756.054164,278.839749 730.400747,317.485435 C729.407975,318.981 726.716264,319.436388 725.131028,318.594235 C723.114454,317.522934 722.726641,314.711358 721.524448,312.76992" id="Path-37" stroke="#000000" stroke-width="3"></path>
            <path d="M720.721415,303.826339 C717.021159,312.942882 717.556321,309.848692 719.749694,326.151843 C723.912926,357.096784 740.474599,329.398161 756.637724,325.597443 C757.340852,325.432104 755.891923,326.93209 755.248661,327.260643 C751.579462,329.134727 747.816368,330.894137 743.880769,332.113201 C742.512248,332.537104 740.814168,332.845481 739.582772,332.113201 C738.498454,331.468384 738.565371,329.804239 738.056671,328.649758" id="Path-38" stroke="#000000" stroke-width="3"></path>
        </g>
    </g>
</svg>