<?xml version="1.0" encoding="utf-8"?>
<!-- Generator: Adobe Illustrator 18.0.0, SVG Export Plug-In . SVG Version: 6.00 Build 0)  -->
<!DOCTYPE svg PUBLIC "-//W3C//DTD SVG 1.1//EN" "http://www.w3.org/Graphics/SVG/1.1/DTD/svg11.dtd">
<svg version="1.1" id="Layer_1" xmlns="http://www.w3.org/2000/svg" xmlns:xlink="http://www.w3.org/1999/xlink" x="0px" y="0px"
	 viewBox="0 0 1000 600" enable-background="new 0 0 1000 600" xml:space="preserve">
<g>
	<g id="Oval-Copy">
		<path fill="none" stroke="#F7EE60" stroke-width="3" stroke-linecap="round" stroke-linejoin="round" d="M720.7,215.4
			c0.3,0.5,22.4-13.7,22.7-13.1c0.9,1.5-64.3,54.5-63.2,56.4c1.8,3.1,118.5-71.4,119.8-69.1c1.8,3.1-131.7,90.7-129.4,94.7
			c2.2,3.9,150.4-92.3,152.7-88.2c2.2,3.8-159.9,105.6-157,110.6c2.9,5,179.5-110.2,182.3-105.3c2.8,5-179.8,118.4-177.4,122.4
			c3.3,5.7,182.7-111.1,185.1-106.9c3.1,5.3-182.1,118.2-179.1,123.5c3.5,6.1,199.1-120.4,201.5-116.3
			c2.9,5.1-200.7,128.5-197.3,134.3c2.9,5.1,201-121.7,203.4-117.4c3,5.3-203.4,130.4-200.6,135.3c2.5,4.4,207.6-125.9,210.2-121.3
			c2.6,4.5-204.6,131.6-201.6,136.6c3.4,5.9,211.3-129.1,214.3-123.7c2.9,5.1-201.1,130.6-198.6,134.9
			c2.7,4.6,203.5-125.3,206.9-119.5c3.4,5.8-196.9,126.1-193.5,132c2.7,4.6,186.9-115.5,190.2-109.9c2.8,5-186.9,120.1-183.8,125.5
			c2.5,4.4,189.1-115.8,192-110.8c2.2,3.8-160.3,106-157.6,110.8c2.4,4.1,149-91.2,151.3-87.3c1.6,2.9-131.6,91.6-129.8,94.6
			c2,3.4,110.5-67.8,112.2-64.7c1,1.9-70.5,57.5-69.2,59.8c0.9,1.5,47.4-29.4,48.3-27.9"/>
	</g>
	<g>
		<g>
			<g enable-background="new    ">
				<path fill="none" stroke="#010101" stroke-width="3" stroke-linecap="round" stroke-linejoin="round" d="M364.9,278
					c0,0.1,1.7-1,1.8-1c0.1,0.2-4.4,6.3-4.3,6.5c0.1,0.1,3.8-2.3,3.9-2.2"/>
				<path fill="none" stroke="#010101" stroke-width="3" stroke-linecap="round" stroke-linejoin="round" d="M351.3,277.6l1-0.6
					c0.1,0.1,0.3,3.4,0.4,3.5c0,0.1,2.2-1.3,2.2-1.3c0.1,0.1-0.9,4-0.9,4.1c0,0.1,2.2-1.3,2.2-1.3c0.1,0.1-0.6,4.6-0.5,4.6
					c0,0.1,2.2-1.3,2.2-1.2c0.1,0.1-0.8,4.1-0.7,4.2c0,0.1,2.1-1.3,2.2-1.2s-1,4.1-0.9,4.3c0,0.1,3.2-2,3.3-1.9
					c0.1,0.2-3.3,5.6-3.2,5.7c0,0.1,2.6-1.5,2.6-1.5"/>
				<path fill="none" stroke="#010101" stroke-width="3" stroke-linecap="round" stroke-linejoin="round" d="M378.6,278.9
					c0.1,0.1,2.9-1.8,3-1.7c0.1,0.1,0.7,3.4,0.8,3.5c0,0.1,2.2-1.3,2.2-1.3c0.1,0.1-1,4.1-0.9,4.3c0,0.1,2.2-1.4,2.3-1.3
					c0.1,0.1-2.2,4.6-2.2,4.7c0,0.1,2.5-1.5,2.5-1.5c0.1,0.2-2.7,5.9-2.6,5.9c0,0.1,2.6-1.5,2.6-1.5"/>
				<path fill="none" stroke="#010101" stroke-width="3" stroke-linecap="round" stroke-linejoin="round" d="M372.7,279.5
					c0.1,0.2,4.6-2.8,4.6-2.7c0.2,0.3-6.4,7.1-6.2,7.3c0,0.1,2.8-1.7,2.8-1.6c0.1,0.2-3.1,5.2-3,5.3c0,0.1,2.5-1.5,2.5-1.5
					c0.1,0.2-2.4,5.5-2.3,5.7c0,0.1,2.3-1.5,2.4-1.4c0.1,0.1-1.6,4.6-1.5,4.6c0,0.1,2.2-1.4,2.2-1.3s-0.1,3.7-0.1,3.8
					s2.4-1.5,2.4-1.4c0.1,0.1,2,2.7,2,2.7c0.1,0.2,6.5-3.9,6.5-3.8"/>
				<path fill="none" stroke="#010101" stroke-width="3" stroke-linecap="round" stroke-linejoin="round" d="M402.4,277.7l1.3-0.8
					c0.1,0.1-1.4,4.6-1.3,4.7c0,0.1,2.5-1.5,2.6-1.5c0.1,0.1-2.7,5.1-2.6,5.2c0,0.1,2.5-1.5,2.6-1.5c0.1,0.2-2.6,4.9-2.6,5
					s2.5-1.5,2.6-1.5c0.1,0.2-2.9,5.9-2.8,6.1c0.1,0.1,2.8-1.7,2.8-1.6"/>
				<path fill="none" stroke="#010101" stroke-width="3" stroke-linecap="round" stroke-linejoin="round" d="M390.2,277.7l1.3-0.8
					c0.1,0.1-1.4,4.4-1.3,4.5c0,0.1,2.5-1.5,2.6-1.5c0.1,0.2-2.7,5-2.6,5.1c0,0.1,2.5-1.5,2.6-1.5c0.1,0.2-2.7,5.7-2.6,5.8
					c0,0.1,2.5-1.5,2.6-1.5s-2.5,5-2.4,5.2c0,0.1,2.4-1.5,2.4-1.4c0.1,0.1-1.3,4.3-1.3,4.5c0,0.1,2.2-1.3,2.2-1.3
					c0.1,0.1,0.5,3.4,0.6,3.5c0,0.1,3-1.8,3-1.7"/>
				<path fill="none" stroke="#010101" stroke-width="3" stroke-linecap="round" stroke-linejoin="round" d="M413.7,279.4
					c0.1,0.1,4-2.4,4-2.3c0.1,0.1,2,2.8,2,2.8s2.3-1.5,2.3-1.4s-0.7,4-0.6,4c0,0.1,2.3-1.4,2.3-1.4c0.2,0.3-8.8,8.3-8.7,8.5
					c0.1,0.2,8.7-5.3,8.9-5.1c0.1,0.2-3.3,6.1-3.2,6.3c0,0.1,2.2-1.4,2.2-1.3c0.1,0.1-2.3,5.3-2.2,5.5c0,0.1,2.5-1.5,2.5-1.5
					c0.1,0.1-1.7,4.8-1.7,5c0,0.1,1.7-1,1.7-0.9"/>
				<path fill="none" stroke="#010101" stroke-width="3" stroke-linecap="round" stroke-linejoin="round" d="M409.7,277.7l1.3-0.8
					c0.1,0.1-1.4,4.4-1.3,4.5c0,0.1,2.5-1.5,2.5-1.5c0.1,0.2-2.6,4.9-2.5,5.1c0,0.1,2.5-1.5,2.5-1.5c0.1,0.2-2.6,5.6-2.5,5.8
					c0.1,0.1,3.5-2.2,3.6-2.1c0.1,0.2-3.7,5.7-3.6,5.9c0,0.1,2.5-1.5,2.5-1.5c0.1,0.1-2.6,5.1-2.5,5.2c0,0.1,2.5-1.5,2.5-1.5"/>
			</g>
			<g enable-background="new    ">
				<path fill="none" stroke="#010101" stroke-width="3" stroke-linecap="round" stroke-linejoin="round" d="M337.7,325
					c0.1,0.1,4-2.4,4-2.3c0.1,0.1,2,2.8,2,2.8c0,0.1,2.3-1.5,2.3-1.4c0,0.1-0.7,4-0.6,4c0,0.1,2.3-1.4,2.3-1.4
					c0.2,0.3-8.8,8.3-8.7,8.5c0.1,0.2,8.7-5.3,8.9-5.1"/>
				<path fill="none" stroke="#010101" stroke-width="3" stroke-linecap="round" stroke-linejoin="round" d="M333.9,323.4l1.3-0.8
					c0.1,0.1-1.4,4.4-1.3,4.5c0,0.1,2.5-1.5,2.5-1.5c0.1,0.2-2.6,4.9-2.5,5.1c0,0.1,2.5-1.5,2.5-1.5c0.1,0.2-2.6,5.6-2.5,5.8
					c0.1,0.1,3.5-2.2,3.6-2.1c0.1,0.2-3.7,5.7-3.6,5.9c0,0.1,2.5-1.5,2.5-1.5c0.1,0.1-2.6,5.1-2.5,5.2c0,0.1,2.5-1.5,2.5-1.5"/>
				<path fill="none" stroke="#010101" stroke-width="3" stroke-linecap="round" stroke-linejoin="round" d="M356.8,325
					c0.1,0.1,4-2.4,4-2.3s2,2.8,2,2.8c0,0.1,2.3-1.5,2.3-1.4c0,0.1-0.7,4-0.6,4c0,0.1,2.3-1.4,2.3-1.4c0.2,0.3-8.8,8.3-8.7,8.5
					c0.1,0.2,8.7-5.3,8.9-5.1c0.1,0.2-3.3,6.1-3.2,6.3c0,0.1,2.2-1.4,2.2-1.3c0.1,0.1-2.3,5.3-2.2,5.5c0,0.1,2.5-1.5,2.5-1.5
					c0.1,0.1-1.7,4.8-1.7,5c0,0.1,1.7-1,1.7-0.9"/>
				<path fill="none" stroke="#010101" stroke-width="3" stroke-linecap="round" stroke-linejoin="round" d="M352.8,323.4l1.3-0.8
					c0.1,0.1-1.4,4.4-1.3,4.5c0,0.1,2.5-1.5,2.5-1.5c0.1,0.2-2.6,4.9-2.5,5.1c0,0.1,2.5-1.5,2.5-1.5c0.1,0.2-2.6,5.6-2.5,5.8
					c0.1,0.1,3.5-2.2,3.6-2.1c0.1,0.2-3.7,5.7-3.6,5.9c0,0.1,2.5-1.5,2.5-1.5c0.1,0.1-2.6,5.1-2.5,5.2c0,0.1,2.5-1.5,2.5-1.5"/>
				<path fill="none" stroke="#010101" stroke-width="3" stroke-linecap="round" stroke-linejoin="round" d="M378.6,324.6
					c0.1,0.1,2.9-1.8,3-1.7c0.1,0.1,0.7,3.4,0.8,3.5c0,0.1,2.2-1.3,2.2-1.3c0.1,0.1-1,4.1-0.9,4.3c0,0.1,2.2-1.4,2.3-1.3
					c0.1,0.1-2.2,4.6-2.2,4.7c0,0.1,2.5-1.5,2.5-1.5c0.1,0.2-2.7,5.9-2.6,5.9c0,0.1,2.6-1.5,2.6-1.5"/>
				<path fill="none" stroke="#010101" stroke-width="3" stroke-linecap="round" stroke-linejoin="round" d="M372.7,325.1
					c0.1,0.2,4.6-2.8,4.6-2.7c0.2,0.3-6.4,7.1-6.2,7.3c0,0.1,2.8-1.7,2.8-1.6c0.1,0.2-3.1,5.2-3,5.3c0,0.1,2.5-1.5,2.5-1.5
					c0.1,0.2-2.4,5.5-2.3,5.7c0,0.1,2.3-1.5,2.4-1.4c0.1,0.1-1.6,4.6-1.5,4.6c0,0.1,2.2-1.4,2.2-1.3c0.1,0.1-0.1,3.7-0.1,3.8
					c0,0.1,2.4-1.5,2.4-1.4c0.1,0.1,2,2.7,2,2.7c0.1,0.2,6.5-3.9,6.5-3.8"/>
				<path fill="none" stroke="#010101" stroke-width="3" stroke-linecap="round" stroke-linejoin="round" d="M402.7,337.3
					c0,0,1.3-0.8,1.4-0.8"/>
				<path fill="none" stroke="#010101" stroke-width="3" stroke-linecap="round" stroke-linejoin="round" d="M397.6,324.6
					c0.1,0.1,3.1-1.9,3.2-1.8c0.1,0.1,0.7,3.4,0.8,3.5c0,0.1,2.2-1.3,2.2-1.3c0.1,0.1-1.1,4.2-1.1,4.3c0,0.1,2.4-1.5,2.4-1.4"/>
				<path fill="none" stroke="#010101" stroke-width="3" stroke-linecap="round" stroke-linejoin="round" d="M391.7,325
					c0.1,0.2,4.6-2.8,4.6-2.7c0.2,0.3-6.4,7.1-6.2,7.3c0,0.1,2.9-1.7,2.9-1.7c0.1,0.2-3.1,5.3-3,5.4c0,0.1,2.5-1.5,2.6-1.5
					c0.1,0.2-2.5,5.6-2.4,5.7c0,0.1,2.4-1.5,2.4-1.4c0.1,0.1-1.6,4.6-1.5,4.7c0,0.1,2.2-1.4,2.2-1.3c0.1,0.1-0.2,3.7-0.1,3.8
					c0,0.1,2.4-1.5,2.5-1.5c0.1,0.1,1.9,2.7,1.9,2.8c0.1,0.2,6.7-4,6.8-4"/>
				<path fill="none" stroke="#010101" stroke-width="3" stroke-linecap="round" stroke-linejoin="round" d="M413.9,334.6
					c0.1,0.1,4.1-2.5,4.1-2.4c0.1,0.1,3.1,2.3,3.1,2.4s1.8-1.1,1.8-1"/>
				<path fill="none" stroke="#010101" stroke-width="3" stroke-linecap="round" stroke-linejoin="round" d="M413.9,325
					c0.1,0.1,4.1-2.5,4.1-2.4c0.1,0.1,2.7,2.3,2.8,2.4c0,0.1,2.3-1.5,2.3-1.4"/>
				<path fill="none" stroke="#010101" stroke-width="3" stroke-linecap="round" stroke-linejoin="round" d="M410,323.4l1.3-0.8
					c0.1,0.1-1.4,4.4-1.3,4.5c0,0.1,2.5-1.5,2.6-1.5c0.1,0.2-2.7,5-2.6,5.1c0,0.1,2.5-1.5,2.6-1.5c0.1,0.2-2.7,5.7-2.6,5.8
					c0.1,0.2,4.8-2.9,4.9-2.8c0.1,0.2-5.1,6.5-4.9,6.6c0,0.1,2.5-1.5,2.6-1.5c0.1,0.1-2.7,5.1-2.6,5.2c0,0.1,2.5-1.5,2.6-1.5
					c0.1,0.1,1,3.1,1.1,3.2c0.1,0.1,4.1-2.5,4.1-2.4c0.1,0.1,2.3,2.3,2.4,2.4s3-1.8,3-1.7"/>
				<path fill="none" stroke="#010101" stroke-width="3" stroke-linecap="round" stroke-linejoin="round" d="M427.5,336.6l1.3-0.8
					c0.1,0.1-0.6,4.4-0.5,4.5c0,0.1,2.2-1.4,2.2-1.3c0,0.1-0.3,3.8-0.2,3.9c0,0.1,2.3-1.4,2.3-1.4c0,0.1,1.3,2.8,1.4,2.9
					s4.5-2.8,4.6-2.7"/>
				<path fill="none" stroke="#010101" stroke-width="3" stroke-linecap="round" stroke-linejoin="round" d="M435.1,324.6
					c0.1,0.1,3.4-2.1,3.4-2c0.1,0.1,0.9,3.3,1,3.4c0,0.1,2.2-1.4,2.2-1.3c0.1,0.1-1.1,4.2-1.1,4.3s2.4-1.5,2.4-1.4"/>
				<path fill="none" stroke="#010101" stroke-width="3" stroke-linecap="round" stroke-linejoin="round" d="M429.2,325.1
					c0.1,0.2,4.8-2.9,4.9-2.8c0.2,0.3-5.8,6.8-5.7,7c0,0.1,2.4-1.5,2.5-1.5c0.1,0.1-1.1,4.1-1,4.2c0,0.1,2.3-1.4,2.3-1.4
					c0.1,0.1,1.7,3.2,1.8,3.3s3.1-1.9,3.2-1.8c0,0.1,1.5,2.8,1.5,2.9s2.4-1.5,2.5-1.5c0.1,0.1-0.5,3.9-0.4,4c0,0.1,2.3-1.5,2.3-1.4"
					/>
			</g>
			<g enable-background="new    ">
				<path fill="none" stroke="#010101" stroke-width="3" stroke-linecap="round" stroke-linejoin="round" d="M380,382.2l1.3-0.8
					c0.1,0.1-0.6,4.4-0.5,4.5c0,0.1,2.2-1.4,2.2-1.3c0,0.1-0.3,3.8-0.2,3.9c0,0.1,2.3-1.4,2.3-1.4c0,0.1,1.3,2.8,1.4,2.9
					c0.1,0.1,4.5-2.8,4.6-2.7"/>
				<path fill="none" stroke="#010101" stroke-width="3" stroke-linecap="round" stroke-linejoin="round" d="M387.7,370.2
					c0.1,0.1,3.4-2.1,3.4-2c0.1,0.1,0.9,3.3,1,3.4c0,0.1,2.2-1.4,2.2-1.3c0.1,0.1-1.1,4.2-1.1,4.3c0,0.1,2.4-1.5,2.4-1.4"/>
				<path fill="none" stroke="#010101" stroke-width="3" stroke-linecap="round" stroke-linejoin="round" d="M381.8,370.7
					c0.1,0.2,4.8-2.9,4.9-2.8c0.2,0.3-5.8,6.8-5.7,7c0,0.1,2.4-1.5,2.5-1.5c0.1,0.1-1.1,4.1-1,4.2c0,0.1,2.3-1.4,2.3-1.4
					c0.1,0.1,1.7,3.2,1.8,3.3c0.1,0.1,3.1-1.9,3.2-1.8c0,0.1,1.5,2.8,1.5,2.9c0,0.1,2.4-1.5,2.5-1.5c0.1,0.1-0.5,3.9-0.4,4
					c0,0.1,2.3-1.5,2.3-1.4"/>
			</g>
		</g>
	</g>
	<g>
		<g>
			<g enable-background="new    ">
				<path fill="none" stroke="#010101" stroke-linecap="round" stroke-linejoin="round" d="M771.7,286.3c0.1,0.1,3.5-2.2,3.6-2.1
					c0,0.1-0.9,2.2-0.8,2.2c0.1,0.1,2.5-1.5,2.5-1.5c0,0.1-1.2,2.2-1.1,2.2c0,0.1,2.2-1.4,2.2-1.3s-1.4,2.3-1.4,2.3
					c0,0.1,2.2-1.3,2.2-1.3c0,0.1-1.5,2.8-1.5,2.9c0,0.1,2.2-1.4,2.2-1.3c0.1,0.1-2,3.1-1.9,3.2c0,0.1,2.3-1.5,2.4-1.4
					c0.1,0.1-2.4,3.4-2.3,3.5c0,0.1,2.5-1.5,2.5-1.5c0,0.1-2.6,3.1-2.5,3.1c0,0.1,2.5-1.5,2.5-1.5c0.1,0.1-2.6,2.9-2.5,3
					c0,0.1,2.5-1.5,2.5-1.5c0.1,0.1-2.9,4-2.8,4.1c0.1,0.1,2.7-1.6,2.8-1.5c0.1,0.2-4.1,4-4,4.2c0.1,0.1,3.8-2.3,3.9-2.2"/>
				<path fill="none" stroke="#010101" stroke-linecap="round" stroke-linejoin="round" d="M767.9,285.7c0,0.1,2.4-1.5,2.4-1.4
					c0.1,0.1-4.3,3.9-4.2,4c0.1,0.2,7.4-4.5,7.5-4.3c0.1,0.2-8.3,6.9-8.1,7.1c0.1,0.1,2.8-1.7,2.9-1.7c0.1,0.1-3.1,4-3,4.1
					c0,0.1,2.5-1.5,2.6-1.5c0.1,0.1-2.6,3.9-2.6,3.9c0,0.1,2.5-1.5,2.5-1.5c0.1,0.1-2.5,2.9-2.5,3c0,0.1,2.5-1.5,2.5-1.5
					c0.1,0.1-2.4,3.3-2.3,3.4c0,0.1,2.3-1.5,2.4-1.4c0.1,0.1-1.9,3.4-1.9,3.5c0,0.1,2.2-1.4,2.2-1.3c0.1,0.1-1.4,3-1.3,3.1
					c0,0.1,2.1-1.3,2.2-1.2c0,0.1-0.9,2.5-0.9,2.5c0,0.1,2.3-1.4,2.3-1.4c0,0.1-0.7,2.2-0.6,2.3c0,0.1,2.9-1.8,3-1.7
					c0,0.1-0.9,2.2-0.9,2.2c0.1,0.2,7.7-4.7,7.8-4.5c0.1,0.2-4.3,4-4.2,4.2c0,0.1,2.4-1.5,2.4-1.4"/>
				<path fill="none" stroke="#010101" stroke-linecap="round" stroke-linejoin="round" d="M796.6,284.5l0.4-0.3l-0.4,2
					c0.1,0.1,2.5-1.5,2.6-1.5c0.1,0.1-2.6,2.9-2.6,3c0,0.1,2.5-1.5,2.6-1.5c0.1,0.1-2.6,3-2.6,3c0,0.1,2.5-1.5,2.6-1.5
					s-2.7,3.5-2.6,3.6c0,0.1,2.5-1.5,2.6-1.5c0.1,0.1-2.7,3.4-2.6,3.6c0,0.1,2.5-1.5,2.6-1.5s-2.6,3.6-2.6,3.7s2.5-1.5,2.6-1.5
					c0,0.1-2.6,3.1-2.6,3.2c0,0.1,2.5-1.5,2.6-1.5s-2.7,2.9-2.6,3c0,0.1,2.6-1.5,2.6-1.5c0.1,0.2-3.5,4.3-3.4,4.5
					c0.1,0.1,3.3-2,3.3-1.9"/>
				<path fill="none" stroke="#010101" stroke-linecap="round" stroke-linejoin="round" d="M784.4,284.5l0.4-0.3l-0.4,1.8
					c0,0.1,2.5-1.5,2.6-1.5c0.1,0.1-2.6,3.9-2.6,4c0.1,0.1,2.5-1.5,2.6-1.5c0.1,0.1-2.6,3.7-2.6,3.9c0,0.1,2.5-1.5,2.6-1.5
					c0.1,0.1-2.6,3.8-2.6,3.9c0,0.1,2.5-1.5,2.6-1.5c0.1,0.1-2.6,3-2.6,3.1s2.5-1.5,2.6-1.5c0.1,0.1-2.6,3.4-2.6,3.5
					c0.1,0.1,2.5-1.5,2.6-1.5c0.1,0.1-2.5,3.8-2.5,3.9c0,0.1,2.4-1.5,2.5-1.5c0.1,0.1-2.2,3.4-2.2,3.5c0,0.1,2.2-1.4,2.2-1.3
					c0.1,0.1-1.6,2.8-1.5,2.9c0,0.1,2.2-1.3,2.2-1.3c0,0.1-1.2,2.6-1.1,2.6c0,0.1,2.2-1.4,2.3-1.4c0,0.1-1,2.2-1,2.2
					c0,0.1,2.7-1.6,2.8-1.5c0,0.1,0.2,2.3,0.2,2.4c0.1,0.2,7.9-4.8,8.1-4.6c0.1,0.2-4.7,4.4-4.6,4.5c0.1,0.1,3.2-2,3.3-1.9"/>
				<path fill="none" stroke="#010101" stroke-linecap="round" stroke-linejoin="round" d="M807,286.7c0.1,0.1,4-2.4,4-2.3
					c0,0.1-0.6,2.2-0.6,2.3c0.1,0.1,3.4-2.1,3.4-2c0,0.1-1,2.2-0.9,2.2c0,0.1,2.6-1.5,2.7-1.5c0,0.1-1,2.2-0.9,2.3
					c0,0.1,2.2-1.3,2.2-1.3c0,0.1-1.4,2.5-1.4,2.6c0,0.1,2.2-1.3,2.2-1.3c0,0.1-2,2.7-2,2.8c0,0.1,2.3-1.5,2.4-1.4
					c0.1,0.1-3.1,4-3,4.1c0.1,0.1,3.1-1.9,3.1-1.8"/>
				<path fill="none" stroke="#010101" stroke-linecap="round" stroke-linejoin="round" d="M806.9,297c0.1,0.1,4-2.5,4.1-2.3
					c0,0.1-1,2.2-1,2.3c0.2,0.3,7.9-4.9,8.1-4.6c0.1,0.2-5.4,4.5-5.3,4.6c0.1,0.1,2.8-1.7,2.8-1.6c0,0.1-0.9,2.1-0.9,2.1
					c0,0.1,2-1.2,2.1-1.2c0,0.1-1.7,3-1.6,3.1c0,0.1,2.4-1.5,2.5-1.5c0.1,0.1-2.5,3.4-2.5,3.5c0,0.1,2.5-1.5,2.5-1.5
					c0.1,0.1-2.6,3.5-2.5,3.7c0,0.1,2.5-1.5,2.5-1.5s-2.6,3.1-2.5,3.2c0,0.1,2.5-1.5,2.5-1.5s-0.8,2-0.8,2l0.8-0.4"/>
				<path fill="none" stroke="#010101" stroke-linecap="round" stroke-linejoin="round" d="M803.9,284.6l0.4-0.3l-0.4,1.8
					c0,0.1,3.1-1.9,3.1-1.8c0.1,0.1-3.2,4.1-3.1,4.3c0,0.1,2.5-1.5,2.5-1.5c0.1,0.1-2.6,3.7-2.5,3.8c0,0.1,2.5-1.5,2.5-1.5
					c0.1,0.1-2.6,3.8-2.5,3.9c0,0.1,2.5-1.5,2.5-1.5c0.1,0.1-2.6,3-2.5,3c0,0.1,2.5-1.5,2.6-1.5c0.1,0.1-2.6,3.4-2.6,3.5
					c0.1,0.1,4-2.5,4.1-2.4c0.1,0.1-4.2,4.7-4.1,4.8c0,0.1,2.5-1.5,2.5-1.5c0.1,0.1-2.6,3.7-2.5,3.8c0,0.1,2.5-1.5,2.5-1.5
					c0.1,0.1-2.6,3.4-2.5,3.4c0,0.1,2.5-1.5,2.5-1.5c0.1,0.1-2.6,3.3-2.5,3.4c0,0.1,2.5-1.5,2.6-1.5"/>
			</g>
			<g enable-background="new    ">
				<path fill="none" stroke="#010101" stroke-linecap="round" stroke-linejoin="round" d="M740.7,332.3c0.1,0.1,4-2.4,4-2.3
					c0,0.1-0.6,2.2-0.6,2.3c0.1,0.1,3.4-2.1,3.4-2c0,0.1-1,2.2-0.9,2.2c0,0.1,2.6-1.5,2.7-1.5c0,0.1-1,2.2-0.9,2.3
					c0,0.1,2.2-1.3,2.2-1.3c0,0.1-1.4,2.5-1.4,2.6s2.2-1.3,2.2-1.3c0,0.1-2,2.7-2,2.8s2.3-1.5,2.4-1.4c0.1,0.1-3.1,4-3,4.1
					c0.1,0.1,3.1-1.9,3.1-1.8"/>
				<path fill="none" stroke="#010101" stroke-linecap="round" stroke-linejoin="round" d="M740.5,342.6c0.1,0.1,4-2.5,4.1-2.3
					c0,0.1-1,2.2-0.9,2.3c0.2,0.3,8-4.9,8.1-4.6c0.1,0.2-5.3,4.4-5.3,4.6c0.1,0.1,4.4-2.7,4.4-2.6"/>
				<path fill="none" stroke="#010101" stroke-linecap="round" stroke-linejoin="round" d="M737.6,330.2l0.4-0.3l-0.4,1.8
					c0,0.1,3.1-1.9,3.1-1.8c0.1,0.1-3.2,4.1-3.1,4.3c0,0.1,2.5-1.5,2.5-1.5c0.1,0.1-2.6,3.7-2.5,3.8c0,0.1,2.5-1.5,2.5-1.5
					c0.1,0.1-2.6,3.8-2.5,3.9c0,0.1,2.5-1.5,2.5-1.5c0.1,0.1-2.6,3-2.5,3c0,0.1,2.5-1.5,2.6-1.5c0.1,0.1-2.6,3.4-2.6,3.5
					c0.1,0.1,4-2.5,4.1-2.4s-4.2,4.7-4.1,4.8c0,0.1,2.5-1.5,2.5-1.5c0.1,0.1-2.6,3.7-2.5,3.8c0,0.1,2.5-1.5,2.5-1.5
					c0.1,0.1-2.6,3.4-2.5,3.4c0,0.1,2.5-1.5,2.5-1.5c0.1,0.1-2.6,3.3-2.5,3.4c0,0.1,2.5-1.5,2.6-1.5"/>
				<path fill="none" stroke="#010101" stroke-linecap="round" stroke-linejoin="round" d="M759.6,332.3c0.1,0.1,4-2.4,4-2.3
					c0,0.1-0.6,2.2-0.6,2.3c0.1,0.1,3.4-2.1,3.4-2c0,0.1-1,2.2-0.9,2.2c0,0.1,2.6-1.5,2.7-1.5c0,0.1-1,2.2-0.9,2.3
					c0,0.1,2.2-1.3,2.2-1.3c0,0.1-1.4,2.5-1.4,2.6s2.2-1.3,2.2-1.3c0,0.1-2,2.7-2,2.8s2.3-1.5,2.4-1.4c0.1,0.1-3.1,4-3,4.1
					c0.1,0.1,3.1-1.9,3.1-1.8"/>
				<path fill="none" stroke="#010101" stroke-linecap="round" stroke-linejoin="round" d="M759.5,342.6c0.1,0.1,4-2.5,4.1-2.3
					c0,0.1-1,2.2-1,2.3c0.2,0.3,7.9-4.9,8.1-4.6c0.1,0.2-5.4,4.5-5.3,4.6c0.1,0.1,2.8-1.7,2.8-1.6c0,0.1-0.9,2.1-0.9,2.1
					c0,0.1,2-1.2,2.1-1.2c0,0.1-1.7,3-1.6,3.1c0,0.1,2.4-1.5,2.5-1.5c0.1,0.1-2.5,3.4-2.5,3.5c0,0.1,2.5-1.5,2.5-1.5
					c0.1,0.1-2.6,3.5-2.5,3.7c0,0.1,2.5-1.5,2.5-1.5c0,0.1-2.6,3.1-2.5,3.2c0,0.1,2.5-1.5,2.5-1.5c0,0.1-0.8,2-0.8,2l0.8-0.4"/>
				<path fill="none" stroke="#010101" stroke-linecap="round" stroke-linejoin="round" d="M756.6,330.2l0.4-0.3l-0.4,1.8
					c0,0.1,3.1-1.9,3.1-1.8c0.1,0.1-3.2,4.1-3.1,4.3c0,0.1,2.5-1.5,2.5-1.5c0.1,0.1-2.6,3.7-2.5,3.8c0,0.1,2.5-1.5,2.5-1.5
					c0.1,0.1-2.6,3.8-2.5,3.9c0,0.1,2.5-1.5,2.5-1.5c0.1,0.1-2.6,3-2.5,3c0,0.1,2.5-1.5,2.6-1.5s-2.6,3.4-2.6,3.5
					c0.1,0.1,4-2.5,4.1-2.4s-4.2,4.7-4.1,4.8c0,0.1,2.5-1.5,2.5-1.5c0.1,0.1-2.6,3.7-2.5,3.8c0,0.1,2.5-1.5,2.5-1.5
					c0.1,0.1-2.6,3.4-2.5,3.4c0,0.1,2.5-1.5,2.5-1.5c0.1,0.1-2.6,3.3-2.5,3.4c0,0.1,2.5-1.5,2.6-1.5"/>
				<path fill="none" stroke="#010101" stroke-linecap="round" stroke-linejoin="round" d="M781.2,332c0.1,0.1,3.5-2.2,3.6-2.1
					c0,0.1-0.9,2.2-0.8,2.2c0.1,0.1,2.5-1.5,2.5-1.5s-1.2,2.2-1.2,2.2c0,0.1,2.2-1.4,2.2-1.3c0,0.1-1.4,2.3-1.4,2.3
					c0,0.1,2.2-1.3,2.2-1.3c0,0.1-1.5,2.8-1.5,2.9c0,0.1,2.2-1.4,2.2-1.3c0.1,0.1-2,3.1-1.9,3.2c0,0.1,2.3-1.5,2.4-1.4
					c0.1,0.1-2.4,3.4-2.3,3.5c0,0.1,2.5-1.5,2.5-1.5c0,0.1-2.6,3.1-2.5,3.1c0,0.1,2.5-1.5,2.5-1.5c0.1,0.1-2.6,2.9-2.5,3
					c0,0.1,2.5-1.5,2.5-1.5c0.1,0.1-2.9,4-2.8,4.1c0.1,0.1,2.7-1.6,2.8-1.5c0.1,0.2-4.1,4-4,4.2c0.1,0.1,3.8-2.3,3.9-2.2"/>
				<path fill="none" stroke="#010101" stroke-linecap="round" stroke-linejoin="round" d="M777.3,331.4c0,0.1,2.4-1.5,2.4-1.4
					c0.1,0.1-4.3,3.9-4.3,4c0.1,0.2,7.4-4.5,7.5-4.3c0.1,0.2-8.3,6.9-8.1,7.1c0.1,0.1,2.8-1.7,2.9-1.7c0.1,0.1-3.1,4-3,4.1
					c0,0.1,2.5-1.5,2.6-1.5s-2.6,3.9-2.6,3.9c0,0.1,2.5-1.5,2.5-1.5c0.1,0.1-2.5,2.9-2.5,3c0,0.1,2.5-1.5,2.5-1.5
					c0.1,0.1-2.4,3.3-2.3,3.4c0,0.1,2.3-1.5,2.4-1.4c0.1,0.1-1.9,3.4-1.9,3.5s2.2-1.4,2.2-1.3c0.1,0.1-1.4,3-1.3,3.1
					c0,0.1,2.1-1.3,2.2-1.2c0,0.1-0.9,2.5-0.9,2.5c0,0.1,2.3-1.4,2.3-1.4c0,0.1-0.7,2.2-0.6,2.3c0,0.1,2.9-1.8,3-1.7
					c0,0.1-0.9,2.2-0.9,2.2c0.1,0.2,7.7-4.7,7.8-4.5c0.1,0.2-4.3,4-4.2,4.2c0,0.1,2.4-1.5,2.4-1.4"/>
				<path fill="none" stroke="#010101" stroke-linecap="round" stroke-linejoin="round" d="M806.4,344l0.4-0.3
					c0,0.1-0.8,2.3-0.7,2.4c0.1,0.1,2.8-1.7,2.8-1.6"/>
				<path fill="none" stroke="#010101" stroke-linecap="round" stroke-linejoin="round" d="M800.2,332.1c0.1,0.1,3.7-2.2,3.7-2.2
					c0,0.1-0.9,2.2-0.9,2.2c0.1,0.1,2.5-1.5,2.6-1.5c0,0.1-1.2,2.2-1.1,2.2c0,0.1,2.2-1.4,2.2-1.3c0,0.1-1.4,2.3-1.4,2.3
					c0,0.1,2.2-1.4,2.2-1.3c0,0.1-1.5,2.9-1.5,3c0,0.1,2.3-1.4,2.3-1.4c0.1,0.1-2.1,3.2-2.1,3.3c0,0.1,2.4-1.5,2.5-1.4"/>
				<path fill="none" stroke="#010101" stroke-linecap="round" stroke-linejoin="round" d="M796.5,331.3c0,0.1,2.4-1.5,2.4-1.4
					c0.1,0.1-4.3,3.9-4.3,4c0.1,0.2,7.4-4.5,7.5-4.3c0.1,0.2-8.4,6.9-8.2,7.2c0.1,0.1,2.9-1.8,3-1.7c0.1,0.1-3.2,4-3.1,4.1
					c0,0.1,2.6-1.5,2.6-1.5c0.1,0.1-2.7,3.9-2.6,4c0,0.1,2.5-1.5,2.6-1.5c0.1,0.1-2.6,3-2.6,3.1c0,0.1,2.5-1.5,2.6-1.5
					s-2.4,3.4-2.4,3.4c0,0.1,2.4-1.5,2.4-1.4c0.1,0.1-2,3.4-1.9,3.5c0,0.1,2.2-1.4,2.2-1.3c0.1,0.1-1.4,3-1.4,3.1
					c0,0.1,2.2-1.3,2.2-1.3c0,0.1-1,2.5-0.9,2.6c0,0.1,2.3-1.5,2.4-1.4c0,0.1-0.7,2.3-0.7,2.3c0,0.1,3-1.9,3.1-1.8
					c0,0.1-1,2.2-1,2.2c0.1,0.2,8-4.9,8.1-4.6c0.1,0.2-4.6,4.3-4.6,4.4c0,0.1,2.8-1.7,2.8-1.6"/>
				<path fill="none" stroke="#010101" stroke-linecap="round" stroke-linejoin="round" d="M816.7,342c0.1,0.1,4.1-2.5,4.1-2.4
					c0,0.1-0.8,2.3-0.7,2.4c0.1,0.1,4.1-2.5,4.1-2.4c0,0.1-1.4,2.3-1.4,2.4c0.1,0.1,3.6-2.2,3.7-2.2c0,0-0.6,2.1-0.6,2.2l0.6-0.3"/>
				<path fill="none" stroke="#010101" stroke-linecap="round" stroke-linejoin="round" d="M816.7,332.3c0.1,0.1,4.1-2.5,4.1-2.4
					c0,0.1-1.1,2.3-1.1,2.4c0.1,0.1,4.1-2.5,4.1-2.4c0,0.1-1.5,2.3-1.5,2.4c0.1,0.1,4.1-2.5,4.1-2.4c0,0.1-1.5,2.3-1.5,2.4l1.6-0.9"
					/>
				<path fill="none" stroke="#010101" stroke-linecap="round" stroke-linejoin="round" d="M813.7,330.2l0.4-0.3l-0.4,1.8
					c0,0.1,3.1-1.9,3.1-1.8c0.1,0.1-3.2,4.1-3.1,4.3c0.1,0.1,2.5-1.5,2.6-1.5c0.1,0.1-2.6,3.7-2.6,3.9c0,0.1,2.5-1.5,2.6-1.5
					s-2.6,3.9-2.6,3.9c0,0.1,2.5-1.5,2.6-1.5c0.1,0.1-2.6,3-2.6,3.1s2.5-1.5,2.6-1.5c0.1,0.1-2.7,3.4-2.6,3.5
					c0.1,0.2,5.3-3.3,5.4-3.1c0.1,0.2-5.5,5.4-5.4,5.6c0,0.1,2.5-1.5,2.6-1.5c0.1,0.1-2.6,3.7-2.6,3.8c0,0.1,2.5-1.5,2.6-1.5
					s-2.7,3.4-2.6,3.4c0.1,0.1,2.5-1.5,2.6-1.5s-2.7,3.4-2.6,3.4c0.1,0.1,3.7-2.3,3.8-2.2c0,0.1-1.3,2.3-1.2,2.4s4-2.5,4.1-2.4
					c0,0.1,0.1,2.3,0.2,2.4c0.1,0.1,4.1-2.5,4.1-2.4s-1,2.3-1,2.4c0.1,0.1,3.3-2,3.3-1.9l-0.4,1.9l0.4-0.3"/>
				<path fill="none" stroke="#010101" stroke-linecap="round" stroke-linejoin="round" d="M831.2,343.4l0.4-0.3
					c0,0.1-0.3,2.1-0.3,2.2c0,0.1,2.4-1.5,2.4-1.4c0.1,0.1-2.2,2.8-2.2,2.8c0,0.1,2.2-1.4,2.2-1.3s-1.7,2.7-1.6,2.8
					c0,0.1,2.2-1.3,2.2-1.2c0,0.1-1.3,2.5-1.2,2.5c0,0.1,2.2-1.3,2.2-1.3c0,0.1-1.1,2.2-1,2.2c0,0.1,2.3-1.5,2.4-1.4
					c0,0.1-0.2,2.4-0.2,2.5c0.1,0.1,3.3-2,3.3-1.9c0,0.1-0.8,2.2-0.7,2.3c0.1,0.2,7.7-4.7,7.7-4.5c0.1,0.1-4.2,4-4.1,4.1
					c0,0.1,2.7-1.6,2.8-1.5"/>
				<path fill="none" stroke="#010101" stroke-linecap="round" stroke-linejoin="round" d="M837.7,332.1c0.1,0.1,3.9-2.4,4-2.2
					c0,0.1-0.9,2.2-0.9,2.3c0.1,0.1,2.8-1.6,2.8-1.6c0,0.1-1.2,2.2-1.2,2.2s2.4-1.5,2.4-1.4c0,0.1-1.3,2.2-1.3,2.3
					c0,0.1,2.2-1.4,2.2-1.3c0,0.1-1.5,2.8-1.5,2.9c0,0.1,2.2-1.4,2.3-1.3c0.1,0.1-2.2,3.2-2.2,3.4c0,0.1,2.4-1.5,2.5-1.5"/>
				<path fill="none" stroke="#010101" stroke-linecap="round" stroke-linejoin="round" d="M833.7,331.5c0,0.1,2.8-1.7,2.8-1.6
					c0.1,0.1-4.2,3.9-4.2,4c0.1,0.2,7.4-4.5,7.5-4.3c0.1,0.2-7.7,6.6-7.6,6.9c0.1,0.1,2.5-1.5,2.5-1.5c0.1,0.1-1.9,3.4-1.9,3.4
					c0,0.1,2.2-1.4,2.2-1.3c0,0.1-0.8,2.8-0.7,2.8c0,0.1,2.5-1.5,2.5-1.5s-1.1,2.2-1.1,2.2s2.8-1.7,2.8-1.6c0,0.1-0.5,2.3-0.5,2.3
					c0.1,0.1,3.1-1.9,3.2-1.8c0,0.1,0,2.4,0,2.5c0,0.1,2.7-1.6,2.8-1.5c0,0.1-0.6,2.6-0.5,2.7c0,0.1,2.2-1.4,2.3-1.3
					c0.1,0.1-1.5,2.8-1.4,2.8c0,0.1,2.2-1.4,2.2-1.3c0.1,0.1-2.3,3.2-2.2,3.3c0,0.1,2.6-1.5,2.6-1.5"/>
			</g>
			<g enable-background="new    ">
				<path fill="none" stroke="#010101" stroke-linecap="round" stroke-linejoin="round" d="M783.7,389l0.4-0.3
					c0,0.1-0.3,2.1-0.3,2.2s2.4-1.5,2.4-1.4c0.1,0.1-2.2,2.8-2.2,2.8s2.2-1.4,2.2-1.3c0,0.1-1.7,2.7-1.6,2.8c0,0.1,2.2-1.3,2.2-1.2
					s-1.3,2.5-1.2,2.5c0,0.1,2.2-1.3,2.2-1.3c0,0.1-1.1,2.2-1,2.2c0,0.1,2.3-1.5,2.4-1.4c0,0.1-0.2,2.4-0.2,2.5
					c0.1,0.1,3.3-2,3.3-1.9s-0.8,2.2-0.7,2.3c0.1,0.2,7.7-4.7,7.7-4.5c0.1,0.1-4.2,4-4.1,4.1c0,0.1,2.7-1.6,2.8-1.5"/>
				<path fill="none" stroke="#010101" stroke-linecap="round" stroke-linejoin="round" d="M790.3,377.7c0.1,0.1,3.9-2.4,4-2.2
					c0,0.1-0.9,2.2-0.9,2.3c0.1,0.1,2.8-1.6,2.8-1.6c0,0.1-1.2,2.2-1.2,2.2c0,0.1,2.4-1.5,2.4-1.4c0,0.1-1.3,2.2-1.3,2.3
					c0,0.1,2.2-1.4,2.2-1.3c0,0.1-1.5,2.8-1.5,2.9s2.2-1.4,2.3-1.3c0.1,0.1-2.2,3.2-2.2,3.4c0,0.1,2.4-1.5,2.5-1.5"/>
				<path fill="none" stroke="#010101" stroke-linecap="round" stroke-linejoin="round" d="M786.3,377.1c0,0.1,2.8-1.7,2.8-1.6
					c0.1,0.1-4.2,3.9-4.2,4c0.1,0.2,7.4-4.5,7.5-4.3c0.1,0.2-7.7,6.6-7.6,6.9c0.1,0.1,2.5-1.5,2.5-1.5c0.1,0.1-1.9,3.4-1.9,3.4
					s2.2-1.4,2.2-1.3s-0.8,2.8-0.7,2.8c0,0.1,2.5-1.5,2.5-1.5s-1.1,2.2-1.1,2.2c0,0.1,2.8-1.7,2.8-1.6s-0.5,2.3-0.5,2.3
					c0.1,0.1,3.1-1.9,3.2-1.8c0,0.1,0,2.4,0,2.5s2.7-1.6,2.8-1.5c0,0.1-0.6,2.6-0.5,2.7c0,0.1,2.2-1.4,2.3-1.3
					c0.1,0.1-1.5,2.8-1.4,2.8c0,0.1,2.2-1.4,2.2-1.3c0.1,0.1-2.3,3.2-2.2,3.3c0,0.1,2.6-1.5,2.6-1.5"/>
			</g>
		</g>
	</g>
	<path id="Path-27" fill="none" stroke="#010101" stroke-width="3" d="M100.9,244.7c14.7-31.9,28.5-64.1,44.3-95.5
		c2.2-4.5,5.8-8.4,9.6-11.7c32.9-28.5,65.9-56.9,100.4-83.6c6.8-5.3,14.5-9.5,22.8-11.8c26.6-7.6,53.6-14.6,81.1-17.9
		c21.5-2.6,59,7.3,77.9,16.4c58.7,28.1,109.3,78.1,149,129c29.5,37.9,54.8,75.9,74.6,119.8c7.1,15.8,11.6,36,14.8,52.9
		c1.8,9.6,2.8,19.3,4.4,28.9c0.3,1.5,0.3,3.3,1.5,4.2c0.9,0.9,2.7,0.8,3.8,0.3c1.6-0.9,3.6-2.2,3.8-4c0.2-1.1-2.2-0.5-3.2-0.7"/>
	<path id="Path-28" fill="none" stroke="#010101" stroke-width="3" d="M656.8,392.1c-9.3,18.1-17.9,36.5-27.8,54.3
		c-22.4,40.4-97.9,79-137.5,96.9c-32.8,14.7-75.8,22.2-110.3,28.3c-32,5.6-70.1,11.7-102.7,7.1c-75.3-10.4-134.7-79.6-152.8-150.1
		c-14.1-54.9-29.4-105.1-14.8-159.5"/>
	<path id="Path-29" fill="none" stroke="#010101" stroke-width="3" d="M197.2,82.3c0.2,5.6,0,11.3,0.6,16.9c0,0.3,1.2,0.2,1-0.1
		l2.1-13.3c-3.8-7.3-9,5.3-8,6.9c7.9,11.6,10.2-11,9.6-12.7c-0.3-0.8-7.6,5.5-2.4,5.5"/>
	<path id="Path-30" fill="none" stroke="#010101" stroke-width="3" d="M408.3,20.5c-4.6,0.2-10.2-2.2-13.7,0.6
		c-3.4,2.6-6.4,10-2.8,12.4c4.7,3.3,22.1,0.5,17.2-2.5l0.6-1.5c-8.7-5.3-9.6-6.3-14.2,1.6c-0.5,0.9-0.9,2.2-0.5,3.1
		c3.1,6.2,15.1,1.6,13.3-4.9c-1.9-7-15.8,7.8-11.1,10.2c0.5,0.3,14.2-5.7,0.1-5.2"/>
	<path id="Path-31" fill="none" stroke="#010101" stroke-width="3" d="M573.1,166.3c-2.9,1.3-6.1,2.2-8.9,4c-0.4,0.3-0.5,1.5,0,1.5
		l9.6,2.4c4.5-0.5,13.1-12.9,8.3-16.4c-4.5-3.3-16,7.6-11.8,10.2c5.6,3.4,14-2.2,15.2-7.9c0.2-0.7-0.1-2.1-0.9-2.1
		c-4.2,0.3-11.8,11.2-3.7,10.8c7.9-0.4-0.3-12.6-6.5-3.6"/>
	<path id="Path-32" fill="none" stroke="#010101" stroke-width="3" d="M668.9,314.7c0.4,3.5-1.8,12.1,1.3,10.5
		c5.6-3,13.5-11.5,9.6-16.4c-6.4-7.8-36.4,31.2-5.3,9.6c2.5-1.7,4.3-4.6,5.6-7.3c0.7-1.5,1.2-3.5,0.3-4.7
		c-4.9-6.5-16.6,10.8-14.5,13.7c1.4,2,9.2-2.7,6.9-1.9l1.6-3.2c-5.5,1.7-3.6,3.7-2.4,6.4"/>
	<path id="Path-33" fill="none" stroke="#010101" stroke-width="3" d="M624.6,429.9c-0.9,8.6-4.7,17.5-2.5,25.8
		c0.9,3.3,5.4-4,7.7-6.5c2.8-3-8.4-3.8-12.7,4.6c-0.8,1.4-1.7,3.4-0.7,4.6c8.7,10,15.5-19.5,4.7-7.1c-3.1,3.6-5.7,7.7-8.4,11.5"/>
	<path id="Path-34" fill="none" stroke="#010101" stroke-width="3" d="M399,564.2c0,0.3-0.7,24.6,4,4.6c0.6-2.7-11.6-2.8-12.7,2.2
		c-2.4,10.3,22.6-9,3.1-8.4c-2.9,0.1-11.3,8.4-5.3,10c1.3,0.3,16.1-3.4-3.6-0.1"/>
	<path id="Path-35" fill="none" stroke="#010101" stroke-width="3" d="M130.9,409.3c-1.3,0.8-4.5,3.9-4,2.4l4.4,1.8
		c0.2-0.5,2.9-18.3-5.9-16.7c-0.5,0.1-23.7,13.8-9.9,17.3c7.1,1.8,11.8-11.7,6.5-15.2c-5.3-3.4-9.6,6.9-8.6,10.6
		c2,7.4,11.5-0.3,4-1.9c-2.2-0.4-4.5-0.2-6.7-0.3"/>
	<path id="Path-36" fill="none" stroke="#010101" stroke-width="3" d="M79.8,321.1c3-5.5,6.4-10.8,9-16.4c23.2-48,8.9-60.3,54.1,7.9
		c1.5,2.2-3.7-3.9-5.5-5.9"/>
	<path id="Path-37" fill="none" stroke="#010101" stroke-width="3" d="M676,338.8c6.5,11.8,12.9,23.7,19.7,35.3c1,1.8,2.2,3.5,3.7,5
		c23.1,23.2,87.6,27.7,119,17.2c44.3-14.7,85.6-59.4,85.8-107.8c0-8.3-0.5-28.3-6.1-37.9c-35.2-59.9-117.7-49.9-160.7-3.6
		c-23.9,25.8-6.7,12.7-28.8,46c-0.9,1.3-3.2,1.7-4.6,0.9c-1.7-0.9-2.1-3.4-3.1-5"/>
	<path id="Path-38" fill="none" stroke="#010101" stroke-width="3" d="M700.3,281.3c-3.2,7.8-2.8,5.2-0.9,19.2
		c3.6,26.6,17.8,2.8,31.8-0.5c0.6-0.2-0.6,1.1-1.2,1.5c-3.2,1.6-6.4,3.1-9.8,4.2c-1.2,0.3-2.7,0.6-3.7,0c-0.9-0.5-0.9-2-1.3-3"/>
</g>
</svg>
