<?xml version="1.0" encoding="utf-8"?>
<!-- Generator: Adobe Illustrator 18.0.0, SVG Export Plug-In . SVG Version: 6.00 Build 0)  -->
<!DOCTYPE svg PUBLIC "-//W3C//DTD SVG 1.1//EN" "http://www.w3.org/Graphics/SVG/1.1/DTD/svg11.dtd">
<svg version="1.1" id="Layer_1" xmlns="http://www.w3.org/2000/svg" xmlns:xlink="http://www.w3.org/1999/xlink" x="0px" y="0px"
	 viewBox="0 0 500 500" enable-background="new 0 0 500 500" xml:space="preserve">
<g>
	<path fill="none" stroke="#020202" stroke-width="2" stroke-miterlimit="10" d="M64.8,68.2c-75.6,7.5-52.7,106.1,28.2,79.4
		c15.7-5.3,51.3-54.9,39.5-72.4c-26.3-39.1-102.8-12-107.3,28.4"/>
	<path fill="none" stroke="#020202" stroke-width="2" stroke-miterlimit="10" d="M76.8,143.1c0.4,69.1,6.5,132.4,3.4,201.7"/>
	<path fill="none" stroke="#020202" stroke-width="2" stroke-miterlimit="10" d="M82,157.3c67,101.4,31.5,97.5,79.8,28
		c6.3-9,15.4-15.7,21.9-24.6c0.7-0.9-1.6-1.4-2.4-2.2"/>
	<path fill="none" stroke="#020202" stroke-width="2" stroke-miterlimit="10" d="M182.3,125.6c-0.4,12.6-1.6,25.1-1.3,37.8
		c0.1,4.7,0.3,9.7,2.4,14c1.2,2.5,0.3-5.5,0.4-8.3"/>
	<line fill="none" stroke="#020202" stroke-width="2" stroke-miterlimit="10" x1="188.9" y1="119.9" x2="234.9" y2="116.4"/>
	<path fill="none" stroke="#020202" stroke-width="2" stroke-miterlimit="10" d="M244.6,120.1c-0.5,9.7-1.3,19.4-1.6,29.1
		c0,3.8-0.3,7.9,0.9,11.6c0.4,1.3,1.1-2.5,1.6-3.7"/>
	<path fill="none" stroke="#020202" stroke-width="2" stroke-miterlimit="10" d="M200.8,170.1c9.1,0,42.1,9.6,40.3-6.3"/>
	<path fill="none" stroke="#020202" stroke-width="2" stroke-miterlimit="10" d="M182.7,124.4c22.6-26.5,10.9-15.8,33.8-33.3"/>
	<path fill="none" stroke="#020202" stroke-width="2" stroke-miterlimit="10" d="M250.9,100.6c-7.9,17.9-7.5,13.7,11.1-6.1"/>
	<path fill="none" stroke="#020202" stroke-width="2" stroke-miterlimit="10" d="M228.6,93.6c12.8,0,25.4,0,38.2,0"/>
	<path fill="none" stroke="#020202" stroke-width="2" stroke-miterlimit="10" d="M275,101c-0.4,10.4-0.8,20.7-1.2,31.1"/>
	<line fill="none" stroke="#020202" stroke-width="2" stroke-miterlimit="10" x1="273.7" y1="132.3" x2="254.4" y2="161.7"/>
	<path fill="none" stroke="#020202" stroke-width="2" stroke-miterlimit="10" d="M109.7,78.1c-0.1,0.7-0.1,1.3-0.3,2"/>
	<path fill="none" stroke="#020202" stroke-width="2" stroke-miterlimit="10" d="M83.9,158c44.9-20.9,57.9-49.1,79.5-16.5"/>
	<path fill="none" stroke="#020202" stroke-width="2" stroke-miterlimit="10" d="M403.4,47.8c-15,5-31.9,6.3-45,15.1
		c-60.2,40.4,22.6,74.6,65.4,66.6c37.7-7.1,86.4-43.3,35.9-74.5c-25.8-15.9-61.2-20-90-13"/>
	<path fill="none" stroke="#020202" stroke-width="2" stroke-miterlimit="10" d="M362.8,73.7c9.5-4.3,19-8.6,28.6-12.9"/>
	<path fill="none" stroke="#020202" stroke-width="2" stroke-miterlimit="10" d="M380.3,148.5c-23.8,53.1-12.5,23.4-32.1,89.5"/>
	<path fill="none" stroke="#020202" stroke-width="2" stroke-miterlimit="10" d="M401.5,145.1c65.2,134.4,69.5,180.6,63.1,124.1"/>
	<path fill="none" stroke="#020202" stroke-width="2" stroke-miterlimit="10" d="M410.2,160.3c-7.8,55.7,3.9,122.8-18.8,174.3
		c-2.1,4.9-1.1-10.5-1.6-15.9"/>
	<path fill="none" stroke="#020202" stroke-width="2" stroke-miterlimit="10" d="M389.8,318.7c-20.4,19.2-89,126.9-57,61.6"/>
	<path fill="none" stroke="#020202" stroke-width="2" stroke-miterlimit="10" d="M382.7,325.6c12.8,21.5,61.9,90.8,70.4,132.7
		c0.4,2-3.4,2-5.1,3"/>
	<line fill="none" stroke="#020202" stroke-width="2" stroke-miterlimit="10" x1="74.9" y1="342.7" x2="31.1" y2="426"/>
	<path fill="none" stroke="#020202" stroke-width="2" stroke-miterlimit="10" d="M80.8,333.5c60,97.3,37.5,53.8,72.3,127.4"/>
</g>
</svg>
