<?xml version="1.0" encoding="utf-8"?>
<!-- Generator: Adobe Illustrator 18.0.0, SVG Export Plug-In . SVG Version: 6.00 Build 0)  -->
<!DOCTYPE svg PUBLIC "-//W3C//DTD SVG 1.1//EN" "http://www.w3.org/Graphics/SVG/1.1/DTD/svg11.dtd">
<svg version="1.1" id="Layer_1" xmlns="http://www.w3.org/2000/svg" xmlns:xlink="http://www.w3.org/1999/xlink" x="0px" y="0px"
	 viewBox="0 0 438.4 373.3" enable-background="new 0 0 438.4 373.3" xml:space="preserve">
<g>
	<path fill="none" stroke="#010101" stroke-width="2" stroke-miterlimit="10" d="M67.5,45.2c-57.4,5.7-40,80.6,21.4,60.3
		c11.9-4,39-41.7,30-55c-20-29.7-78.1-9.1-81.5,21.6"/>
	<path fill="none" stroke="#010101" stroke-width="2" stroke-miterlimit="10" d="M76.6,102.1c0.3,52.5,4.9,100.6,2.6,153.2"/>
	<path fill="none" stroke="#010101" stroke-width="2" stroke-miterlimit="10" d="M80.6,112.9c50.9,77,23.9,74.1,60.6,21.3
		c4.8-6.8,11.7-11.9,16.6-18.7c0.5-0.7-1.2-1.1-1.8-1.7"/>
	<path fill="none" stroke="#010101" stroke-width="2" stroke-miterlimit="10" d="M156.8,88.8c-0.3,9.6-1.2,19.1-1,28.7
		c0.1,3.6,0.2,7.4,1.8,10.6c0.9,1.9,0.2-4.2,0.3-6.3"/>
	<line fill="none" stroke="#010101" stroke-width="2" stroke-miterlimit="10" x1="161.8" y1="84.5" x2="196.7" y2="81.8"/>
	<path fill="none" stroke="#010101" stroke-width="2" stroke-miterlimit="10" d="M204.1,84.6c-0.4,7.4-1,14.7-1.2,22.1
		c0,2.9-0.2,6,0.7,8.8c0.3,1,0.8-1.9,1.2-2.8"/>
	<path fill="none" stroke="#010101" stroke-width="2" stroke-miterlimit="10" d="M170.8,122.6c6.9,0,32,7.3,30.6-4.8"/>
	<path fill="none" stroke="#010101" stroke-width="2" stroke-miterlimit="10" d="M157.1,87.9c17.2-20.1,8.3-12,25.7-25.3"/>
	<path fill="none" stroke="#010101" stroke-width="2" stroke-miterlimit="10" d="M208.9,69.8c-6,13.6-5.7,10.4,8.4-4.6"/>
	<path fill="none" stroke="#010101" stroke-width="2" stroke-miterlimit="10" d="M191.9,64.5c9.7,0,19.3,0,29,0"/>
	<path fill="none" stroke="#010101" stroke-width="2" stroke-miterlimit="10" d="M227.2,70.1c-0.3,7.9-0.6,15.7-0.9,23.6"/>
	<line fill="none" stroke="#010101" stroke-width="2" stroke-miterlimit="10" x1="226.2" y1="93.9" x2="211.5" y2="116.2"/>
	<path fill="none" stroke="#010101" stroke-width="2" stroke-miterlimit="10" d="M101.6,52.7c-0.1,0.5-0.1,1-0.2,1.5"/>
	<path fill="none" stroke="#010101" stroke-width="2" stroke-miterlimit="10" d="M82,113.4c34.1-15.9,44-37.3,60.4-12.5"/>
	<path fill="none" stroke="#010101" stroke-width="2" stroke-miterlimit="10" d="M324.7,29.7c-11.4,3.8-24.2,4.8-34.2,11.5
		c-45.7,30.7,17.2,56.7,49.7,50.6c28.6-5.4,65.6-32.9,27.3-56.6C347.9,23.1,321,20,299.1,25.3"/>
	<path fill="none" stroke="#010101" stroke-width="2" stroke-miterlimit="10" d="M293.9,49.4c7.2-3.3,14.4-6.5,21.7-9.8"/>
	<path fill="none" stroke="#010101" stroke-width="2" stroke-miterlimit="10" d="M307.2,106.2c-18.1,40.3-9.5,17.8-24.4,68"/>
	<path fill="none" stroke="#010101" stroke-width="2" stroke-miterlimit="10" d="M323.3,103.6c49.5,102.1,52.8,137.2,47.9,94.3"/>
	<path fill="none" stroke="#010101" stroke-width="2" stroke-miterlimit="10" d="M329.9,115.2c-5.9,42.3,3,93.3-14.3,132.4
		c-1.6,3.7-0.8-8-1.2-12.1"/>
	<path fill="none" stroke="#010101" stroke-width="2" stroke-miterlimit="10" d="M314.4,235.5c-15.5,14.6-67.6,96.4-43.3,46.8"/>
	<path fill="none" stroke="#010101" stroke-width="2" stroke-miterlimit="10" d="M309,240.7c9.7,16.3,47,69,53.5,100.8
		c0.3,1.5-2.6,1.5-3.9,2.3"/>
	<line fill="none" stroke="#010101" stroke-width="2" stroke-miterlimit="10" x1="75.2" y1="253.7" x2="41.9" y2="317"/>
	<path fill="none" stroke="#010101" stroke-width="2" stroke-miterlimit="10" d="M79.7,246.7c45.6,73.9,28.5,40.9,54.9,96.8"/>
</g>
</svg>
