<?xml version="1.0" encoding="utf-8"?>
<!-- Generator: Adobe Illustrator 18.0.0, SVG Export Plug-In . SVG Version: 6.00 Build 0)  -->
<!DOCTYPE svg PUBLIC "-//W3C//DTD SVG 1.1//EN" "http://www.w3.org/Graphics/SVG/1.1/DTD/svg11.dtd">
<svg version="1.1" id="Layer_1" xmlns="http://www.w3.org/2000/svg" xmlns:xlink="http://www.w3.org/1999/xlink" x="0px" y="0px"
	 viewBox="0 0 971 655" enable-background="new 0 0 971 655" xml:space="preserve">
<title>Group 3</title>
<desc>Created with Sketch Beta.</desc>
<g id="Oval-Copy">
	<path fill="none" stroke="#FDFF59" stroke-width="3" stroke-linecap="round" stroke-linejoin="round" d="M746.4,229.3
		c0.3,0.6,26-15.9,26.4-15.2c1,1.8-74.7,63.3-73.4,65.5c2.1,3.6,137.6-82.9,139.1-80.3c2.1,3.6-153,105.4-150.3,110
		c2.6,4.5,174.7-107.2,177.4-102.4c2.5,4.4-185.7,122.7-182.4,128.5c3.4,5.8,208.5-128,211.8-122.3c3.3,5.8-208.8,137.5-206.1,142.2
		c3.8,6.6,212.2-129.1,215-124.2c3.6,6.2-211.5,137.3-208,143.4c4.1,7.1,231.3-139.9,234-135.1c3.4,5.9-233.1,149.3-229.2,156
		c3.4,5.9,233.5-141.3,236.3-136.4c3.5,6.1-236.3,151.5-233,157.2c2.9,5.1,241.1-146.2,244.1-140.9c3,5.2-237.7,152.8-234.2,158.7
		c3.9,6.8,245.4-149.9,248.9-143.7c3.4,5.9-233.6,151.7-230.7,156.7c3.1,5.3,236.4-145.5,240.3-138.8
		c3.9,6.7-228.7,146.5-224.7,153.3c3.1,5.3,217.1-134.2,220.9-127.6c3.3,5.8-217.1,139.5-213.5,145.8c2.9,5.1,219.7-134.5,223-128.7
		c2.6,4.4-186.2,123.1-183,128.7c2.8,4.8,173.1-105.9,175.7-101.4c1.9,3.4-152.8,106.4-150.8,109.9c2.3,4,128.3-78.7,130.3-75.2
		c1.2,2.2-81.9,66.8-80.4,69.5c1,1.7,55.1-34.2,56.1-32.4"/>
</g>
<g>
	<g>
		<g enable-background="new    ">
			<path fill="none" stroke="#000000" stroke-width="3" stroke-linecap="round" stroke-linejoin="round" d="M333.1,302
				c0,0.1,2-1.2,2.1-1.2c0.1,0.2-5.1,7.3-5,7.5c0.1,0.1,4.4-2.7,4.5-2.6"/>
			<path fill="none" stroke="#000000" stroke-width="3" stroke-linecap="round" stroke-linejoin="round" d="M317.3,301.5
				c0,0,1.2-0.7,1.2-0.7c0.1,0.1,0.4,4,0.5,4.1c0,0.1,2.5-1.5,2.6-1.5c0.1,0.1-1,4.7-1,4.8c0,0.1,2.5-1.5,2.5-1.5
				c0.1,0.1-0.7,5.3-0.6,5.4c0,0.1,2.5-1.5,2.5-1.4c0.1,0.1-0.9,4.8-0.8,4.9c0,0.1,2.4-1.5,2.5-1.4c0.1,0.1-1.2,4.8-1.1,5
				c0,0.1,3.7-2.3,3.8-2.2c0.1,0.2-3.8,6.5-3.7,6.6c0,0.1,3-1.8,3-1.7"/>
			<path fill="none" stroke="#000000" stroke-width="3" stroke-linecap="round" stroke-linejoin="round" d="M349,303.1
				c0.1,0.1,3.4-2.1,3.5-2c0.1,0.1,0.8,4,0.9,4.1c0,0.1,2.5-1.5,2.5-1.5c0.1,0.1-1.2,4.8-1.1,5c0,0.1,2.6-1.6,2.7-1.5
				c0.1,0.1-2.6,5.4-2.5,5.5c0,0.1,2.9-1.8,2.9-1.7c0.1,0.2-3.1,6.8-3,6.9c0,0.1,3-1.8,3-1.8"/>
			<path fill="none" stroke="#000000" stroke-width="3" stroke-linecap="round" stroke-linejoin="round" d="M342.2,303.7
				c0.1,0.2,5.3-3.3,5.4-3.1c0.2,0.3-7.4,8.3-7.2,8.5c0,0.1,3.3-2,3.3-1.9c0.1,0.2-3.6,6-3.5,6.2c0,0.1,2.9-1.7,2.9-1.7
				c0.1,0.2-2.8,6.4-2.7,6.6c0,0.1,2.7-1.7,2.8-1.6c0.1,0.1-1.9,5.3-1.8,5.4c0,0.1,2.5-1.6,2.6-1.5c0.1,0.1-0.1,4.3-0.1,4.4
				c0,0.1,2.8-1.7,2.8-1.6c0.1,0.1,2.3,3.1,2.3,3.1c0.1,0.2,7.5-4.5,7.6-4.4"/>
			<path fill="none" stroke="#000000" stroke-width="3" stroke-linecap="round" stroke-linejoin="round" d="M376.7,301.7
				c0,0,1.5-0.9,1.5-0.9c0.1,0.1-1.6,5.4-1.5,5.5c0,0.1,2.9-1.8,3-1.7c0.1,0.1-3.1,5.9-3,6c0,0.1,2.9-1.8,3-1.7c0.1,0.2-3,5.7-3,5.8
				c0,0.1,2.9-1.8,3-1.7c0.1,0.2-3.4,6.9-3.3,7.1c0.1,0.1,3.2-2,3.3-1.9"/>
			<path fill="none" stroke="#000000" stroke-width="3" stroke-linecap="round" stroke-linejoin="round" d="M362.5,301.7
				c0,0,1.5-0.9,1.5-0.9c0.1,0.1-1.6,5.1-1.5,5.2c0,0.1,2.9-1.8,3-1.7c0.1,0.2-3.1,5.8-3,5.9c0,0.1,2.9-1.8,3-1.7
				c0.1,0.2-3.1,6.6-3,6.7c0,0.1,2.9-1.8,3-1.7c0.1,0.1-2.9,5.8-2.8,6c0,0.1,2.8-1.7,2.8-1.6c0.1,0.1-1.5,5-1.5,5.2
				c0,0.1,2.5-1.5,2.5-1.5c0.1,0.1,0.6,4,0.7,4.1c0,0.1,3.5-2.1,3.5-2"/>
			<path fill="none" stroke="#000000" stroke-width="3" stroke-linecap="round" stroke-linejoin="round" d="M389.8,303.6
				c0.1,0.1,4.6-2.8,4.7-2.7c0.1,0.1,2.3,3.2,2.3,3.3c0,0.1,2.7-1.7,2.7-1.6c0,0.1-0.8,4.6-0.7,4.7c0,0.1,2.7-1.6,2.7-1.6
				c0.2,0.3-10.2,9.6-10.1,9.9c0.1,0.2,10.1-6.2,10.3-5.9c0.1,0.2-3.8,7.1-3.7,7.3c0,0.1,2.6-1.6,2.6-1.5c0.1,0.1-2.7,6.2-2.6,6.4
				c0,0.1,2.9-1.8,2.9-1.7c0.1,0.1-2,5.6-2,5.8c0,0.1,2-1.2,2-1.1"/>
			<path fill="none" stroke="#000000" stroke-width="3" stroke-linecap="round" stroke-linejoin="round" d="M385.2,301.7
				c0,0,1.5-0.9,1.5-0.9c0.1,0.1-1.6,5.1-1.5,5.2c0,0.1,2.9-1.7,2.9-1.7c0.1,0.2-3,5.7-2.9,5.9c0,0.1,2.9-1.8,2.9-1.7
				c0.1,0.2-3,6.5-2.9,6.7c0.1,0.1,4.1-2.5,4.2-2.4c0.1,0.2-4.3,6.6-4.2,6.8c0,0.1,2.9-1.8,2.9-1.7c0.1,0.1-3,5.9-2.9,6
				c0,0.1,2.9-1.8,2.9-1.7"/>
		</g>
		<g enable-background="new    ">
			<path fill="none" stroke="#000000" stroke-width="3" stroke-linecap="round" stroke-linejoin="round" d="M301.6,356.6
				c0.1,0.1,4.6-2.8,4.7-2.7c0.1,0.1,2.3,3.2,2.3,3.3c0,0.1,2.7-1.7,2.7-1.6c0,0.1-0.8,4.6-0.7,4.7c0,0.1,2.7-1.6,2.7-1.6
				c0.2,0.3-10.2,9.6-10.1,9.9c0.1,0.2,10.1-6.2,10.3-5.9"/>
			<path fill="none" stroke="#000000" stroke-width="3" stroke-linecap="round" stroke-linejoin="round" d="M297.1,354.7
				c0,0,1.5-0.9,1.5-0.9c0.1,0.1-1.6,5.1-1.5,5.2c0,0.1,2.9-1.7,2.9-1.7c0.1,0.2-3,5.7-2.9,5.9c0,0.1,2.9-1.8,2.9-1.7
				c0.1,0.2-3,6.5-2.9,6.7c0.1,0.1,4.1-2.5,4.2-2.4c0.1,0.2-4.3,6.6-4.2,6.8c0,0.1,2.9-1.8,2.9-1.7c0.1,0.1-3,5.9-2.9,6
				c0,0.1,2.9-1.8,2.9-1.7"/>
			<path fill="none" stroke="#000000" stroke-width="3" stroke-linecap="round" stroke-linejoin="round" d="M323.7,356.6
				c0.1,0.1,4.6-2.8,4.7-2.7c0.1,0.1,2.3,3.2,2.3,3.3c0,0.1,2.7-1.7,2.7-1.6c0,0.1-0.8,4.6-0.7,4.7c0,0.1,2.7-1.6,2.7-1.6
				c0.2,0.3-10.2,9.6-10.1,9.9c0.1,0.2,10.1-6.2,10.3-5.9c0.1,0.2-3.8,7.1-3.7,7.3c0,0.1,2.6-1.6,2.6-1.5c0.1,0.1-2.7,6.2-2.6,6.4
				c0,0.1,2.9-1.8,2.9-1.7c0.1,0.1-2,5.6-2,5.8c0,0.1,2-1.2,2-1.1"/>
			<path fill="none" stroke="#000000" stroke-width="3" stroke-linecap="round" stroke-linejoin="round" d="M319.1,354.7
				c0,0,1.5-0.9,1.5-0.9c0.1,0.1-1.6,5.1-1.5,5.2c0,0.1,2.9-1.7,2.9-1.7c0.1,0.2-3,5.7-2.9,5.9c0,0.1,2.9-1.8,2.9-1.7
				c0.1,0.2-3,6.5-2.9,6.7c0.1,0.1,4.1-2.5,4.2-2.4c0.1,0.2-4.3,6.6-4.2,6.8c0,0.1,2.9-1.8,2.9-1.7c0.1,0.1-3,5.9-2.9,6
				c0,0.1,2.9-1.8,2.9-1.7"/>
			<path fill="none" stroke="#000000" stroke-width="3" stroke-linecap="round" stroke-linejoin="round" d="M349,356.1
				c0.1,0.1,3.4-2.1,3.5-2c0.1,0.1,0.8,4,0.9,4.1c0,0.1,2.5-1.5,2.5-1.5c0.1,0.1-1.2,4.8-1.1,5c0,0.1,2.6-1.6,2.7-1.5
				c0.1,0.1-2.6,5.4-2.5,5.5c0,0.1,2.9-1.8,2.9-1.7c0.1,0.2-3.1,6.8-3,6.9c0,0.1,3-1.8,3-1.8"/>
			<path fill="none" stroke="#000000" stroke-width="3" stroke-linecap="round" stroke-linejoin="round" d="M342.2,356.7
				c0.1,0.2,5.3-3.3,5.4-3.1c0.2,0.3-7.4,8.3-7.2,8.5c0,0.1,3.3-2,3.3-1.9c0.1,0.2-3.6,6-3.5,6.2c0,0.1,2.9-1.7,2.9-1.7
				c0.1,0.2-2.8,6.4-2.7,6.6c0,0.1,2.7-1.7,2.8-1.6c0.1,0.1-1.9,5.3-1.8,5.4c0,0.1,2.5-1.6,2.6-1.5c0.1,0.1-0.1,4.3-0.1,4.4
				c0,0.1,2.8-1.7,2.8-1.6c0.1,0.1,2.3,3.1,2.3,3.1c0.1,0.2,7.5-4.5,7.6-4.4"/>
			<path fill="none" stroke="#000000" stroke-width="3" stroke-linecap="round" stroke-linejoin="round" d="M377,370.9
				c0,0,1.5-0.9,1.6-0.9"/>
			<path fill="none" stroke="#000000" stroke-width="3" stroke-linecap="round" stroke-linejoin="round" d="M371.1,356.1
				c0.1,0.1,3.6-2.2,3.7-2.1c0.1,0.1,0.8,4,0.9,4.1c0,0.1,2.5-1.5,2.6-1.5c0.1,0.1-1.3,4.9-1.3,5c0,0.1,2.8-1.7,2.8-1.6"/>
			<path fill="none" stroke="#000000" stroke-width="3" stroke-linecap="round" stroke-linejoin="round" d="M364.3,356.6
				c0.1,0.2,5.3-3.3,5.4-3.1c0.2,0.3-7.4,8.3-7.2,8.5c0,0.1,3.4-2,3.4-2c0.1,0.2-3.6,6.1-3.5,6.3c0,0.1,2.9-1.8,3-1.7
				c0.1,0.2-2.9,6.5-2.8,6.6c0,0.1,2.8-1.7,2.8-1.6c0.1,0.1-1.9,5.3-1.8,5.5c0,0.1,2.6-1.6,2.6-1.5c0.1,0.1-0.2,4.3-0.1,4.4
				c0,0.1,2.8-1.7,2.9-1.7c0.1,0.1,2.2,3.1,2.2,3.2c0.1,0.2,7.8-4.7,7.9-4.6"/>
			<path fill="none" stroke="#000000" stroke-width="3" stroke-linecap="round" stroke-linejoin="round" d="M390,367.8
				c0.1,0.1,4.8-2.9,4.8-2.8c0.1,0.1,3.6,2.7,3.6,2.8c0,0.1,2.1-1.3,2.1-1.2"/>
			<path fill="none" stroke="#000000" stroke-width="3" stroke-linecap="round" stroke-linejoin="round" d="M390,356.6
				c0.1,0.1,4.8-2.9,4.8-2.8c0.1,0.1,3.1,2.7,3.2,2.8c0,0.1,2.7-1.7,2.7-1.6"/>
			<path fill="none" stroke="#000000" stroke-width="3" stroke-linecap="round" stroke-linejoin="round" d="M385.5,354.7
				c0,0,1.5-0.9,1.5-0.9c0.1,0.1-1.6,5.1-1.5,5.2c0,0.1,2.9-1.8,3-1.7c0.1,0.2-3.1,5.8-3,5.9c0,0.1,2.9-1.8,3-1.7
				c0.1,0.2-3.1,6.6-3,6.7c0.1,0.2,5.6-3.4,5.7-3.3c0.1,0.2-5.9,7.5-5.7,7.7c0,0.1,2.9-1.8,3-1.7c0.1,0.1-3.1,5.9-3,6
				c0,0.1,2.9-1.8,3-1.7c0.1,0.1,1.2,3.6,1.3,3.7c0.1,0.1,4.8-2.9,4.8-2.8c0.1,0.1,2.7,2.7,2.8,2.8c0.1,0.1,3.5-2.1,3.5-2"/>
			<path fill="none" stroke="#000000" stroke-width="3" stroke-linecap="round" stroke-linejoin="round" d="M405.8,370.1
				c0,0,1.5-0.9,1.5-0.9c0.1,0.1-0.7,5.1-0.6,5.2c0,0.1,2.5-1.6,2.6-1.5c0,0.1-0.3,4.4-0.2,4.5c0,0.1,2.7-1.6,2.7-1.6
				c0,0.1,1.5,3.3,1.6,3.4c0.1,0.1,5.2-3.2,5.3-3.1"/>
			<path fill="none" stroke="#000000" stroke-width="3" stroke-linecap="round" stroke-linejoin="round" d="M414.7,356.1
				c0.1,0.1,3.9-2.4,4-2.3c0.1,0.1,1.1,3.8,1.2,3.9c0,0.1,2.6-1.6,2.6-1.5c0.1,0.1-1.3,4.9-1.3,5c0,0.1,2.8-1.7,2.8-1.6"/>
			<path fill="none" stroke="#000000" stroke-width="3" stroke-linecap="round" stroke-linejoin="round" d="M407.8,356.7
				c0.1,0.2,5.6-3.4,5.7-3.3c0.2,0.3-6.7,7.9-6.6,8.1c0,0.1,2.8-1.7,2.9-1.7c0.1,0.1-1.3,4.8-1.2,4.9c0,0.1,2.7-1.6,2.7-1.6
				c0.1,0.1,2,3.7,2.1,3.8c0.1,0.1,3.6-2.2,3.7-2.1c0,0.1,1.7,3.3,1.7,3.4c0,0.1,2.8-1.7,2.9-1.7c0.1,0.1-0.6,4.5-0.5,4.6
				c0,0.1,2.7-1.7,2.7-1.6"/>
		</g>
		<g enable-background="new    ">
			<path fill="none" stroke="#000000" stroke-width="3" stroke-linecap="round" stroke-linejoin="round" d="M350.7,423.1
				c0,0,1.5-0.9,1.5-0.9c0.1,0.1-0.7,5.1-0.6,5.2c0,0.1,2.5-1.6,2.6-1.5c0,0.1-0.3,4.4-0.2,4.5c0,0.1,2.7-1.6,2.7-1.6
				c0,0.1,1.5,3.3,1.6,3.4c0.1,0.1,5.2-3.2,5.3-3.1"/>
			<path fill="none" stroke="#000000" stroke-width="3" stroke-linecap="round" stroke-linejoin="round" d="M359.6,409.1
				c0.1,0.1,3.9-2.4,4-2.3c0.1,0.1,1.1,3.8,1.2,3.9c0,0.1,2.6-1.6,2.6-1.5c0.1,0.1-1.3,4.9-1.3,5c0,0.1,2.8-1.7,2.8-1.6"/>
			<path fill="none" stroke="#000000" stroke-width="3" stroke-linecap="round" stroke-linejoin="round" d="M352.8,409.7
				c0.1,0.2,5.6-3.4,5.7-3.3c0.2,0.3-6.7,7.9-6.6,8.1c0,0.1,2.8-1.7,2.9-1.7c0.1,0.1-1.3,4.8-1.2,4.9c0,0.1,2.7-1.6,2.7-1.6
				c0.1,0.1,2,3.7,2.1,3.8c0.1,0.1,3.6-2.2,3.7-2.1c0,0.1,1.7,3.3,1.7,3.4c0,0.1,2.8-1.7,2.9-1.7c0.1,0.1-0.6,4.5-0.5,4.6
				c0,0.1,2.7-1.7,2.7-1.6"/>
		</g>
	</g>
</g>
<g>
	<g>
		<g enable-background="new    ">
			<path fill="none" stroke="#000000" stroke-linecap="round" stroke-linejoin="round" d="M805.6,311.7c0.1,0.1,4.1-2.6,4.2-2.4
				c0,0.1-1,2.5-0.9,2.6c0.1,0.1,2.9-1.8,2.9-1.7c0,0.1-1.4,2.5-1.3,2.6c0,0.1,2.6-1.6,2.6-1.5c0,0.1-1.6,2.7-1.6,2.7
				c0,0.1,2.5-1.5,2.5-1.5c0,0.1-1.7,3.3-1.7,3.4c0,0.1,2.6-1.6,2.6-1.5c0.1,0.1-2.3,3.6-2.2,3.7c0,0.1,2.7-1.7,2.8-1.6
				c0.1,0.1-2.8,4-2.7,4.1c0,0.1,2.9-1.7,2.9-1.7c0,0.1-3,3.6-2.9,3.6c0,0.1,2.9-1.8,2.9-1.7c0.1,0.1-3,3.4-2.9,3.5
				c0,0.1,2.9-1.7,2.9-1.7c0.1,0.1-3.4,4.6-3.3,4.8c0.1,0.1,3.1-1.9,3.2-1.8c0.1,0.2-4.8,4.7-4.7,4.9c0.1,0.1,4.4-2.7,4.5-2.6"/>
			<path fill="none" stroke="#000000" stroke-linecap="round" stroke-linejoin="round" d="M801.2,311c0,0.1,2.8-1.7,2.8-1.6
				c0.1,0.1-5,4.5-4.9,4.7c0.1,0.2,8.6-5.2,8.7-5c0.1,0.2-9.6,8-9.4,8.3c0.1,0.1,3.3-2,3.4-2c0.1,0.1-3.6,4.7-3.5,4.8
				c0,0.1,2.9-1.8,3-1.7c0.1,0.1-3,4.5-3,4.5c0,0.1,2.9-1.8,2.9-1.7c0.1,0.1-2.9,3.4-2.9,3.5c0,0.1,2.9-1.7,2.9-1.7
				c0.1,0.1-2.8,3.8-2.7,4c0,0.1,2.7-1.7,2.8-1.6c0.1,0.1-2.2,4-2.2,4.1c0,0.1,2.6-1.6,2.6-1.5c0.1,0.1-1.6,3.5-1.5,3.6
				c0,0.1,2.4-1.5,2.5-1.4c0,0.1-1.1,2.9-1.1,2.9c0,0.1,2.7-1.6,2.7-1.6c0,0.1-0.8,2.6-0.7,2.7c0,0.1,3.4-2.1,3.5-2
				c0,0.1-1.1,2.5-1.1,2.6c0.1,0.2,8.9-5.5,9.1-5.2c0.1,0.2-5,4.7-4.9,4.9c0,0.1,2.8-1.7,2.8-1.6"/>
			<path fill="none" stroke="#000000" stroke-linecap="round" stroke-linejoin="round" d="M834.6,309.6c0,0,0.5-0.3,0.5-0.3
				c0,0-0.5,2.3-0.5,2.3c0.1,0.1,2.9-1.8,3-1.7c0.1,0.1-3,3.4-3,3.5c0,0.1,2.9-1.8,3-1.7c0.1,0.1-3,3.5-3,3.5c0,0.1,2.9-1.8,3-1.7
				c0.1,0.1-3.1,4.1-3,4.2c0,0.1,2.9-1.8,3-1.7c0.1,0.1-3.1,4-3,4.2c0,0.1,2.9-1.8,3-1.7c0.1,0.1-3,4.2-3,4.3c0,0.1,2.9-1.8,3-1.7
				c0,0.1-3,3.6-3,3.7c0,0.1,2.9-1.8,3-1.7c0.1,0.1-3.1,3.4-3,3.5c0,0.1,3-1.8,3-1.7c0.1,0.2-4.1,5-4,5.2c0.1,0.1,3.8-2.3,3.8-2.2"
				/>
			<path fill="none" stroke="#000000" stroke-linecap="round" stroke-linejoin="round" d="M820.4,309.6c0,0,0.5-0.3,0.5-0.3
				c0,0-0.5,2.1-0.5,2.1c0,0.1,2.9-1.8,3-1.7c0.1,0.1-3,4.5-3,4.6c0.1,0.1,2.9-1.8,3-1.7c0.1,0.1-3,4.3-3,4.5c0,0.1,2.9-1.8,3-1.7
				c0.1,0.1-3,4.4-3,4.5c0,0.1,2.9-1.8,3-1.7c0.1,0.1-3,3.5-3,3.6c0,0.1,2.9-1.8,3-1.7c0.1,0.1-3,4-3,4.1c0.1,0.1,2.9-1.8,3-1.7
				c0.1,0.1-2.9,4.4-2.9,4.5c0,0.1,2.8-1.7,2.9-1.7c0.1,0.1-2.5,4-2.5,4.1c0,0.1,2.6-1.6,2.6-1.5c0.1,0.1-1.9,3.3-1.8,3.4
				c0,0.1,2.5-1.5,2.6-1.5c0,0.1-1.4,3-1.3,3c0,0.1,2.6-1.6,2.7-1.6c0,0.1-1.2,2.6-1.2,2.6c0,0.1,3.1-1.9,3.2-1.8
				c0,0.1,0.2,2.7,0.2,2.8c0.1,0.2,9.2-5.6,9.4-5.4c0.1,0.2-5.5,5.1-5.4,5.2c0.1,0.1,3.7-2.3,3.8-2.2"/>
			<path fill="none" stroke="#000000" stroke-linecap="round" stroke-linejoin="round" d="M846.7,312.1c0.1,0.1,4.6-2.8,4.7-2.7
				c0,0.1-0.7,2.6-0.7,2.7c0.1,0.1,4-2.4,4-2.3c0,0.1-1.2,2.5-1.1,2.5c0,0.1,3-1.8,3.1-1.8c0,0.1-1.2,2.6-1.1,2.7
				c0,0.1,2.5-1.5,2.6-1.5c0,0.1-1.6,2.9-1.6,3c0,0.1,2.5-1.5,2.6-1.5c0,0.1-2.3,3.1-2.3,3.2c0,0.1,2.7-1.7,2.8-1.6
				c0.1,0.1-3.6,4.7-3.5,4.8c0.1,0.1,3.6-2.2,3.6-2.1"/>
			<path fill="none" stroke="#000000" stroke-linecap="round" stroke-linejoin="round" d="M846.5,324.1c0.1,0.1,4.7-2.9,4.8-2.7
				c0,0.1-1.2,2.6-1.2,2.7c0.2,0.3,9.2-5.7,9.4-5.4c0.1,0.2-6.3,5.2-6.2,5.4c0.1,0.1,3.2-2,3.3-1.9c0,0.1-1.1,2.4-1,2.4
				c0,0.1,2.3-1.4,2.4-1.4c0,0.1-2,3.5-1.9,3.6c0,0.1,2.8-1.7,2.9-1.7c0.1,0.1-2.9,4-2.9,4.1c0,0.1,2.9-1.8,2.9-1.7
				c0.1,0.1-3,4.1-2.9,4.3c0,0.1,2.9-1.8,2.9-1.7c0,0.1-3,3.6-2.9,3.7c0,0.1,2.9-1.8,2.9-1.7c0,0.1-0.9,2.3-0.9,2.3
				c0,0,0.9-0.5,0.9-0.5"/>
			<path fill="none" stroke="#000000" stroke-linecap="round" stroke-linejoin="round" d="M843.1,309.7c0,0,0.5-0.3,0.5-0.3
				c0,0-0.5,2.1-0.5,2.1c0,0.1,3.6-2.2,3.6-2.1c0.1,0.1-3.7,4.8-3.6,5c0,0.1,2.9-1.8,2.9-1.7c0.1,0.1-3,4.3-2.9,4.4
				c0,0.1,2.9-1.8,2.9-1.7c0.1,0.1-3,4.4-2.9,4.5c0,0.1,2.9-1.8,2.9-1.7c0.1,0.1-3,3.5-2.9,3.5c0,0.1,2.9-1.8,3-1.7
				c0.1,0.1-3,4-3,4.1c0.1,0.1,4.7-2.9,4.8-2.8c0.1,0.1-4.9,5.5-4.8,5.6c0,0.1,2.9-1.8,2.9-1.7c0.1,0.1-3,4.3-2.9,4.4
				c0,0.1,2.9-1.8,2.9-1.7c0.1,0.1-3,3.9-2.9,4c0,0.1,2.9-1.8,2.9-1.7c0.1,0.1-3,3.8-2.9,4c0,0.1,2.9-1.8,3-1.7"/>
		</g>
		<g enable-background="new    ">
			<path fill="none" stroke="#000000" stroke-linecap="round" stroke-linejoin="round" d="M769.6,365.1c0.1,0.1,4.6-2.8,4.7-2.7
				c0,0.1-0.7,2.6-0.7,2.7c0.1,0.1,4-2.4,4-2.3c0,0.1-1.2,2.5-1.1,2.5c0,0.1,3-1.8,3.1-1.8c0,0.1-1.2,2.6-1.1,2.7
				c0,0.1,2.5-1.5,2.6-1.5c0,0.1-1.6,2.9-1.6,3c0,0.1,2.5-1.5,2.6-1.5c0,0.1-2.3,3.1-2.3,3.2c0,0.1,2.7-1.7,2.8-1.6
				c0.1,0.1-3.6,4.7-3.5,4.8c0.1,0.1,3.6-2.2,3.6-2.1"/>
			<path fill="none" stroke="#000000" stroke-linecap="round" stroke-linejoin="round" d="M769.4,377.1c0.1,0.1,4.7-2.9,4.8-2.7
				c0,0.1-1.2,2.6-1.1,2.7c0.2,0.3,9.3-5.7,9.4-5.4c0.1,0.2-6.2,5.1-6.1,5.3c0.1,0.1,5.1-3.1,5.1-3"/>
			<path fill="none" stroke="#000000" stroke-linecap="round" stroke-linejoin="round" d="M766,362.7c0,0,0.5-0.3,0.5-0.3
				c0,0-0.5,2.1-0.5,2.1c0,0.1,3.6-2.2,3.6-2.1c0.1,0.1-3.7,4.8-3.6,5c0,0.1,2.9-1.7,2.9-1.7c0.1,0.1-3,4.3-2.9,4.4
				c0,0.1,2.9-1.8,2.9-1.7c0.1,0.1-3,4.4-2.9,4.5c0,0.1,2.9-1.8,2.9-1.7c0.1,0.1-3,3.5-2.9,3.5c0,0.1,2.9-1.8,3-1.7
				c0.1,0.1-3,4-3,4.1c0.1,0.1,4.7-2.9,4.8-2.8c0.1,0.1-4.9,5.5-4.8,5.6c0,0.1,2.9-1.8,2.9-1.7c0.1,0.1-3,4.3-2.9,4.4
				c0,0.1,2.9-1.8,2.9-1.7c0.1,0.1-3,3.9-2.9,4c0,0.1,2.9-1.8,2.9-1.7c0.1,0.1-3,3.8-2.9,4c0,0.1,2.9-1.8,3-1.7"/>
			<path fill="none" stroke="#000000" stroke-linecap="round" stroke-linejoin="round" d="M791.6,365.1c0.1,0.1,4.6-2.8,4.7-2.7
				c0,0.1-0.7,2.6-0.7,2.7c0.1,0.1,4-2.4,4-2.3c0,0.1-1.2,2.5-1.1,2.5c0,0.1,3-1.8,3.1-1.8c0,0.1-1.2,2.6-1.1,2.7
				c0,0.1,2.5-1.5,2.6-1.5c0,0.1-1.6,2.9-1.6,3c0,0.1,2.5-1.5,2.6-1.5c0,0.1-2.3,3.1-2.3,3.2c0,0.1,2.7-1.7,2.8-1.6
				c0.1,0.1-3.6,4.7-3.5,4.8c0.1,0.1,3.6-2.2,3.6-2.1"/>
			<path fill="none" stroke="#000000" stroke-linecap="round" stroke-linejoin="round" d="M791.5,377.1c0.1,0.1,4.7-2.9,4.8-2.7
				c0,0.1-1.2,2.6-1.2,2.7c0.2,0.3,9.2-5.7,9.4-5.4c0.1,0.2-6.3,5.2-6.2,5.4c0.1,0.1,3.2-2,3.3-1.9c0,0.1-1.1,2.4-1,2.4
				c0,0.1,2.3-1.4,2.4-1.4c0,0.1-2,3.5-1.9,3.6c0,0.1,2.8-1.7,2.9-1.7c0.1,0.1-2.9,4-2.9,4.1c0,0.1,2.9-1.8,2.9-1.7
				c0.1,0.1-3,4.1-2.9,4.3c0,0.1,2.9-1.8,2.9-1.7c0,0.1-3,3.6-2.9,3.7c0,0.1,2.9-1.8,2.9-1.7c0,0.1-0.9,2.3-0.9,2.3
				c0,0,0.9-0.5,0.9-0.5"/>
			<path fill="none" stroke="#000000" stroke-linecap="round" stroke-linejoin="round" d="M788.1,362.7c0,0,0.5-0.3,0.5-0.3
				c0,0-0.5,2.1-0.5,2.1c0,0.1,3.6-2.2,3.6-2.1c0.1,0.1-3.7,4.8-3.6,5c0,0.1,2.9-1.7,2.9-1.7c0.1,0.1-3,4.3-2.9,4.4
				c0,0.1,2.9-1.8,2.9-1.7c0.1,0.1-3,4.4-2.9,4.5c0,0.1,2.9-1.8,2.9-1.7c0.1,0.1-3,3.5-2.9,3.5c0,0.1,2.9-1.8,3-1.7
				c0.1,0.1-3,4-3,4.1c0.1,0.1,4.7-2.9,4.8-2.8c0.1,0.1-4.9,5.5-4.8,5.6c0,0.1,2.9-1.8,2.9-1.7c0.1,0.1-3,4.3-2.9,4.4
				c0,0.1,2.9-1.8,2.9-1.7c0.1,0.1-3,3.9-2.9,4c0,0.1,2.9-1.8,2.9-1.7c0.1,0.1-3,3.8-2.9,4c0,0.1,2.9-1.8,3-1.7"/>
			<path fill="none" stroke="#000000" stroke-linecap="round" stroke-linejoin="round" d="M816.7,364.7c0.1,0.1,4.1-2.6,4.2-2.4
				c0,0.1-1,2.5-0.9,2.6c0.1,0.1,2.9-1.8,2.9-1.7c0,0.1-1.4,2.5-1.4,2.6c0,0.1,2.6-1.6,2.6-1.5c0,0.1-1.6,2.7-1.6,2.7
				c0,0.1,2.5-1.5,2.5-1.5c0,0.1-1.7,3.3-1.7,3.4c0,0.1,2.6-1.6,2.6-1.5c0.1,0.1-2.3,3.6-2.2,3.7c0,0.1,2.7-1.7,2.8-1.6
				c0.1,0.1-2.8,4-2.7,4.1c0,0.1,2.9-1.7,2.9-1.7c0,0.1-3,3.6-2.9,3.6c0,0.1,2.9-1.8,2.9-1.7c0.1,0.1-3,3.4-2.9,3.5
				c0,0.1,2.9-1.7,2.9-1.7c0.1,0.1-3.4,4.6-3.3,4.8c0.1,0.1,3.1-1.9,3.2-1.8c0.1,0.2-4.8,4.7-4.7,4.9c0.1,0.1,4.4-2.7,4.5-2.6"/>
			<path fill="none" stroke="#000000" stroke-linecap="round" stroke-linejoin="round" d="M812.2,364c0,0.1,2.8-1.7,2.8-1.6
				c0.1,0.1-5,4.5-5,4.7c0.1,0.2,8.6-5.2,8.7-5c0.1,0.2-9.6,8-9.4,8.3c0.1,0.1,3.3-2,3.4-2c0.1,0.1-3.6,4.7-3.5,4.8
				c0,0.1,2.9-1.8,3-1.7c0.1,0.1-3,4.5-3,4.5c0,0.1,2.9-1.8,2.9-1.7c0.1,0.1-2.9,3.4-2.9,3.5c0,0.1,2.9-1.7,2.9-1.7
				c0.1,0.1-2.8,3.8-2.7,4c0,0.1,2.7-1.7,2.8-1.6c0.1,0.1-2.2,4-2.2,4.1c0,0.1,2.6-1.6,2.6-1.5c0.1,0.1-1.6,3.5-1.5,3.6
				c0,0.1,2.4-1.5,2.5-1.4c0,0.1-1.1,2.9-1.1,2.9c0,0.1,2.7-1.6,2.7-1.6c0,0.1-0.8,2.6-0.7,2.7c0,0.1,3.4-2.1,3.5-2
				c0,0.1-1.1,2.5-1.1,2.6c0.1,0.2,8.9-5.5,9.1-5.2c0.1,0.2-5,4.7-4.9,4.9c0,0.1,2.8-1.7,2.8-1.6"/>
			<path fill="none" stroke="#000000" stroke-linecap="round" stroke-linejoin="round" d="M846,378.7c0,0,0.5-0.3,0.5-0.3
				c0,0.1-0.9,2.7-0.8,2.8c0.1,0.1,3.2-2,3.3-1.9"/>
			<path fill="none" stroke="#000000" stroke-linecap="round" stroke-linejoin="round" d="M838.7,364.8c0.1,0.1,4.3-2.6,4.3-2.5
				c0,0.1-1,2.5-1,2.6c0.1,0.1,2.9-1.8,3-1.7c0,0.1-1.4,2.5-1.3,2.6c0,0.1,2.6-1.6,2.6-1.5c0,0.1-1.6,2.7-1.6,2.7
				c0,0.1,2.5-1.6,2.6-1.5c0,0.1-1.8,3.4-1.7,3.5c0,0.1,2.7-1.6,2.7-1.6c0.1,0.1-2.4,3.7-2.4,3.8c0,0.1,2.8-1.7,2.9-1.6"/>
			<path fill="none" stroke="#000000" stroke-linecap="round" stroke-linejoin="round" d="M834.4,363.9c0,0.1,2.8-1.7,2.8-1.6
				c0.1,0.1-5,4.5-5,4.7c0.1,0.2,8.6-5.2,8.7-5c0.1,0.2-9.7,8-9.5,8.4c0.1,0.1,3.4-2.1,3.5-2c0.1,0.1-3.7,4.7-3.6,4.8
				c0,0.1,3-1.8,3-1.8c0.1,0.1-3.1,4.5-3,4.6c0,0.1,2.9-1.8,3-1.7c0.1,0.1-3,3.5-3,3.6c0,0.1,2.9-1.8,3-1.7c0.1,0.1-2.8,3.9-2.8,4
				c0,0.1,2.8-1.7,2.8-1.6c0.1,0.1-2.3,4-2.2,4.1c0,0.1,2.6-1.6,2.6-1.5c0.1,0.1-1.6,3.5-1.6,3.6c0,0.1,2.5-1.5,2.5-1.5
				c0,0.1-1.2,2.9-1.1,3c0,0.1,2.7-1.7,2.8-1.6c0,0.1-0.8,2.7-0.8,2.7c0,0.1,3.5-2.2,3.6-2.1c0,0.1-1.2,2.6-1.2,2.6
				c0.1,0.2,9.3-5.7,9.4-5.4c0.1,0.2-5.4,5-5.3,5.1c0,0.1,3.3-2,3.3-1.9"/>
			<path fill="none" stroke="#000000" stroke-linecap="round" stroke-linejoin="round" d="M857.9,376.3c0.1,0.1,4.8-2.9,4.8-2.8
				c0,0.1-0.9,2.7-0.8,2.8c0.1,0.1,4.8-2.9,4.8-2.8c0,0.1-1.6,2.7-1.6,2.8c0.1,0.1,4.2-2.5,4.3-2.5c0,0-0.7,2.4-0.7,2.5
				c0,0,0.7-0.4,0.7-0.4"/>
			<path fill="none" stroke="#000000" stroke-linecap="round" stroke-linejoin="round" d="M857.9,365.1c0.1,0.1,4.8-2.9,4.8-2.8
				c0,0.1-1.3,2.7-1.3,2.8c0.1,0.1,4.8-2.9,4.8-2.8c0,0.1-1.7,2.7-1.7,2.8c0.1,0.1,4.8-2.9,4.8-2.8c0,0.1-1.7,2.7-1.7,2.8
				c0,0,1.9-1.1,1.9-1.1"/>
			<path fill="none" stroke="#000000" stroke-linecap="round" stroke-linejoin="round" d="M854.4,362.6c0,0,0.5-0.3,0.5-0.3
				c0,0-0.5,2.1-0.5,2.1c0,0.1,3.6-2.2,3.6-2.1c0.1,0.1-3.7,4.8-3.6,5c0.1,0.1,2.9-1.8,3-1.7c0.1,0.1-3,4.3-3,4.5
				c0,0.1,2.9-1.8,3-1.7c0.1,0.1-3,4.5-3,4.5c0,0.1,2.9-1.8,3-1.7c0.1,0.1-3,3.5-3,3.6c0,0.1,2.9-1.8,3-1.7c0.1,0.1-3.1,4-3,4.1
				c0.1,0.2,6.2-3.8,6.3-3.6c0.1,0.2-6.4,6.3-6.3,6.5c0,0.1,2.9-1.8,3-1.7c0.1,0.1-3,4.3-3,4.4c0,0.1,2.9-1.8,3-1.7
				c0.1,0.1-3.1,3.9-3,4c0.1,0.1,2.9-1.8,3-1.7c0.1,0.1-3.1,3.9-3,4c0.1,0.1,4.3-2.7,4.4-2.5c0,0.1-1.5,2.7-1.4,2.8
				c0.1,0.1,4.7-2.9,4.8-2.8c0,0.1,0.1,2.7,0.2,2.8c0.1,0.1,4.8-2.9,4.8-2.8c0,0.1-1.2,2.7-1.2,2.8c0.1,0.1,3.8-2.3,3.8-2.2
				c0,0-0.5,2.2-0.5,2.2c0,0,0.5-0.3,0.5-0.3"/>
			<path fill="none" stroke="#000000" stroke-linecap="round" stroke-linejoin="round" d="M874.7,378c0,0,0.5-0.3,0.5-0.3
				c0,0.1-0.4,2.4-0.4,2.5c0,0.1,2.8-1.7,2.8-1.6c0.1,0.1-2.5,3.2-2.5,3.3c0,0.1,2.6-1.6,2.6-1.5c0,0.1-2,3.1-1.9,3.2
				c0,0.1,2.5-1.5,2.5-1.4c0,0.1-1.5,2.9-1.4,2.9c0,0.1,2.5-1.5,2.5-1.5c0,0.1-1.3,2.5-1.2,2.6c0,0.1,2.7-1.7,2.8-1.6
				c0,0.1-0.2,2.8-0.2,2.9c0.1,0.1,3.8-2.3,3.8-2.2c0,0.1-0.9,2.6-0.8,2.7c0.1,0.2,8.9-5.5,9-5.2c0.1,0.1-4.9,4.6-4.8,4.8
				c0,0.1,3.1-1.9,3.2-1.8"/>
			<path fill="none" stroke="#000000" stroke-linecap="round" stroke-linejoin="round" d="M882.3,364.8c0.1,0.1,4.5-2.8,4.6-2.6
				c0,0.1-1.1,2.6-1,2.7c0.1,0.1,3.2-1.9,3.2-1.9c0,0.1-1.4,2.5-1.4,2.6c0,0.1,2.8-1.7,2.8-1.6c0,0.1-1.5,2.6-1.5,2.7
				c0,0.1,2.6-1.6,2.6-1.5c0,0.1-1.7,3.3-1.7,3.4c0,0.1,2.6-1.6,2.7-1.5c0.1,0.1-2.5,3.7-2.5,3.9c0,0.1,2.8-1.7,2.9-1.7"/>
			<path fill="none" stroke="#000000" stroke-linecap="round" stroke-linejoin="round" d="M877.7,364.1c0,0.1,3.2-2,3.2-1.9
				c0.1,0.1-4.9,4.5-4.9,4.6c0.1,0.2,8.6-5.2,8.7-5c0.1,0.2-9,7.7-8.8,8c0.1,0.1,2.9-1.8,2.9-1.7c0.1,0.1-2.2,3.9-2.2,4
				c0,0.1,2.6-1.6,2.6-1.5c0,0.1-0.9,3.3-0.8,3.3c0,0.1,2.9-1.8,2.9-1.7c0,0.1-1.3,2.5-1.3,2.6c0,0.1,3.3-2,3.3-1.9
				c0,0.1-0.6,2.7-0.6,2.7c0.1,0.1,3.6-2.2,3.7-2.1c0,0.1,0,2.8,0,2.9c0,0.1,3.1-1.9,3.2-1.8c0,0.1-0.7,3-0.6,3.1
				c0,0.1,2.6-1.6,2.7-1.5c0.1,0.1-1.7,3.2-1.6,3.2c0,0.1,2.6-1.6,2.6-1.5c0.1,0.1-2.7,3.7-2.6,3.8c0,0.1,3-1.8,3-1.7"/>
		</g>
		<g enable-background="new    ">
			<path fill="none" stroke="#000000" stroke-linecap="round" stroke-linejoin="round" d="M819.6,431c0,0,0.5-0.3,0.5-0.3
				c0,0.1-0.4,2.4-0.4,2.5c0,0.1,2.8-1.7,2.8-1.6c0.1,0.1-2.5,3.2-2.5,3.3c0,0.1,2.6-1.6,2.6-1.5c0,0.1-2,3.1-1.9,3.2
				c0,0.1,2.5-1.5,2.5-1.4c0,0.1-1.5,2.9-1.4,2.9c0,0.1,2.5-1.5,2.5-1.5c0,0.1-1.3,2.5-1.2,2.6c0,0.1,2.7-1.7,2.8-1.6
				c0,0.1-0.2,2.8-0.2,2.9c0.1,0.1,3.8-2.3,3.8-2.2c0,0.1-0.9,2.6-0.8,2.7c0.1,0.2,8.9-5.5,9-5.2c0.1,0.1-4.9,4.6-4.8,4.8
				c0,0.1,3.1-1.9,3.2-1.8"/>
			<path fill="none" stroke="#000000" stroke-linecap="round" stroke-linejoin="round" d="M827.2,417.8c0.1,0.1,4.5-2.8,4.6-2.6
				c0,0.1-1.1,2.6-1,2.7c0.1,0.1,3.2-1.9,3.2-1.9c0,0.1-1.4,2.5-1.4,2.6c0,0.1,2.8-1.7,2.8-1.6c0,0.1-1.5,2.6-1.5,2.7
				c0,0.1,2.6-1.6,2.6-1.5c0,0.1-1.7,3.3-1.7,3.4c0,0.1,2.6-1.6,2.7-1.5c0.1,0.1-2.5,3.7-2.5,3.9c0,0.1,2.8-1.7,2.9-1.7"/>
			<path fill="none" stroke="#000000" stroke-linecap="round" stroke-linejoin="round" d="M822.6,417.1c0,0.1,3.2-2,3.2-1.9
				c0.1,0.1-4.9,4.5-4.9,4.6c0.1,0.2,8.6-5.2,8.7-5c0.1,0.2-9,7.7-8.8,8c0.1,0.1,2.9-1.8,2.9-1.7c0.1,0.1-2.2,3.9-2.2,4
				c0,0.1,2.6-1.6,2.6-1.5c0,0.1-0.9,3.3-0.8,3.3c0,0.1,2.9-1.8,2.9-1.7c0,0.1-1.3,2.5-1.3,2.6c0,0.1,3.3-2,3.3-1.9
				c0,0.1-0.6,2.7-0.6,2.7c0.1,0.1,3.6-2.2,3.7-2.1c0,0.1,0,2.8,0,2.9c0,0.1,3.1-1.9,3.2-1.8c0,0.1-0.7,3-0.6,3.1
				c0,0.1,2.6-1.6,2.7-1.5c0.1,0.1-1.7,3.2-1.6,3.2c0,0.1,2.6-1.6,2.6-1.5c0.1,0.1-2.7,3.7-2.6,3.8c0,0.1,3-1.8,3-1.7"/>
		</g>
	</g>
</g>
<path id="Path-27" fill="none" stroke="#000000" stroke-width="3" d="M26.5,263.3c17.1-37,33.1-74.5,51.4-110.9
	c2.6-5.2,6.7-9.8,11.1-13.6c38.2-33.1,76.6-66.1,116.6-97.1c7.9-6.1,16.9-11,26.5-13.7c30.9-8.8,62.2-17,94.2-20.8
	c25-3,68.5,8.5,90.5,19c68.2,32.6,127,90.7,173.1,149.8c34.3,44,63.6,88.2,86.7,139.1c8.3,18.4,13.5,41.8,17.2,61.4
	c2.1,11.1,3.2,22.4,5.1,33.6c0.3,1.7,0.4,3.8,1.7,4.9c1.1,1,3.1,0.9,4.4,0.3c1.9-1,4.2-2.6,4.4-4.7c0.2-1.3-2.5-0.6-3.7-0.8"/>
<path id="Path-28" fill="none" stroke="#000000" stroke-width="3" d="M672.2,434.5c-10.8,21-20.8,42.4-32.3,63.1
	c-26,46.9-113.7,91.8-159.7,112.5c-38.1,17.1-88,25.8-128.1,32.9c-37.2,6.5-81.4,13.6-119.3,8.3c-87.5-12.1-156.5-92.5-177.5-174.3
	c-16.4-63.8-34.1-122.1-17.2-185.3"/>
<path id="Path-29" fill="none" stroke="#000000" stroke-width="3" d="M138.3,74.7c0.2,6.5,0,13.1,0.7,19.6c0,0.4,1.4,0.2,1.2-0.1
	l2.4-15.5c-4.4-8.5-10.5,6.2-9.3,8c9.2,13.5,11.8-12.8,11.2-14.7c-0.3-0.9-8.8,6.4-2.8,6.4"/>
<path id="Path-30" fill="none" stroke="#000000" stroke-width="3" d="M383.5,2.9c-5.3,0.2-11.8-2.6-15.9,0.7
	c-3.9,3-7.4,11.6-3.3,14.4c5.5,3.8,25.7,0.6,20-2.9l0.7-1.8c-10.1-6.2-11.1-7.3-16.5,1.9c-0.6,1-1.1,2.5-0.6,3.6
	c3.6,7.2,17.5,1.9,15.5-5.7c-2.2-8.1-18.4,9.1-12.9,11.9c0.6,0.3,16.5-6.6,0.1-6"/>
<path id="Path-31" fill="none" stroke="#000000" stroke-width="3" d="M575,172.3c-3.4,1.5-7.1,2.6-10.3,4.6c-0.5,0.3-0.6,1.7,0,1.7
	l11.2,2.8c5.2-0.6,15.2-15,9.6-19.1c-5.2-3.8-18.6,8.8-13.7,11.8c6.5,4,16.3-2.6,17.6-9.2c0.2-0.8-0.1-2.4-1-2.4
	c-4.9,0.3-13.7,13-4.3,12.5c9.2-0.5-0.3-14.6-7.6-4.2"/>
<path id="Path-32" fill="none" stroke="#000000" stroke-width="3" d="M686.3,344.6c0.5,4.1-2.1,14.1,1.5,12.2
	c6.5-3.5,15.7-13.3,11.1-19c-7.4-9.1-42.3,36.2-6.2,11.1c2.9-2,5-5.3,6.5-8.5c0.8-1.7,1.4-4.1,0.3-5.5c-5.7-7.5-19.3,12.5-16.9,15.9
	c1.6,2.3,10.7-3.1,8-2.2l1.9-3.7c-6.4,2-4.2,4.3-2.8,7.4"/>
<path id="Path-33" fill="none" stroke="#000000" stroke-width="3" d="M634.8,478.5c-1,10-5.5,20.3-2.9,30c1,3.8,6.3-4.6,9-7.5
	c3.3-3.5-9.7-4.4-14.8,5.3c-0.9,1.6-2,4-0.8,5.4c10.1,11.6,18-22.7,5.5-8.2c-3.6,4.2-6.6,8.9-9.8,13.3"/>
<path id="Path-34" fill="none" stroke="#000000" stroke-width="3" d="M372.7,634.4c0,0.3-0.8,28.6,4.7,5.3
	c0.7-3.1-13.5-3.3-14.8,2.5c-2.8,12,26.3-10.5,3.6-9.8c-3.4,0.1-13.1,9.7-6.2,11.6c1.5,0.4,18.7-3.9-4.2-0.1"/>
<path id="Path-35" fill="none" stroke="#000000" stroke-width="3" d="M61.4,454.5c-1.5,0.9-5.2,4.5-4.6,2.8l5.1,2.1
	c0.2-0.6,3.4-21.2-6.9-19.4c-0.6,0.1-27.5,16-11.5,20.1c8.2,2.1,13.7-13.6,7.5-17.6c-6.1-3.9-11.2,8-10,12.3
	c2.3,8.6,13.3-0.4,4.6-2.2c-2.5-0.5-5.2-0.2-7.8-0.3"/>
<path id="Path-36" fill="none" stroke="#000000" stroke-width="3" d="M2,352.1c3.5-6.4,7.4-12.6,10.5-19.1c27-55.8,10.3-70,62.8,9.2
	c1.7,2.6-4.3-4.5-6.4-6.8"/>
<path id="Path-37" fill="none" stroke="#000000" stroke-width="3" d="M694.5,372.6c7.6,13.7,15,27.5,22.9,41
	c1.2,2.1,2.6,4.1,4.3,5.8c26.8,26.9,101.7,32.2,138.2,20c51.4-17.1,99.4-69,99.6-125.2c0-9.6-0.6-32.9-7.1-44
	c-40.9-69.6-136.7-58-186.6-4.2c-27.8,30-7.8,14.7-33.4,53.4c-1,1.5-3.7,2-5.3,1.1c-2-1.1-2.4-3.9-3.6-5.8"/>
<path id="Path-38" fill="none" stroke="#000000" stroke-width="3" d="M722.7,305.8c-3.7,9.1-3.2,6-1,22.3
	c4.2,30.9,20.7,3.2,36.9-0.6c0.7-0.2-0.7,1.3-1.4,1.7c-3.7,1.9-7.4,3.6-11.4,4.9c-1.4,0.4-3.1,0.7-4.3,0c-1.1-0.6-1-2.3-1.5-3.5"/>
</svg>
