<?xml version="1.0" encoding="utf-8"?>
<!-- Generator: Adobe Illustrator 18.0.0, SVG Export Plug-In . SVG Version: 6.00 Build 0)  -->
<!DOCTYPE svg PUBLIC "-//W3C//DTD SVG 1.1//EN" "http://www.w3.org/Graphics/SVG/1.1/DTD/svg11.dtd">
<svg version="1.1" id="Layer_1" xmlns="http://www.w3.org/2000/svg" xmlns:xlink="http://www.w3.org/1999/xlink" x="0px" y="0px"
	 viewBox="0 0 500 500" enable-background="new 0 0 500 500" xml:space="preserve">
<g>
	<g>
		
			<polygon fill-rule="evenodd" clip-rule="evenodd" fill="#FFFFFF" stroke="#000000" stroke-width="4" stroke-miterlimit="10" points="
			95.7,330.7 95.7,153 249.6,64.2 403.5,153 403.5,330.7 249.6,419.6 		"/>
		
			<polyline fill-rule="evenodd" clip-rule="evenodd" fill="#FFFFFF" stroke="#000000" stroke-width="4" stroke-miterlimit="10" points="
			403.5,153.5 249.6,242.4 95.7,153.5 		"/>
		
			<line fill-rule="evenodd" clip-rule="evenodd" fill="#FFFFFF" stroke="#000000" stroke-width="4" stroke-miterlimit="10" x1="249.6" y1="242.4" x2="249.6" y2="419.6"/>
		<g>
			
				<polygon fill-rule="evenodd" clip-rule="evenodd" fill="#FFFFFF" stroke="#000000" stroke-width="4" stroke-miterlimit="10" points="
				249,212.2 96.4,123.6 249,35.1 401.6,123.6 			"/>
		</g>
		<g>
			
				<polygon fill-rule="evenodd" clip-rule="evenodd" fill="#FFFFFF" stroke="#000000" stroke-width="4" stroke-miterlimit="10" points="
				228.6,464.6 74,375.3 74,169.2 228.6,258.5 			"/>
			<path fill-rule="evenodd" clip-rule="evenodd" fill="#FFFFFF" stroke="#000000" stroke-width="4" stroke-miterlimit="10" d="
				M179.6,335c0,19.2-11.7,28-26.1,19.7c-14.4-8.3-26.1-30.6-26.1-49.8c0-19.2,11.7-28,26.1-19.7C167.9,293.5,179.6,315.8,179.6,335
				z"/>
			<path fill-rule="evenodd" clip-rule="evenodd" fill="#FFFFFF" stroke="#000000" stroke-width="4" stroke-miterlimit="10" d="
				M165.4,342.6c0,19.2-11.7,28-26.1,19.7c-14.4-8.3-26.1-30.6-26.1-49.8c0-19.2,11.7-28,26.1-19.7S165.4,323.4,165.4,342.6z"/>
		</g>
		<g>
			
				<polygon fill-rule="evenodd" clip-rule="evenodd" fill="#FFFFFF" stroke="#000000" stroke-width="4" stroke-miterlimit="10" points="
				426,375.7 271.4,464.9 271.4,258.8 426,169.5 			"/>
			<path fill-rule="evenodd" clip-rule="evenodd" fill="#FFFFFF" stroke="#000000" stroke-width="4" stroke-miterlimit="10" d="
				M358.6,313.4c0,5.6-3.4,12.1-7.6,14.5s-7.6-0.1-7.6-5.8s3.4-12.1,7.6-14.5S358.6,307.8,358.6,313.4z"/>
			<path fill-rule="evenodd" clip-rule="evenodd" fill="#FFFFFF" stroke="#000000" stroke-width="4" stroke-miterlimit="10" d="
				M365.6,328.8c-8.1,15.4-21.1,22.9-29.2,16.8"/>
			<path fill-rule="evenodd" clip-rule="evenodd" fill="#FFFFFF" stroke="#000000" stroke-width="4" stroke-miterlimit="10" d="
				M336.4,306.7c8.1-15.4,21.1-22.9,29.2-16.8"/>
			<path fill-rule="evenodd" clip-rule="evenodd" fill="#FFFFFF" stroke="#000000" stroke-width="4" stroke-miterlimit="10" d="
				M373.1,334.5c-12.2,23.4-32,34.8-44.3,25.6"/>
			<path fill-rule="evenodd" clip-rule="evenodd" fill="#FFFFFF" stroke="#000000" stroke-width="4" stroke-miterlimit="10" d="
				M328.8,301c12.2-23.4,32-34.8,44.3-25.6"/>
		</g>
		<path fill-rule="evenodd" clip-rule="evenodd" fill="#FFFFFF" stroke="#000000" stroke-width="4" stroke-miterlimit="10" d="
			M286.2,124.2c-0.6-19.6-16.7-35.3-36.4-35.3c-20.1,0-36.4,16.3-36.4,36.4c0,0.7,0.1,1.4,0.3,2c0.6,4.9,4.1,9.6,10.5,13.4
			c14.2,8.2,37.3,8.2,51.5,0C283.4,136.1,286.9,130.1,286.2,124.2z"/>
	</g>
	
		<line fill-rule="evenodd" clip-rule="evenodd" fill="#FFFFFF" stroke="#000000" stroke-width="4" stroke-miterlimit="10" x1="209.2" y1="69.4" x2="224.6" y2="91.2"/>
	
		<line fill-rule="evenodd" clip-rule="evenodd" fill="#FFFFFF" stroke="#000000" stroke-width="4" stroke-miterlimit="10" x1="243.9" y1="61.6" x2="246.8" y2="84.6"/>
	
		<line fill-rule="evenodd" clip-rule="evenodd" fill="#FFFFFF" stroke="#000000" stroke-width="4" stroke-miterlimit="10" x1="276.2" y1="67.7" x2="268.4" y2="87.9"/>
</g>
</svg>
