<?xml version="1.0" encoding="utf-8"?><!DOCTYPE svg PUBLIC "-//W3C//DTD SVG 1.1//EN" "http://www.w3.org/Graphics/SVG/1.1/DTD/svg11.dtd"><svg xmlns="http://www.w3.org/2000/svg" xmlns:xlink="http://www.w3.org/1999/xlink"><symbol viewBox="0 0 500 500" id="assets_dive"><g fill="none" stroke="#020202" stroke-width="2" stroke-miterlimit="10"><path d="M64.8 68.2c-75.6 7.5-52.7 106.1 28.2 79.4 15.7-5.3 51.3-54.9 39.5-72.4-26.3-39.1-102.8-12-107.3 28.4M76.8 143.1c.4 69.1 6.5 132.4 3.4 201.7M82 157.3c67 101.4 31.5 97.5 79.8 28 6.3-9 15.4-15.7 21.9-24.6.7-.9-1.6-1.4-2.4-2.2"/><path d="M182.3 125.6c-.4 12.6-1.6 25.1-1.3 37.8.1 4.7.3 9.7 2.4 14 1.2 2.5.3-5.5.4-8.3M188.9 119.9l46-3.5M244.6 120.1c-.5 9.7-1.3 19.4-1.6 29.1 0 3.8-.3 7.9.9 11.6.4 1.3 1.1-2.5 1.6-3.7M200.8 170.1c9.1 0 42.1 9.6 40.3-6.3M182.7 124.4c22.6-26.5 10.9-15.8 33.8-33.3M250.9 100.6c-7.9 17.9-7.5 13.7 11.1-6.1M228.6 93.6h38.2M275 101c-.4 10.4-.8 20.7-1.2 31.1M273.7 132.3l-19.3 29.4M109.7 78.1c-.1.7-.1 1.3-.3 2M83.9 158c44.9-20.9 57.9-49.1 79.5-16.5M403.4 47.8c-15 5-31.9 6.3-45 15.1-60.2 40.4 22.6 74.6 65.4 66.6 37.7-7.1 86.4-43.3 35.9-74.5-25.8-15.9-61.2-20-90-13M362.8 73.7c9.5-4.3 19-8.6 28.6-12.9M380.3 148.5c-23.8 53.1-12.5 23.4-32.1 89.5M401.5 145.1c65.2 134.4 69.5 180.6 63.1 124.1"/><path d="M410.2 160.3c-7.8 55.7 3.9 122.8-18.8 174.3-2.1 4.9-1.1-10.5-1.6-15.9M389.8 318.7c-20.4 19.2-89 126.9-57 61.6"/><path d="M382.7 325.6c12.8 21.5 61.9 90.8 70.4 132.7.4 2-3.4 2-5.1 3M74.9 342.7L31.1 426M80.8 333.5c60 97.3 37.5 53.8 72.3 127.4"/></g></symbol><symbol viewBox="0 0 500 500" id="assets_doubleArrow"><g fill="none" stroke="#010101" stroke-miterlimit="10"><path d="M31.3 102.4L250 320.8l218.7-219"/><path d="M31.3 179.8L250 398.2l218.7-219"/></g></symbol><symbol viewBox="0 0 1000 600" id="assets_process"><path fill="none" stroke="#F7EE60" stroke-width="3" stroke-linecap="round" stroke-linejoin="round" d="M720.7 215.4c.3.5 22.4-13.7 22.7-13.1.9 1.5-64.3 54.5-63.2 56.4 1.8 3.1 118.5-71.4 119.8-69.1 1.8 3.1-131.7 90.7-129.4 94.7 2.2 3.9 150.4-92.3 152.7-88.2 2.2 3.8-159.9 105.6-157 110.6 2.9 5 179.5-110.2 182.3-105.3 2.8 5-179.8 118.4-177.4 122.4 3.3 5.7 182.7-111.1 185.1-106.9 3.1 5.3-182.1 118.2-179.1 123.5 3.5 6.1 199.1-120.4 201.5-116.3 2.9 5.1-200.7 128.5-197.3 134.3 2.9 5.1 201-121.7 203.4-117.4 3 5.3-203.4 130.4-200.6 135.3 2.5 4.4 207.6-125.9 210.2-121.3 2.6 4.5-204.6 131.6-201.6 136.6 3.4 5.9 211.3-129.1 214.3-123.7C910 273 706 398.5 708.5 402.8c2.7 4.6 203.5-125.3 206.9-119.5 3.4 5.8-196.9 126.1-193.5 132 2.7 4.6 186.9-115.5 190.2-109.9 2.8 5-186.9 120.1-183.8 125.5 2.5 4.4 189.1-115.8 192-110.8 2.2 3.8-160.3 106-157.6 110.8 2.4 4.1 149-91.2 151.3-87.3 1.6 2.9-131.6 91.6-129.8 94.6 2 3.4 110.5-67.8 112.2-64.7 1 1.9-70.5 57.5-69.2 59.8.9 1.5 47.4-29.4 48.3-27.9"/><g fill="none" stroke="#010101" stroke-width="3" stroke-linecap="round" stroke-linejoin="round"><path d="M364.9 278c0 .1 1.7-1 1.8-1 .1.2-4.4 6.3-4.3 6.5.1.1 3.8-2.3 3.9-2.2M351.3 277.6l1-.6c.1.1.3 3.4.4 3.5 0 .1 2.2-1.3 2.2-1.3.1.1-.9 4-.9 4.1 0 .1 2.2-1.3 2.2-1.3.1.1-.6 4.6-.5 4.6 0 .1 2.2-1.3 2.2-1.2.1.1-.8 4.1-.7 4.2 0 .1 2.1-1.3 2.2-1.2s-1 4.1-.9 4.3c0 .1 3.2-2 3.3-1.9.1.2-3.3 5.6-3.2 5.7 0 .1 2.6-1.5 2.6-1.5M378.6 278.9c.1.1 2.9-1.8 3-1.7.1.1.7 3.4.8 3.5 0 .1 2.2-1.3 2.2-1.3.1.1-1 4.1-.9 4.3 0 .1 2.2-1.4 2.3-1.3.1.1-2.2 4.6-2.2 4.7 0 .1 2.5-1.5 2.5-1.5.1.2-2.7 5.9-2.6 5.9 0 .1 2.6-1.5 2.6-1.5M372.7 279.5c.1.2 4.6-2.8 4.6-2.7.2.3-6.4 7.1-6.2 7.3 0 .1 2.8-1.7 2.8-1.6.1.2-3.1 5.2-3 5.3 0 .1 2.5-1.5 2.5-1.5.1.2-2.4 5.5-2.3 5.7 0 .1 2.3-1.5 2.4-1.4.1.1-1.6 4.6-1.5 4.6 0 .1 2.2-1.4 2.2-1.3s-.1 3.7-.1 3.8 2.4-1.5 2.4-1.4c.1.1 2 2.7 2 2.7.1.2 6.5-3.9 6.5-3.8M402.4 277.7l1.3-.8c.1.1-1.4 4.6-1.3 4.7 0 .1 2.5-1.5 2.6-1.5.1.1-2.7 5.1-2.6 5.2 0 .1 2.5-1.5 2.6-1.5.1.2-2.6 4.9-2.6 5s2.5-1.5 2.6-1.5c.1.2-2.9 5.9-2.8 6.1.1.1 2.8-1.7 2.8-1.6M390.2 277.7l1.3-.8c.1.1-1.4 4.4-1.3 4.5 0 .1 2.5-1.5 2.6-1.5.1.2-2.7 5-2.6 5.1 0 .1 2.5-1.5 2.6-1.5.1.2-2.7 5.7-2.6 5.8 0 .1 2.5-1.5 2.6-1.5s-2.5 5-2.4 5.2c0 .1 2.4-1.5 2.4-1.4.1.1-1.3 4.3-1.3 4.5 0 .1 2.2-1.3 2.2-1.3.1.1.5 3.4.6 3.5 0 .1 3-1.8 3-1.7M413.7 279.4c.1.1 4-2.4 4-2.3.1.1 2 2.8 2 2.8s2.3-1.5 2.3-1.4-.7 4-.6 4c0 .1 2.3-1.4 2.3-1.4.2.3-8.8 8.3-8.7 8.5.1.2 8.7-5.3 8.9-5.1.1.2-3.3 6.1-3.2 6.3 0 .1 2.2-1.4 2.2-1.3.1.1-2.3 5.3-2.2 5.5 0 .1 2.5-1.5 2.5-1.5.1.1-1.7 4.8-1.7 5 0 .1 1.7-1 1.7-.9M409.7 277.7l1.3-.8c.1.1-1.4 4.4-1.3 4.5 0 .1 2.5-1.5 2.5-1.5.1.2-2.6 4.9-2.5 5.1 0 .1 2.5-1.5 2.5-1.5.1.2-2.6 5.6-2.5 5.8.1.1 3.5-2.2 3.6-2.1.1.2-3.7 5.7-3.6 5.9 0 .1 2.5-1.5 2.5-1.5.1.1-2.6 5.1-2.5 5.2 0 .1 2.5-1.5 2.5-1.5"/><g><path d="M337.7 325c.1.1 4-2.4 4-2.3.1.1 2 2.8 2 2.8 0 .1 2.3-1.5 2.3-1.4 0 .1-.7 4-.6 4 0 .1 2.3-1.4 2.3-1.4.2.3-8.8 8.3-8.7 8.5.1.2 8.7-5.3 8.9-5.1M333.9 323.4l1.3-.8c.1.1-1.4 4.4-1.3 4.5 0 .1 2.5-1.5 2.5-1.5.1.2-2.6 4.9-2.5 5.1 0 .1 2.5-1.5 2.5-1.5.1.2-2.6 5.6-2.5 5.8.1.1 3.5-2.2 3.6-2.1.1.2-3.7 5.7-3.6 5.9 0 .1 2.5-1.5 2.5-1.5.1.1-2.6 5.1-2.5 5.2 0 .1 2.5-1.5 2.5-1.5M356.8 325c.1.1 4-2.4 4-2.3s2 2.8 2 2.8c0 .1 2.3-1.5 2.3-1.4 0 .1-.7 4-.6 4 0 .1 2.3-1.4 2.3-1.4.2.3-8.8 8.3-8.7 8.5.1.2 8.7-5.3 8.9-5.1.1.2-3.3 6.1-3.2 6.3 0 .1 2.2-1.4 2.2-1.3.1.1-2.3 5.3-2.2 5.5 0 .1 2.5-1.5 2.5-1.5.1.1-1.7 4.8-1.7 5 0 .1 1.7-1 1.7-.9M352.8 323.4l1.3-.8c.1.1-1.4 4.4-1.3 4.5 0 .1 2.5-1.5 2.5-1.5.1.2-2.6 4.9-2.5 5.1 0 .1 2.5-1.5 2.5-1.5.1.2-2.6 5.6-2.5 5.8.1.1 3.5-2.2 3.6-2.1.1.2-3.7 5.7-3.6 5.9 0 .1 2.5-1.5 2.5-1.5.1.1-2.6 5.1-2.5 5.2 0 .1 2.5-1.5 2.5-1.5M378.6 324.6c.1.1 2.9-1.8 3-1.7.1.1.7 3.4.8 3.5 0 .1 2.2-1.3 2.2-1.3.1.1-1 4.1-.9 4.3 0 .1 2.2-1.4 2.3-1.3.1.1-2.2 4.6-2.2 4.7 0 .1 2.5-1.5 2.5-1.5.1.2-2.7 5.9-2.6 5.9 0 .1 2.6-1.5 2.6-1.5M372.7 325.1c.1.2 4.6-2.8 4.6-2.7.2.3-6.4 7.1-6.2 7.3 0 .1 2.8-1.7 2.8-1.6.1.2-3.1 5.2-3 5.3 0 .1 2.5-1.5 2.5-1.5.1.2-2.4 5.5-2.3 5.7 0 .1 2.3-1.5 2.4-1.4.1.1-1.6 4.6-1.5 4.6 0 .1 2.2-1.4 2.2-1.3.1.1-.1 3.7-.1 3.8 0 .1 2.4-1.5 2.4-1.4.1.1 2 2.7 2 2.7.1.2 6.5-3.9 6.5-3.8M402.7 337.3s1.3-.8 1.4-.8M397.6 324.6c.1.1 3.1-1.9 3.2-1.8.1.1.7 3.4.8 3.5 0 .1 2.2-1.3 2.2-1.3.1.1-1.1 4.2-1.1 4.3 0 .1 2.4-1.5 2.4-1.4"/><path d="M391.7 325c.1.2 4.6-2.8 4.6-2.7.2.3-6.4 7.1-6.2 7.3 0 .1 2.9-1.7 2.9-1.7.1.2-3.1 5.3-3 5.4 0 .1 2.5-1.5 2.6-1.5.1.2-2.5 5.6-2.4 5.7 0 .1 2.4-1.5 2.4-1.4.1.1-1.6 4.6-1.5 4.7 0 .1 2.2-1.4 2.2-1.3.1.1-.2 3.7-.1 3.8 0 .1 2.4-1.5 2.5-1.5.1.1 1.9 2.7 1.9 2.8.1.2 6.7-4 6.8-4M413.9 334.6c.1.1 4.1-2.5 4.1-2.4.1.1 3.1 2.3 3.1 2.4s1.8-1.1 1.8-1M413.9 325c.1.1 4.1-2.5 4.1-2.4.1.1 2.7 2.3 2.8 2.4 0 .1 2.3-1.5 2.3-1.4"/><path d="M410 323.4l1.3-.8c.1.1-1.4 4.4-1.3 4.5 0 .1 2.5-1.5 2.6-1.5.1.2-2.7 5-2.6 5.1 0 .1 2.5-1.5 2.6-1.5.1.2-2.7 5.7-2.6 5.8.1.2 4.8-2.9 4.9-2.8.1.2-5.1 6.5-4.9 6.6 0 .1 2.5-1.5 2.6-1.5.1.1-2.7 5.1-2.6 5.2 0 .1 2.5-1.5 2.6-1.5.1.1 1 3.1 1.1 3.2.1.1 4.1-2.5 4.1-2.4l2.4 2.4c.1.1 3-1.8 3-1.7M427.5 336.6l1.3-.8c.1.1-.6 4.4-.5 4.5 0 .1 2.2-1.4 2.2-1.3 0 .1-.3 3.8-.2 3.9 0 .1 2.3-1.4 2.3-1.4 0 .1 1.3 2.8 1.4 2.9s4.5-2.8 4.6-2.7M435.1 324.6c.1.1 3.4-2.1 3.4-2 .1.1.9 3.3 1 3.4 0 .1 2.2-1.4 2.2-1.3.1.1-1.1 4.2-1.1 4.3s2.4-1.5 2.4-1.4"/><path d="M429.2 325.1c.1.2 4.8-2.9 4.9-2.8.2.3-5.8 6.8-5.7 7 0 .1 2.4-1.5 2.5-1.5.1.1-1.1 4.1-1 4.2 0 .1 2.3-1.4 2.3-1.4.1.1 1.7 3.2 1.8 3.3s3.1-1.9 3.2-1.8c0 .1 1.5 2.8 1.5 2.9s2.4-1.5 2.5-1.5c.1.1-.5 3.9-.4 4 0 .1 2.3-1.5 2.3-1.4"/></g><g><path d="M380 382.2l1.3-.8c.1.1-.6 4.4-.5 4.5 0 .1 2.2-1.4 2.2-1.3 0 .1-.3 3.8-.2 3.9 0 .1 2.3-1.4 2.3-1.4 0 .1 1.3 2.8 1.4 2.9.1.1 4.5-2.8 4.6-2.7M387.7 370.2c.1.1 3.4-2.1 3.4-2 .1.1.9 3.3 1 3.4 0 .1 2.2-1.4 2.2-1.3.1.1-1.1 4.2-1.1 4.3 0 .1 2.4-1.5 2.4-1.4"/><path d="M381.8 370.7c.1.2 4.8-2.9 4.9-2.8.2.3-5.8 6.8-5.7 7 0 .1 2.4-1.5 2.5-1.5.1.1-1.1 4.1-1 4.2 0 .1 2.3-1.4 2.3-1.4.1.1 1.7 3.2 1.8 3.3.1.1 3.1-1.9 3.2-1.8 0 .1 1.5 2.8 1.5 2.9 0 .1 2.4-1.5 2.5-1.5.1.1-.5 3.9-.4 4 0 .1 2.3-1.5 2.3-1.4"/></g></g><g fill="none" stroke="#010101" stroke-linecap="round" stroke-linejoin="round"><path d="M771.7 286.3c.1.1 3.5-2.2 3.6-2.1 0 .1-.9 2.2-.8 2.2.1.1 2.5-1.5 2.5-1.5 0 .1-1.2 2.2-1.1 2.2 0 .1 2.2-1.4 2.2-1.3s-1.4 2.3-1.4 2.3c0 .1 2.2-1.3 2.2-1.3 0 .1-1.5 2.8-1.5 2.9 0 .1 2.2-1.4 2.2-1.3.1.1-2 3.1-1.9 3.2 0 .1 2.3-1.5 2.4-1.4.1.1-2.4 3.4-2.3 3.5 0 .1 2.5-1.5 2.5-1.5 0 .1-2.6 3.1-2.5 3.1 0 .1 2.5-1.5 2.5-1.5.1.1-2.6 2.9-2.5 3 0 .1 2.5-1.5 2.5-1.5.1.1-2.9 4-2.8 4.1.1.1 2.7-1.6 2.8-1.5.1.2-4.1 4-4 4.2.1.1 3.8-2.3 3.9-2.2"/><path d="M767.9 285.7c0 .1 2.4-1.5 2.4-1.4.1.1-4.3 3.9-4.2 4 .1.2 7.4-4.5 7.5-4.3.1.2-8.3 6.9-8.1 7.1.1.1 2.8-1.7 2.9-1.7.1.1-3.1 4-3 4.1 0 .1 2.5-1.5 2.6-1.5.1.1-2.6 3.9-2.6 3.9 0 .1 2.5-1.5 2.5-1.5.1.1-2.5 2.9-2.5 3 0 .1 2.5-1.5 2.5-1.5.1.1-2.4 3.3-2.3 3.4 0 .1 2.3-1.5 2.4-1.4.1.1-1.9 3.4-1.9 3.5 0 .1 2.2-1.4 2.2-1.3.1.1-1.4 3-1.3 3.1 0 .1 2.1-1.3 2.2-1.2 0 .1-.9 2.5-.9 2.5 0 .1 2.3-1.4 2.3-1.4 0 .1-.7 2.2-.6 2.3 0 .1 2.9-1.8 3-1.7 0 .1-.9 2.2-.9 2.2.1.2 7.7-4.7 7.8-4.5.1.2-4.3 4-4.2 4.2 0 .1 2.4-1.5 2.4-1.4M796.6 284.5l.4-.3-.4 2c.1.1 2.5-1.5 2.6-1.5.1.1-2.6 2.9-2.6 3 0 .1 2.5-1.5 2.6-1.5.1.1-2.6 3-2.6 3 0 .1 2.5-1.5 2.6-1.5s-2.7 3.5-2.6 3.6c0 .1 2.5-1.5 2.6-1.5.1.1-2.7 3.4-2.6 3.6 0 .1 2.5-1.5 2.6-1.5s-2.6 3.6-2.6 3.7 2.5-1.5 2.6-1.5c0 .1-2.6 3.1-2.6 3.2 0 .1 2.5-1.5 2.6-1.5s-2.7 2.9-2.6 3c0 .1 2.6-1.5 2.6-1.5.1.2-3.5 4.3-3.4 4.5.1.1 3.3-2 3.3-1.9"/><path d="M784.4 284.5l.4-.3-.4 1.8c0 .1 2.5-1.5 2.6-1.5.1.1-2.6 3.9-2.6 4 .1.1 2.5-1.5 2.6-1.5.1.1-2.6 3.7-2.6 3.9 0 .1 2.5-1.5 2.6-1.5.1.1-2.6 3.8-2.6 3.9 0 .1 2.5-1.5 2.6-1.5.1.1-2.6 3-2.6 3.1s2.5-1.5 2.6-1.5c.1.1-2.6 3.4-2.6 3.5.1.1 2.5-1.5 2.6-1.5.1.1-2.5 3.8-2.5 3.9 0 .1 2.4-1.5 2.5-1.5.1.1-2.2 3.4-2.2 3.5 0 .1 2.2-1.4 2.2-1.3.1.1-1.6 2.8-1.5 2.9 0 .1 2.2-1.3 2.2-1.3 0 .1-1.2 2.6-1.1 2.6 0 .1 2.2-1.4 2.3-1.4 0 .1-1 2.2-1 2.2 0 .1 2.7-1.6 2.8-1.5 0 .1.2 2.3.2 2.4.1.2 7.9-4.8 8.1-4.6.1.2-4.7 4.4-4.6 4.5.1.1 3.2-2 3.3-1.9M807 286.7c.1.1 4-2.4 4-2.3 0 .1-.6 2.2-.6 2.3.1.1 3.4-2.1 3.4-2 0 .1-1 2.2-.9 2.2 0 .1 2.6-1.5 2.7-1.5 0 .1-1 2.2-.9 2.3 0 .1 2.2-1.3 2.2-1.3 0 .1-1.4 2.5-1.4 2.6 0 .1 2.2-1.3 2.2-1.3 0 .1-2 2.7-2 2.8 0 .1 2.3-1.5 2.4-1.4.1.1-3.1 4-3 4.1.1.1 3.1-1.9 3.1-1.8"/><path d="M806.9 297c.1.1 4-2.5 4.1-2.3 0 .1-1 2.2-1 2.3.2.3 7.9-4.9 8.1-4.6.1.2-5.4 4.5-5.3 4.6.1.1 2.8-1.7 2.8-1.6 0 .1-.9 2.1-.9 2.1 0 .1 2-1.2 2.1-1.2 0 .1-1.7 3-1.6 3.1 0 .1 2.4-1.5 2.5-1.5.1.1-2.5 3.4-2.5 3.5 0 .1 2.5-1.5 2.5-1.5.1.1-2.6 3.5-2.5 3.7 0 .1 2.5-1.5 2.5-1.5s-2.6 3.1-2.5 3.2c0 .1 2.5-1.5 2.5-1.5l-.8 2 .8-.4"/><path d="M803.9 284.6l.4-.3-.4 1.8c0 .1 3.1-1.9 3.1-1.8.1.1-3.2 4.1-3.1 4.3 0 .1 2.5-1.5 2.5-1.5.1.1-2.6 3.7-2.5 3.8 0 .1 2.5-1.5 2.5-1.5.1.1-2.6 3.8-2.5 3.9 0 .1 2.5-1.5 2.5-1.5.1.1-2.6 3-2.5 3 0 .1 2.5-1.5 2.6-1.5.1.1-2.6 3.4-2.6 3.5.1.1 4-2.5 4.1-2.4.1.1-4.2 4.7-4.1 4.8 0 .1 2.5-1.5 2.5-1.5.1.1-2.6 3.7-2.5 3.8 0 .1 2.5-1.5 2.5-1.5.1.1-2.6 3.4-2.5 3.4 0 .1 2.5-1.5 2.5-1.5.1.1-2.6 3.3-2.5 3.4 0 .1 2.5-1.5 2.6-1.5"/><g><path d="M740.7 332.3c.1.1 4-2.4 4-2.3 0 .1-.6 2.2-.6 2.3.1.1 3.4-2.1 3.4-2 0 .1-1 2.2-.9 2.2 0 .1 2.6-1.5 2.7-1.5 0 .1-1 2.2-.9 2.3 0 .1 2.2-1.3 2.2-1.3 0 .1-1.4 2.5-1.4 2.6s2.2-1.3 2.2-1.3c0 .1-2 2.7-2 2.8s2.3-1.5 2.4-1.4c.1.1-3.1 4-3 4.1.1.1 3.1-1.9 3.1-1.8"/><path d="M740.5 342.6c.1.1 4-2.5 4.1-2.3 0 .1-1 2.2-.9 2.3.2.3 8-4.9 8.1-4.6.1.2-5.3 4.4-5.3 4.6.1.1 4.4-2.7 4.4-2.6"/><path d="M737.6 330.2l.4-.3-.4 1.8c0 .1 3.1-1.9 3.1-1.8.1.1-3.2 4.1-3.1 4.3 0 .1 2.5-1.5 2.5-1.5.1.1-2.6 3.7-2.5 3.8 0 .1 2.5-1.5 2.5-1.5.1.1-2.6 3.8-2.5 3.9 0 .1 2.5-1.5 2.5-1.5.1.1-2.6 3-2.5 3 0 .1 2.5-1.5 2.6-1.5.1.1-2.6 3.4-2.6 3.5.1.1 4-2.5 4.1-2.4s-4.2 4.7-4.1 4.8c0 .1 2.5-1.5 2.5-1.5.1.1-2.6 3.7-2.5 3.8 0 .1 2.5-1.5 2.5-1.5.1.1-2.6 3.4-2.5 3.4 0 .1 2.5-1.5 2.5-1.5.1.1-2.6 3.3-2.5 3.4 0 .1 2.5-1.5 2.6-1.5M759.6 332.3c.1.1 4-2.4 4-2.3 0 .1-.6 2.2-.6 2.3.1.1 3.4-2.1 3.4-2 0 .1-1 2.2-.9 2.2 0 .1 2.6-1.5 2.7-1.5 0 .1-1 2.2-.9 2.3 0 .1 2.2-1.3 2.2-1.3 0 .1-1.4 2.5-1.4 2.6s2.2-1.3 2.2-1.3c0 .1-2 2.7-2 2.8s2.3-1.5 2.4-1.4c.1.1-3.1 4-3 4.1.1.1 3.1-1.9 3.1-1.8"/><path d="M759.5 342.6c.1.1 4-2.5 4.1-2.3 0 .1-1 2.2-1 2.3.2.3 7.9-4.9 8.1-4.6.1.2-5.4 4.5-5.3 4.6.1.1 2.8-1.7 2.8-1.6 0 .1-.9 2.1-.9 2.1 0 .1 2-1.2 2.1-1.2 0 .1-1.7 3-1.6 3.1 0 .1 2.4-1.5 2.5-1.5.1.1-2.5 3.4-2.5 3.5 0 .1 2.5-1.5 2.5-1.5.1.1-2.6 3.5-2.5 3.7 0 .1 2.5-1.5 2.5-1.5 0 .1-2.6 3.1-2.5 3.2 0 .1 2.5-1.5 2.5-1.5 0 .1-.8 2-.8 2l.8-.4"/><path d="M756.6 330.2l.4-.3-.4 1.8c0 .1 3.1-1.9 3.1-1.8.1.1-3.2 4.1-3.1 4.3 0 .1 2.5-1.5 2.5-1.5.1.1-2.6 3.7-2.5 3.8 0 .1 2.5-1.5 2.5-1.5.1.1-2.6 3.8-2.5 3.9 0 .1 2.5-1.5 2.5-1.5.1.1-2.6 3-2.5 3 0 .1 2.5-1.5 2.6-1.5s-2.6 3.4-2.6 3.5c.1.1 4-2.5 4.1-2.4s-4.2 4.7-4.1 4.8c0 .1 2.5-1.5 2.5-1.5.1.1-2.6 3.7-2.5 3.8 0 .1 2.5-1.5 2.5-1.5.1.1-2.6 3.4-2.5 3.4 0 .1 2.5-1.5 2.5-1.5.1.1-2.6 3.3-2.5 3.4 0 .1 2.5-1.5 2.6-1.5M781.2 332c.1.1 3.5-2.2 3.6-2.1 0 .1-.9 2.2-.8 2.2.1.1 2.5-1.5 2.5-1.5l-1.2 2.2c0 .1 2.2-1.4 2.2-1.3 0 .1-1.4 2.3-1.4 2.3 0 .1 2.2-1.3 2.2-1.3 0 .1-1.5 2.8-1.5 2.9 0 .1 2.2-1.4 2.2-1.3.1.1-2 3.1-1.9 3.2 0 .1 2.3-1.5 2.4-1.4.1.1-2.4 3.4-2.3 3.5 0 .1 2.5-1.5 2.5-1.5 0 .1-2.6 3.1-2.5 3.1 0 .1 2.5-1.5 2.5-1.5.1.1-2.6 2.9-2.5 3 0 .1 2.5-1.5 2.5-1.5.1.1-2.9 4-2.8 4.1.1.1 2.7-1.6 2.8-1.5.1.2-4.1 4-4 4.2.1.1 3.8-2.3 3.9-2.2"/><path d="M777.3 331.4c0 .1 2.4-1.5 2.4-1.4.1.1-4.3 3.9-4.3 4 .1.2 7.4-4.5 7.5-4.3.1.2-8.3 6.9-8.1 7.1.1.1 2.8-1.7 2.9-1.7.1.1-3.1 4-3 4.1 0 .1 2.5-1.5 2.6-1.5s-2.6 3.9-2.6 3.9c0 .1 2.5-1.5 2.5-1.5.1.1-2.5 2.9-2.5 3 0 .1 2.5-1.5 2.5-1.5.1.1-2.4 3.3-2.3 3.4 0 .1 2.3-1.5 2.4-1.4.1.1-1.9 3.4-1.9 3.5s2.2-1.4 2.2-1.3c.1.1-1.4 3-1.3 3.1 0 .1 2.1-1.3 2.2-1.2 0 .1-.9 2.5-.9 2.5 0 .1 2.3-1.4 2.3-1.4 0 .1-.7 2.2-.6 2.3 0 .1 2.9-1.8 3-1.7 0 .1-.9 2.2-.9 2.2.1.2 7.7-4.7 7.8-4.5.1.2-4.3 4-4.2 4.2 0 .1 2.4-1.5 2.4-1.4M806.4 344l.4-.3c0 .1-.8 2.3-.7 2.4.1.1 2.8-1.7 2.8-1.6M800.2 332.1c.1.1 3.7-2.2 3.7-2.2 0 .1-.9 2.2-.9 2.2.1.1 2.5-1.5 2.6-1.5 0 .1-1.2 2.2-1.1 2.2 0 .1 2.2-1.4 2.2-1.3 0 .1-1.4 2.3-1.4 2.3 0 .1 2.2-1.4 2.2-1.3 0 .1-1.5 2.9-1.5 3 0 .1 2.3-1.4 2.3-1.4.1.1-2.1 3.2-2.1 3.3 0 .1 2.4-1.5 2.5-1.4"/><path d="M796.5 331.3c0 .1 2.4-1.5 2.4-1.4.1.1-4.3 3.9-4.3 4 .1.2 7.4-4.5 7.5-4.3.1.2-8.4 6.9-8.2 7.2.1.1 2.9-1.8 3-1.7.1.1-3.2 4-3.1 4.1 0 .1 2.6-1.5 2.6-1.5.1.1-2.7 3.9-2.6 4 0 .1 2.5-1.5 2.6-1.5.1.1-2.6 3-2.6 3.1 0 .1 2.5-1.5 2.6-1.5s-2.4 3.4-2.4 3.4c0 .1 2.4-1.5 2.4-1.4.1.1-2 3.4-1.9 3.5 0 .1 2.2-1.4 2.2-1.3.1.1-1.4 3-1.4 3.1 0 .1 2.2-1.3 2.2-1.3 0 .1-1 2.5-.9 2.6 0 .1 2.3-1.5 2.4-1.4 0 .1-.7 2.3-.7 2.3 0 .1 3-1.9 3.1-1.8 0 .1-1 2.2-1 2.2.1.2 8-4.9 8.1-4.6.1.2-4.6 4.3-4.6 4.4 0 .1 2.8-1.7 2.8-1.6M816.7 342c.1.1 4.1-2.5 4.1-2.4 0 .1-.8 2.3-.7 2.4.1.1 4.1-2.5 4.1-2.4 0 .1-1.4 2.3-1.4 2.4.1.1 3.6-2.2 3.7-2.2 0 0-.6 2.1-.6 2.2l.6-.3M816.7 332.3c.1.1 4.1-2.5 4.1-2.4 0 .1-1.1 2.3-1.1 2.4.1.1 4.1-2.5 4.1-2.4 0 .1-1.5 2.3-1.5 2.4.1.1 4.1-2.5 4.1-2.4 0 .1-1.5 2.3-1.5 2.4l1.6-.9"/><path d="M813.7 330.2l.4-.3-.4 1.8c0 .1 3.1-1.9 3.1-1.8.1.1-3.2 4.1-3.1 4.3.1.1 2.5-1.5 2.6-1.5.1.1-2.6 3.7-2.6 3.9 0 .1 2.5-1.5 2.6-1.5s-2.6 3.9-2.6 3.9c0 .1 2.5-1.5 2.6-1.5.1.1-2.6 3-2.6 3.1s2.5-1.5 2.6-1.5c.1.1-2.7 3.4-2.6 3.5.1.2 5.3-3.3 5.4-3.1.1.2-5.5 5.4-5.4 5.6 0 .1 2.5-1.5 2.6-1.5.1.1-2.6 3.7-2.6 3.8 0 .1 2.5-1.5 2.6-1.5s-2.7 3.4-2.6 3.4c.1.1 2.5-1.5 2.6-1.5s-2.7 3.4-2.6 3.4c.1.1 3.7-2.3 3.8-2.2 0 .1-1.3 2.3-1.2 2.4s4-2.5 4.1-2.4c0 .1.1 2.3.2 2.4.1.1 4.1-2.5 4.1-2.4s-1 2.3-1 2.4c.1.1 3.3-2 3.3-1.9l-.4 1.9.4-.3M831.2 343.4l.4-.3c0 .1-.3 2.1-.3 2.2 0 .1 2.4-1.5 2.4-1.4.1.1-2.2 2.8-2.2 2.8 0 .1 2.2-1.4 2.2-1.3s-1.7 2.7-1.6 2.8c0 .1 2.2-1.3 2.2-1.2 0 .1-1.3 2.5-1.2 2.5 0 .1 2.2-1.3 2.2-1.3 0 .1-1.1 2.2-1 2.2 0 .1 2.3-1.5 2.4-1.4 0 .1-.2 2.4-.2 2.5.1.1 3.3-2 3.3-1.9 0 .1-.8 2.2-.7 2.3.1.2 7.7-4.7 7.7-4.5.1.1-4.2 4-4.1 4.1 0 .1 2.7-1.6 2.8-1.5M837.7 332.1c.1.1 3.9-2.4 4-2.2 0 .1-.9 2.2-.9 2.3.1.1 2.8-1.6 2.8-1.6 0 .1-1.2 2.2-1.2 2.2s2.4-1.5 2.4-1.4c0 .1-1.3 2.2-1.3 2.3 0 .1 2.2-1.4 2.2-1.3 0 .1-1.5 2.8-1.5 2.9 0 .1 2.2-1.4 2.3-1.3.1.1-2.2 3.2-2.2 3.4 0 .1 2.4-1.5 2.5-1.5"/><path d="M833.7 331.5c0 .1 2.8-1.7 2.8-1.6.1.1-4.2 3.9-4.2 4 .1.2 7.4-4.5 7.5-4.3.1.2-7.7 6.6-7.6 6.9.1.1 2.5-1.5 2.5-1.5.1.1-1.9 3.4-1.9 3.4 0 .1 2.2-1.4 2.2-1.3 0 .1-.8 2.8-.7 2.8 0 .1 2.5-1.5 2.5-1.5l-1.1 2.2s2.8-1.7 2.8-1.6c0 .1-.5 2.3-.5 2.3.1.1 3.1-1.9 3.2-1.8v2.5c0 .1 2.7-1.6 2.8-1.5 0 .1-.6 2.6-.5 2.7 0 .1 2.2-1.4 2.3-1.3.1.1-1.5 2.8-1.4 2.8 0 .1 2.2-1.4 2.2-1.3.1.1-2.3 3.2-2.2 3.3 0 .1 2.6-1.5 2.6-1.5"/></g><g><path d="M783.7 389l.4-.3c0 .1-.3 2.1-.3 2.2s2.4-1.5 2.4-1.4c.1.1-2.2 2.8-2.2 2.8s2.2-1.4 2.2-1.3c0 .1-1.7 2.7-1.6 2.8 0 .1 2.2-1.3 2.2-1.2s-1.3 2.5-1.2 2.5c0 .1 2.2-1.3 2.2-1.3 0 .1-1.1 2.2-1 2.2 0 .1 2.3-1.5 2.4-1.4 0 .1-.2 2.4-.2 2.5.1.1 3.3-2 3.3-1.9s-.8 2.2-.7 2.3c.1.2 7.7-4.7 7.7-4.5.1.1-4.2 4-4.1 4.1 0 .1 2.7-1.6 2.8-1.5M790.3 377.7c.1.1 3.9-2.4 4-2.2 0 .1-.9 2.2-.9 2.3.1.1 2.8-1.6 2.8-1.6 0 .1-1.2 2.2-1.2 2.2 0 .1 2.4-1.5 2.4-1.4 0 .1-1.3 2.2-1.3 2.3 0 .1 2.2-1.4 2.2-1.3 0 .1-1.5 2.8-1.5 2.9s2.2-1.4 2.3-1.3c.1.1-2.2 3.2-2.2 3.4 0 .1 2.4-1.5 2.5-1.5"/><path d="M786.3 377.1c0 .1 2.8-1.7 2.8-1.6.1.1-4.2 3.9-4.2 4 .1.2 7.4-4.5 7.5-4.3.1.2-7.7 6.6-7.6 6.9.1.1 2.5-1.5 2.5-1.5.1.1-1.9 3.4-1.9 3.4s2.2-1.4 2.2-1.3-.8 2.8-.7 2.8c0 .1 2.5-1.5 2.5-1.5l-1.1 2.2c0 .1 2.8-1.7 2.8-1.6s-.5 2.3-.5 2.3c.1.1 3.1-1.9 3.2-1.8v2.5c0 .1 2.7-1.6 2.8-1.5 0 .1-.6 2.6-.5 2.7 0 .1 2.2-1.4 2.3-1.3.1.1-1.5 2.8-1.4 2.8 0 .1 2.2-1.4 2.2-1.3.1.1-2.3 3.2-2.2 3.3 0 .1 2.6-1.5 2.6-1.5"/></g></g><path fill="none" stroke="#010101" stroke-width="3" d="M100.9 244.7c14.7-31.9 28.5-64.1 44.3-95.5 2.2-4.5 5.8-8.4 9.6-11.7 32.9-28.5 65.9-56.9 100.4-83.6 6.8-5.3 14.5-9.5 22.8-11.8 26.6-7.6 53.6-14.6 81.1-17.9 21.5-2.6 59 7.3 77.9 16.4 58.7 28.1 109.3 78.1 149 129 29.5 37.9 54.8 75.9 74.6 119.8 7.1 15.8 11.6 36 14.8 52.9 1.8 9.6 2.8 19.3 4.4 28.9.3 1.5.3 3.3 1.5 4.2.9.9 2.7.8 3.8.3 1.6-.9 3.6-2.2 3.8-4 .2-1.1-2.2-.5-3.2-.7M656.8 392.1c-9.3 18.1-17.9 36.5-27.8 54.3-22.4 40.4-97.9 79-137.5 96.9-32.8 14.7-75.8 22.2-110.3 28.3-32 5.6-70.1 11.7-102.7 7.1-75.3-10.4-134.7-79.6-152.8-150.1-14.1-54.9-29.4-105.1-14.8-159.5M197.2 82.3c.2 5.6 0 11.3.6 16.9 0 .3 1.2.2 1-.1l2.1-13.3c-3.8-7.3-9 5.3-8 6.9 7.9 11.6 10.2-11 9.6-12.7-.3-.8-7.6 5.5-2.4 5.5"/><path fill="none" stroke="#010101" stroke-width="3" d="M408.3 20.5c-4.6.2-10.2-2.2-13.7.6-3.4 2.6-6.4 10-2.8 12.4 4.7 3.3 22.1.5 17.2-2.5l.6-1.5c-8.7-5.3-9.6-6.3-14.2 1.6-.5.9-.9 2.2-.5 3.1 3.1 6.2 15.1 1.6 13.3-4.9-1.9-7-15.8 7.8-11.1 10.2.5.3 14.2-5.7.1-5.2M573.1 166.3c-2.9 1.3-6.1 2.2-8.9 4-.4.3-.5 1.5 0 1.5l9.6 2.4c4.5-.5 13.1-12.9 8.3-16.4-4.5-3.3-16 7.6-11.8 10.2 5.6 3.4 14-2.2 15.2-7.9.2-.7-.1-2.1-.9-2.1-4.2.3-11.8 11.2-3.7 10.8 7.9-.4-.3-12.6-6.5-3.6M668.9 314.7c.4 3.5-1.8 12.1 1.3 10.5 5.6-3 13.5-11.5 9.6-16.4-6.4-7.8-36.4 31.2-5.3 9.6 2.5-1.7 4.3-4.6 5.6-7.3.7-1.5 1.2-3.5.3-4.7-4.9-6.5-16.6 10.8-14.5 13.7 1.4 2 9.2-2.7 6.9-1.9l1.6-3.2c-5.5 1.7-3.6 3.7-2.4 6.4M624.6 429.9c-.9 8.6-4.7 17.5-2.5 25.8.9 3.3 5.4-4 7.7-6.5 2.8-3-8.4-3.8-12.7 4.6-.8 1.4-1.7 3.4-.7 4.6 8.7 10 15.5-19.5 4.7-7.1-3.1 3.6-5.7 7.7-8.4 11.5M399 564.2c0 .3-.7 24.6 4 4.6.6-2.7-11.6-2.8-12.7 2.2-2.4 10.3 22.6-9 3.1-8.4-2.9.1-11.3 8.4-5.3 10 1.3.3 16.1-3.4-3.6-.1M130.9 409.3c-1.3.8-4.5 3.9-4 2.4l4.4 1.8c.2-.5 2.9-18.3-5.9-16.7-.5.1-23.7 13.8-9.9 17.3 7.1 1.8 11.8-11.7 6.5-15.2-5.3-3.4-9.6 6.9-8.6 10.6 2 7.4 11.5-.3 4-1.9-2.2-.4-4.5-.2-6.7-.3M79.8 321.1c3-5.5 6.4-10.8 9-16.4 23.2-48 8.9-60.3 54.1 7.9 1.5 2.2-3.7-3.9-5.5-5.9M676 338.8c6.5 11.8 12.9 23.7 19.7 35.3 1 1.8 2.2 3.5 3.7 5 23.1 23.2 87.6 27.7 119 17.2 44.3-14.7 85.6-59.4 85.8-107.8 0-8.3-.5-28.3-6.1-37.9-35.2-59.9-117.7-49.9-160.7-3.6-23.9 25.8-6.7 12.7-28.8 46-.9 1.3-3.2 1.7-4.6.9-1.7-.9-2.1-3.4-3.1-5"/><path fill="none" stroke="#010101" stroke-width="3" d="M700.3 281.3c-3.2 7.8-2.8 5.2-.9 19.2 3.6 26.6 17.8 2.8 31.8-.5.6-.2-.6 1.1-1.2 1.5-3.2 1.6-6.4 3.1-9.8 4.2-1.2.3-2.7.6-3.7 0-.9-.5-.9-2-1.3-3"/></symbol><symbol viewBox="0 0 500 500" id="assets_screen1"><g fill-rule="evenodd" clip-rule="evenodd" stroke="#FFF" stroke-width="4" stroke-miterlimit="10"><path d="M87.9 41.7h324.3v416.6H87.9z"/><path d="M109.3 68.4h149.2v193.8H109.3zM275.8 68.3h113.4M275.8 89.9h113.4M275.8 111.5h113.4M275.8 133.1h113.4M275.8 154.7h113.4M275.8 176.3h113.4M275.8 197.9h113.4M275.8 219.5h113.4M275.8 241.2h113.4M275.8 262.8h113.4M107.5 284.4h281.7M107.5 306h281.7M107.5 327.6h281.7M107.5 349.2h281.7M107.5 370.8h281.7M107.5 392.4h281.7M107.5 414h281.7M107.5 435.6h281.7"/></g></symbol><symbol viewBox="0 0 500 500" id="assets_screen2"><g fill-rule="evenodd" clip-rule="evenodd" stroke="#FFF" stroke-width="4" stroke-miterlimit="10"><path d="M87.9 41.7h324.3v416.6H87.9z"/><path d="M109.3 68.4h280.3v165.9H109.3z"/><circle cx="255.4" cy="348.1" r="58.8"/><path d="M237 321.3v54.8l46-29.2z"/></g></symbol><symbol viewBox="0 0 500 500" id="assets_screen3"><g fill-rule="evenodd" clip-rule="evenodd" stroke="#FFF" stroke-width="4" stroke-miterlimit="10"><path d="M87.9 41.7h324.3v416.6H87.9z"/><path d="M114.6 77.3H191v69.4h-76.4zM211.8 77.3h76.4v69.4h-76.4zM309 77.3h76.4v69.4H309zM114.6 169.3H191v69.4h-76.4zM211.8 169.3h76.4v69.4h-76.4zM309 169.3h76.4v69.4H309zM114.6 261.3H191v69.4h-76.4zM211.8 261.3h76.4v69.4h-76.4zM309 261.3h76.4v69.4H309zM114.6 353.3H191v69.4h-76.4zM211.8 353.3h76.4v69.4h-76.4zM309 353.3h76.4v69.4H309z"/></g></symbol><symbol viewBox="0 0 500 500" id="assets_thing1"><path fill-rule="evenodd" clip-rule="evenodd" stroke="#FFF" stroke-width="4" stroke-miterlimit="10" d="M95.7 330.7V153l153.9-88.8L403.5 153v177.7l-153.9 88.9z"/><path fill-rule="evenodd" clip-rule="evenodd" stroke="#FFF" stroke-width="4" stroke-miterlimit="10" d="M403.5 153.5l-153.9 88.9-153.9-88.9M249.6 242.4v177.2"/><path fill-rule="evenodd" clip-rule="evenodd" stroke="#FFF" stroke-width="4" stroke-miterlimit="10" d="M249 212.2L96.4 123.6 249 35.1l152.6 88.5z"/><g fill-rule="evenodd" clip-rule="evenodd" stroke="#FFF" stroke-width="4" stroke-miterlimit="10"><path d="M228.6 464.6L74 375.3V169.2l154.6 89.3z"/><path d="M179.6 335c0 19.2-11.7 28-26.1 19.7-14.4-8.3-26.1-30.6-26.1-49.8 0-19.2 11.7-28 26.1-19.7 14.4 8.3 26.1 30.6 26.1 49.8z"/><path d="M165.4 342.6c0 19.2-11.7 28-26.1 19.7-14.4-8.3-26.1-30.6-26.1-49.8 0-19.2 11.7-28 26.1-19.7s26.1 30.6 26.1 49.8z"/></g><g fill-rule="evenodd" clip-rule="evenodd" stroke="#FFF" stroke-width="4" stroke-miterlimit="10"><path d="M426 375.7l-154.6 89.2V258.8L426 169.5z"/><path d="M358.6 313.4c0 5.6-3.4 12.1-7.6 14.5s-7.6-.1-7.6-5.8 3.4-12.1 7.6-14.5 7.6.2 7.6 5.8zM365.6 328.8c-8.1 15.4-21.1 22.9-29.2 16.8M336.4 306.7c8.1-15.4 21.1-22.9 29.2-16.8M373.1 334.5c-12.2 23.4-32 34.8-44.3 25.6M328.8 301c12.2-23.4 32-34.8 44.3-25.6"/></g><path fill-rule="evenodd" clip-rule="evenodd" stroke="#FFF" stroke-width="4" stroke-miterlimit="10" d="M286.2 124.2c-.6-19.6-16.7-35.3-36.4-35.3-20.1 0-36.4 16.3-36.4 36.4 0 .7.1 1.4.3 2 .6 4.9 4.1 9.6 10.5 13.4 14.2 8.2 37.3 8.2 51.5 0 7.7-4.6 11.2-10.6 10.5-16.5zM209.2 69.4l15.4 21.8M243.9 61.6l2.9 23M276.2 67.7l-7.8 20.2"/></symbol></svg>