<?xml version="1.0" encoding="utf-8"?><!DOCTYPE svg PUBLIC "-//W3C//DTD SVG 1.1//EN" "http://www.w3.org/Graphics/SVG/1.1/DTD/svg11.dtd"><svg xmlns="http://www.w3.org/2000/svg" xmlns:xlink="http://www.w3.org/1999/xlink"><symbol viewBox="0 0 438.4 373.3" id="dive"><g fill="none" stroke="#010101" stroke-width="2" stroke-miterlimit="10"><path d="M67.5 45.2c-57.4 5.7-40 80.6 21.4 60.3 11.9-4 39-41.7 30-55-20-29.7-78.1-9.1-81.5 21.6M76.6 102.1c.3 52.5 4.9 100.6 2.6 153.2M80.6 112.9c50.9 77 23.9 74.1 60.6 21.3 4.8-6.8 11.7-11.9 16.6-18.7.5-.7-1.2-1.1-1.8-1.7"/><path d="M156.8 88.8c-.3 9.6-1.2 19.1-1 28.7.1 3.6.2 7.4 1.8 10.6.9 1.9.2-4.2.3-6.3M161.8 84.5l34.9-2.7M204.1 84.6c-.4 7.4-1 14.7-1.2 22.1 0 2.9-.2 6 .7 8.8.3 1 .8-1.9 1.2-2.8M170.8 122.6c6.9 0 32 7.3 30.6-4.8M157.1 87.9c17.2-20.1 8.3-12 25.7-25.3M208.9 69.8c-6 13.6-5.7 10.4 8.4-4.6M191.9 64.5h29M227.2 70.1c-.3 7.9-.6 15.7-.9 23.6M226.2 93.9l-14.7 22.3M101.6 52.7c-.1.5-.1 1-.2 1.5M82 113.4c34.1-15.9 44-37.3 60.4-12.5M324.7 29.7c-11.4 3.8-24.2 4.8-34.2 11.5-45.7 30.7 17.2 56.7 49.7 50.6 28.6-5.4 65.6-32.9 27.3-56.6-19.6-12.1-46.5-15.2-68.4-9.9M293.9 49.4c7.2-3.3 14.4-6.5 21.7-9.8M307.2 106.2c-18.1 40.3-9.5 17.8-24.4 68M323.3 103.6c49.5 102.1 52.8 137.2 47.9 94.3"/><path d="M329.9 115.2c-5.9 42.3 3 93.3-14.3 132.4-1.6 3.7-.8-8-1.2-12.1M314.4 235.5c-15.5 14.6-67.6 96.4-43.3 46.8"/><path d="M309 240.7c9.7 16.3 47 69 53.5 100.8.3 1.5-2.6 1.5-3.9 2.3M75.2 253.7L41.9 317M79.7 246.7c45.6 73.9 28.5 40.9 54.9 96.8"/></g></symbol><symbol viewBox="0 0 595.3 841.9" id="double_arrow"><g fill="none" stroke="#000" stroke-miterlimit="10"><path d="M76.2 273.3L295 491.8l218.7-219.1"/><path d="M76.2 350.7L295 569.2l218.7-219.1"/></g></symbol><symbol viewBox="0 0 971 655" id="process"><title>Group 3</title><path fill="none" stroke="#FDFF59" stroke-width="3" stroke-linecap="round" stroke-linejoin="round" d="M746.4 229.3c.3.6 26-15.9 26.4-15.2 1 1.8-74.7 63.3-73.4 65.5 2.1 3.6 137.6-82.9 139.1-80.3 2.1 3.6-153 105.4-150.3 110 2.6 4.5 174.7-107.2 177.4-102.4 2.5 4.4-185.7 122.7-182.4 128.5 3.4 5.8 208.5-128 211.8-122.3 3.3 5.8-208.8 137.5-206.1 142.2 3.8 6.6 212.2-129.1 215-124.2 3.6 6.2-211.5 137.3-208 143.4 4.1 7.1 231.3-139.9 234-135.1 3.4 5.9-233.1 149.3-229.2 156 3.4 5.9 233.5-141.3 236.3-136.4 3.5 6.1-236.3 151.5-233 157.2 2.9 5.1 241.1-146.2 244.1-140.9 3 5.2-237.7 152.8-234.2 158.7 3.9 6.8 245.4-149.9 248.9-143.7 3.4 5.9-233.6 151.7-230.7 156.7 3.1 5.3 236.4-145.5 240.3-138.8 3.9 6.7-228.7 146.5-224.7 153.3 3.1 5.3 217.1-134.2 220.9-127.6 3.3 5.8-217.1 139.5-213.5 145.8 2.9 5.1 219.7-134.5 223-128.7 2.6 4.4-186.2 123.1-183 128.7 2.8 4.8 173.1-105.9 175.7-101.4 1.9 3.4-152.8 106.4-150.8 109.9 2.3 4 128.3-78.7 130.3-75.2 1.2 2.2-81.9 66.8-80.4 69.5 1 1.7 55.1-34.2 56.1-32.4"/><g fill="none" stroke="#000" stroke-width="3" stroke-linecap="round" stroke-linejoin="round"><path d="M333.1 302c0 .1 2-1.2 2.1-1.2.1.2-5.1 7.3-5 7.5.1.1 4.4-2.7 4.5-2.6M317.3 301.5l1.2-.7c.1.1.4 4 .5 4.1 0 .1 2.5-1.5 2.6-1.5.1.1-1 4.7-1 4.8 0 .1 2.5-1.5 2.5-1.5.1.1-.7 5.3-.6 5.4 0 .1 2.5-1.5 2.5-1.4.1.1-.9 4.8-.8 4.9 0 .1 2.4-1.5 2.5-1.4.1.1-1.2 4.8-1.1 5 0 .1 3.7-2.3 3.8-2.2.1.2-3.8 6.5-3.7 6.6 0 .1 3-1.8 3-1.7M349 303.1c.1.1 3.4-2.1 3.5-2 .1.1.8 4 .9 4.1 0 .1 2.5-1.5 2.5-1.5.1.1-1.2 4.8-1.1 5 0 .1 2.6-1.6 2.7-1.5.1.1-2.6 5.4-2.5 5.5 0 .1 2.9-1.8 2.9-1.7.1.2-3.1 6.8-3 6.9 0 .1 3-1.8 3-1.8M342.2 303.7c.1.2 5.3-3.3 5.4-3.1.2.3-7.4 8.3-7.2 8.5 0 .1 3.3-2 3.3-1.9.1.2-3.6 6-3.5 6.2 0 .1 2.9-1.7 2.9-1.7.1.2-2.8 6.4-2.7 6.6 0 .1 2.7-1.7 2.8-1.6.1.1-1.9 5.3-1.8 5.4 0 .1 2.5-1.6 2.6-1.5.1.1-.1 4.3-.1 4.4 0 .1 2.8-1.7 2.8-1.6.1.1 2.3 3.1 2.3 3.1.1.2 7.5-4.5 7.6-4.4M376.7 301.7l1.5-.9c.1.1-1.6 5.4-1.5 5.5 0 .1 2.9-1.8 3-1.7.1.1-3.1 5.9-3 6 0 .1 2.9-1.8 3-1.7.1.2-3 5.7-3 5.8 0 .1 2.9-1.8 3-1.7.1.2-3.4 6.9-3.3 7.1.1.1 3.2-2 3.3-1.9M362.5 301.7l1.5-.9c.1.1-1.6 5.1-1.5 5.2 0 .1 2.9-1.8 3-1.7.1.2-3.1 5.8-3 5.9 0 .1 2.9-1.8 3-1.7.1.2-3.1 6.6-3 6.7 0 .1 2.9-1.8 3-1.7.1.1-2.9 5.8-2.8 6 0 .1 2.8-1.7 2.8-1.6.1.1-1.5 5-1.5 5.2 0 .1 2.5-1.5 2.5-1.5.1.1.6 4 .7 4.1 0 .1 3.5-2.1 3.5-2M389.8 303.6c.1.1 4.6-2.8 4.7-2.7.1.1 2.3 3.2 2.3 3.3 0 .1 2.7-1.7 2.7-1.6 0 .1-.8 4.6-.7 4.7 0 .1 2.7-1.6 2.7-1.6.2.3-10.2 9.6-10.1 9.9.1.2 10.1-6.2 10.3-5.9.1.2-3.8 7.1-3.7 7.3 0 .1 2.6-1.6 2.6-1.5.1.1-2.7 6.2-2.6 6.4 0 .1 2.9-1.8 2.9-1.7.1.1-2 5.6-2 5.8 0 .1 2-1.2 2-1.1M385.2 301.7l1.5-.9c.1.1-1.6 5.1-1.5 5.2 0 .1 2.9-1.7 2.9-1.7.1.2-3 5.7-2.9 5.9 0 .1 2.9-1.8 2.9-1.7.1.2-3 6.5-2.9 6.7.1.1 4.1-2.5 4.2-2.4.1.2-4.3 6.6-4.2 6.8 0 .1 2.9-1.8 2.9-1.7.1.1-3 5.9-2.9 6 0 .1 2.9-1.8 2.9-1.7"/><g><path d="M301.6 356.6c.1.1 4.6-2.8 4.7-2.7.1.1 2.3 3.2 2.3 3.3 0 .1 2.7-1.7 2.7-1.6 0 .1-.8 4.6-.7 4.7 0 .1 2.7-1.6 2.7-1.6.2.3-10.2 9.6-10.1 9.9.1.2 10.1-6.2 10.3-5.9M297.1 354.7l1.5-.9c.1.1-1.6 5.1-1.5 5.2 0 .1 2.9-1.7 2.9-1.7.1.2-3 5.7-2.9 5.9 0 .1 2.9-1.8 2.9-1.7.1.2-3 6.5-2.9 6.7.1.1 4.1-2.5 4.2-2.4.1.2-4.3 6.6-4.2 6.8 0 .1 2.9-1.8 2.9-1.7.1.1-3 5.9-2.9 6 0 .1 2.9-1.8 2.9-1.7M323.7 356.6c.1.1 4.6-2.8 4.7-2.7.1.1 2.3 3.2 2.3 3.3 0 .1 2.7-1.7 2.7-1.6 0 .1-.8 4.6-.7 4.7 0 .1 2.7-1.6 2.7-1.6.2.3-10.2 9.6-10.1 9.9.1.2 10.1-6.2 10.3-5.9.1.2-3.8 7.1-3.7 7.3 0 .1 2.6-1.6 2.6-1.5.1.1-2.7 6.2-2.6 6.4 0 .1 2.9-1.8 2.9-1.7.1.1-2 5.6-2 5.8 0 .1 2-1.2 2-1.1M319.1 354.7l1.5-.9c.1.1-1.6 5.1-1.5 5.2 0 .1 2.9-1.7 2.9-1.7.1.2-3 5.7-2.9 5.9 0 .1 2.9-1.8 2.9-1.7.1.2-3 6.5-2.9 6.7.1.1 4.1-2.5 4.2-2.4.1.2-4.3 6.6-4.2 6.8 0 .1 2.9-1.8 2.9-1.7.1.1-3 5.9-2.9 6 0 .1 2.9-1.8 2.9-1.7M349 356.1c.1.1 3.4-2.1 3.5-2 .1.1.8 4 .9 4.1 0 .1 2.5-1.5 2.5-1.5.1.1-1.2 4.8-1.1 5 0 .1 2.6-1.6 2.7-1.5.1.1-2.6 5.4-2.5 5.5 0 .1 2.9-1.8 2.9-1.7.1.2-3.1 6.8-3 6.9 0 .1 3-1.8 3-1.8M342.2 356.7c.1.2 5.3-3.3 5.4-3.1.2.3-7.4 8.3-7.2 8.5 0 .1 3.3-2 3.3-1.9.1.2-3.6 6-3.5 6.2 0 .1 2.9-1.7 2.9-1.7.1.2-2.8 6.4-2.7 6.6 0 .1 2.7-1.7 2.8-1.6.1.1-1.9 5.3-1.8 5.4 0 .1 2.5-1.6 2.6-1.5.1.1-.1 4.3-.1 4.4 0 .1 2.8-1.7 2.8-1.6.1.1 2.3 3.1 2.3 3.1.1.2 7.5-4.5 7.6-4.4M377 370.9s1.5-.9 1.6-.9M371.1 356.1c.1.1 3.6-2.2 3.7-2.1.1.1.8 4 .9 4.1 0 .1 2.5-1.5 2.6-1.5.1.1-1.3 4.9-1.3 5 0 .1 2.8-1.7 2.8-1.6"/><path d="M364.3 356.6c.1.2 5.3-3.3 5.4-3.1.2.3-7.4 8.3-7.2 8.5 0 .1 3.4-2 3.4-2 .1.2-3.6 6.1-3.5 6.3 0 .1 2.9-1.8 3-1.7.1.2-2.9 6.5-2.8 6.6 0 .1 2.8-1.7 2.8-1.6.1.1-1.9 5.3-1.8 5.5 0 .1 2.6-1.6 2.6-1.5.1.1-.2 4.3-.1 4.4 0 .1 2.8-1.7 2.9-1.7.1.1 2.2 3.1 2.2 3.2.1.2 7.8-4.7 7.9-4.6M390 367.8c.1.1 4.8-2.9 4.8-2.8.1.1 3.6 2.7 3.6 2.8 0 .1 2.1-1.3 2.1-1.2M390 356.6c.1.1 4.8-2.9 4.8-2.8.1.1 3.1 2.7 3.2 2.8 0 .1 2.7-1.7 2.7-1.6"/><path d="M385.5 354.7l1.5-.9c.1.1-1.6 5.1-1.5 5.2 0 .1 2.9-1.8 3-1.7.1.2-3.1 5.8-3 5.9 0 .1 2.9-1.8 3-1.7.1.2-3.1 6.6-3 6.7.1.2 5.6-3.4 5.7-3.3.1.2-5.9 7.5-5.7 7.7 0 .1 2.9-1.8 3-1.7.1.1-3.1 5.9-3 6 0 .1 2.9-1.8 3-1.7.1.1 1.2 3.6 1.3 3.7.1.1 4.8-2.9 4.8-2.8l2.8 2.8c.1.1 3.5-2.1 3.5-2M405.8 370.1l1.5-.9c.1.1-.7 5.1-.6 5.2 0 .1 2.5-1.6 2.6-1.5 0 .1-.3 4.4-.2 4.5 0 .1 2.7-1.6 2.7-1.6 0 .1 1.5 3.3 1.6 3.4.1.1 5.2-3.2 5.3-3.1M414.7 356.1c.1.1 3.9-2.4 4-2.3.1.1 1.1 3.8 1.2 3.9 0 .1 2.6-1.6 2.6-1.5.1.1-1.3 4.9-1.3 5 0 .1 2.8-1.7 2.8-1.6"/><path d="M407.8 356.7c.1.2 5.6-3.4 5.7-3.3.2.3-6.7 7.9-6.6 8.1 0 .1 2.8-1.7 2.9-1.7.1.1-1.3 4.8-1.2 4.9 0 .1 2.7-1.6 2.7-1.6.1.1 2 3.7 2.1 3.8.1.1 3.6-2.2 3.7-2.1 0 .1 1.7 3.3 1.7 3.4 0 .1 2.8-1.7 2.9-1.7.1.1-.6 4.5-.5 4.6 0 .1 2.7-1.7 2.7-1.6"/></g><g><path d="M350.7 423.1l1.5-.9c.1.1-.7 5.1-.6 5.2 0 .1 2.5-1.6 2.6-1.5 0 .1-.3 4.4-.2 4.5 0 .1 2.7-1.6 2.7-1.6 0 .1 1.5 3.3 1.6 3.4.1.1 5.2-3.2 5.3-3.1M359.6 409.1c.1.1 3.9-2.4 4-2.3.1.1 1.1 3.8 1.2 3.9 0 .1 2.6-1.6 2.6-1.5.1.1-1.3 4.9-1.3 5 0 .1 2.8-1.7 2.8-1.6"/><path d="M352.8 409.7c.1.2 5.6-3.4 5.7-3.3.2.3-6.7 7.9-6.6 8.1 0 .1 2.8-1.7 2.9-1.7.1.1-1.3 4.8-1.2 4.9 0 .1 2.7-1.6 2.7-1.6.1.1 2 3.7 2.1 3.8.1.1 3.6-2.2 3.7-2.1 0 .1 1.7 3.3 1.7 3.4 0 .1 2.8-1.7 2.9-1.7.1.1-.6 4.5-.5 4.6 0 .1 2.7-1.7 2.7-1.6"/></g></g><g fill="none" stroke="#000" stroke-linecap="round" stroke-linejoin="round"><path d="M805.6 311.7c.1.1 4.1-2.6 4.2-2.4 0 .1-1 2.5-.9 2.6.1.1 2.9-1.8 2.9-1.7 0 .1-1.4 2.5-1.3 2.6 0 .1 2.6-1.6 2.6-1.5 0 .1-1.6 2.7-1.6 2.7 0 .1 2.5-1.5 2.5-1.5 0 .1-1.7 3.3-1.7 3.4 0 .1 2.6-1.6 2.6-1.5.1.1-2.3 3.6-2.2 3.7 0 .1 2.7-1.7 2.8-1.6.1.1-2.8 4-2.7 4.1 0 .1 2.9-1.7 2.9-1.7 0 .1-3 3.6-2.9 3.6 0 .1 2.9-1.8 2.9-1.7.1.1-3 3.4-2.9 3.5 0 .1 2.9-1.7 2.9-1.7.1.1-3.4 4.6-3.3 4.8.1.1 3.1-1.9 3.2-1.8.1.2-4.8 4.7-4.7 4.9.1.1 4.4-2.7 4.5-2.6"/><path d="M801.2 311c0 .1 2.8-1.7 2.8-1.6.1.1-5 4.5-4.9 4.7.1.2 8.6-5.2 8.7-5 .1.2-9.6 8-9.4 8.3.1.1 3.3-2 3.4-2 .1.1-3.6 4.7-3.5 4.8 0 .1 2.9-1.8 3-1.7.1.1-3 4.5-3 4.5 0 .1 2.9-1.8 2.9-1.7.1.1-2.9 3.4-2.9 3.5 0 .1 2.9-1.7 2.9-1.7.1.1-2.8 3.8-2.7 4 0 .1 2.7-1.7 2.8-1.6.1.1-2.2 4-2.2 4.1 0 .1 2.6-1.6 2.6-1.5.1.1-1.6 3.5-1.5 3.6 0 .1 2.4-1.5 2.5-1.4 0 .1-1.1 2.9-1.1 2.9 0 .1 2.7-1.6 2.7-1.6 0 .1-.8 2.6-.7 2.7 0 .1 3.4-2.1 3.5-2 0 .1-1.1 2.5-1.1 2.6.1.2 8.9-5.5 9.1-5.2.1.2-5 4.7-4.9 4.9 0 .1 2.8-1.7 2.8-1.6M834.6 309.6l.5-.3-.5 2.3c.1.1 2.9-1.8 3-1.7.1.1-3 3.4-3 3.5 0 .1 2.9-1.8 3-1.7.1.1-3 3.5-3 3.5 0 .1 2.9-1.8 3-1.7.1.1-3.1 4.1-3 4.2 0 .1 2.9-1.8 3-1.7.1.1-3.1 4-3 4.2 0 .1 2.9-1.8 3-1.7.1.1-3 4.2-3 4.3 0 .1 2.9-1.8 3-1.7 0 .1-3 3.6-3 3.7 0 .1 2.9-1.8 3-1.7.1.1-3.1 3.4-3 3.5 0 .1 3-1.8 3-1.7.1.2-4.1 5-4 5.2.1.1 3.8-2.3 3.8-2.2"/><path d="M820.4 309.6l.5-.3-.5 2.1c0 .1 2.9-1.8 3-1.7.1.1-3 4.5-3 4.6.1.1 2.9-1.8 3-1.7.1.1-3 4.3-3 4.5 0 .1 2.9-1.8 3-1.7.1.1-3 4.4-3 4.5 0 .1 2.9-1.8 3-1.7.1.1-3 3.5-3 3.6 0 .1 2.9-1.8 3-1.7.1.1-3 4-3 4.1.1.1 2.9-1.8 3-1.7.1.1-2.9 4.4-2.9 4.5 0 .1 2.8-1.7 2.9-1.7.1.1-2.5 4-2.5 4.1 0 .1 2.6-1.6 2.6-1.5.1.1-1.9 3.3-1.8 3.4 0 .1 2.5-1.5 2.6-1.5 0 .1-1.4 3-1.3 3 0 .1 2.6-1.6 2.7-1.6 0 .1-1.2 2.6-1.2 2.6 0 .1 3.1-1.9 3.2-1.8 0 .1.2 2.7.2 2.8.1.2 9.2-5.6 9.4-5.4.1.2-5.5 5.1-5.4 5.2.1.1 3.7-2.3 3.8-2.2M846.7 312.1c.1.1 4.6-2.8 4.7-2.7 0 .1-.7 2.6-.7 2.7.1.1 4-2.4 4-2.3 0 .1-1.2 2.5-1.1 2.5 0 .1 3-1.8 3.1-1.8 0 .1-1.2 2.6-1.1 2.7 0 .1 2.5-1.5 2.6-1.5 0 .1-1.6 2.9-1.6 3 0 .1 2.5-1.5 2.6-1.5 0 .1-2.3 3.1-2.3 3.2 0 .1 2.7-1.7 2.8-1.6.1.1-3.6 4.7-3.5 4.8.1.1 3.6-2.2 3.6-2.1"/><path d="M846.5 324.1c.1.1 4.7-2.9 4.8-2.7 0 .1-1.2 2.6-1.2 2.7.2.3 9.2-5.7 9.4-5.4.1.2-6.3 5.2-6.2 5.4.1.1 3.2-2 3.3-1.9 0 .1-1.1 2.4-1 2.4 0 .1 2.3-1.4 2.4-1.4 0 .1-2 3.5-1.9 3.6 0 .1 2.8-1.7 2.9-1.7.1.1-2.9 4-2.9 4.1 0 .1 2.9-1.8 2.9-1.7.1.1-3 4.1-2.9 4.3 0 .1 2.9-1.8 2.9-1.7 0 .1-3 3.6-2.9 3.7 0 .1 2.9-1.8 2.9-1.7 0 .1-.9 2.3-.9 2.3l.9-.5"/><path d="M843.1 309.7l.5-.3-.5 2.1c0 .1 3.6-2.2 3.6-2.1.1.1-3.7 4.8-3.6 5 0 .1 2.9-1.8 2.9-1.7.1.1-3 4.3-2.9 4.4 0 .1 2.9-1.8 2.9-1.7.1.1-3 4.4-2.9 4.5 0 .1 2.9-1.8 2.9-1.7.1.1-3 3.5-2.9 3.5 0 .1 2.9-1.8 3-1.7.1.1-3 4-3 4.1.1.1 4.7-2.9 4.8-2.8.1.1-4.9 5.5-4.8 5.6 0 .1 2.9-1.8 2.9-1.7.1.1-3 4.3-2.9 4.4 0 .1 2.9-1.8 2.9-1.7.1.1-3 3.9-2.9 4 0 .1 2.9-1.8 2.9-1.7.1.1-3 3.8-2.9 4 0 .1 2.9-1.8 3-1.7"/><g><path d="M769.6 365.1c.1.1 4.6-2.8 4.7-2.7 0 .1-.7 2.6-.7 2.7.1.1 4-2.4 4-2.3 0 .1-1.2 2.5-1.1 2.5 0 .1 3-1.8 3.1-1.8 0 .1-1.2 2.6-1.1 2.7 0 .1 2.5-1.5 2.6-1.5 0 .1-1.6 2.9-1.6 3 0 .1 2.5-1.5 2.6-1.5 0 .1-2.3 3.1-2.3 3.2 0 .1 2.7-1.7 2.8-1.6.1.1-3.6 4.7-3.5 4.8.1.1 3.6-2.2 3.6-2.1"/><path d="M769.4 377.1c.1.1 4.7-2.9 4.8-2.7 0 .1-1.2 2.6-1.1 2.7.2.3 9.3-5.7 9.4-5.4.1.2-6.2 5.1-6.1 5.3.1.1 5.1-3.1 5.1-3"/><path d="M766 362.7l.5-.3-.5 2.1c0 .1 3.6-2.2 3.6-2.1.1.1-3.7 4.8-3.6 5 0 .1 2.9-1.7 2.9-1.7.1.1-3 4.3-2.9 4.4 0 .1 2.9-1.8 2.9-1.7.1.1-3 4.4-2.9 4.5 0 .1 2.9-1.8 2.9-1.7.1.1-3 3.5-2.9 3.5 0 .1 2.9-1.8 3-1.7.1.1-3 4-3 4.1.1.1 4.7-2.9 4.8-2.8.1.1-4.9 5.5-4.8 5.6 0 .1 2.9-1.8 2.9-1.7.1.1-3 4.3-2.9 4.4 0 .1 2.9-1.8 2.9-1.7.1.1-3 3.9-2.9 4 0 .1 2.9-1.8 2.9-1.7.1.1-3 3.8-2.9 4 0 .1 2.9-1.8 3-1.7M791.6 365.1c.1.1 4.6-2.8 4.7-2.7 0 .1-.7 2.6-.7 2.7.1.1 4-2.4 4-2.3 0 .1-1.2 2.5-1.1 2.5 0 .1 3-1.8 3.1-1.8 0 .1-1.2 2.6-1.1 2.7 0 .1 2.5-1.5 2.6-1.5 0 .1-1.6 2.9-1.6 3 0 .1 2.5-1.5 2.6-1.5 0 .1-2.3 3.1-2.3 3.2 0 .1 2.7-1.7 2.8-1.6.1.1-3.6 4.7-3.5 4.8.1.1 3.6-2.2 3.6-2.1"/><path d="M791.5 377.1c.1.1 4.7-2.9 4.8-2.7 0 .1-1.2 2.6-1.2 2.7.2.3 9.2-5.7 9.4-5.4.1.2-6.3 5.2-6.2 5.4.1.1 3.2-2 3.3-1.9 0 .1-1.1 2.4-1 2.4 0 .1 2.3-1.4 2.4-1.4 0 .1-2 3.5-1.9 3.6 0 .1 2.8-1.7 2.9-1.7.1.1-2.9 4-2.9 4.1 0 .1 2.9-1.8 2.9-1.7.1.1-3 4.1-2.9 4.3 0 .1 2.9-1.8 2.9-1.7 0 .1-3 3.6-2.9 3.7 0 .1 2.9-1.8 2.9-1.7 0 .1-.9 2.3-.9 2.3l.9-.5"/><path d="M788.1 362.7l.5-.3-.5 2.1c0 .1 3.6-2.2 3.6-2.1.1.1-3.7 4.8-3.6 5 0 .1 2.9-1.7 2.9-1.7.1.1-3 4.3-2.9 4.4 0 .1 2.9-1.8 2.9-1.7.1.1-3 4.4-2.9 4.5 0 .1 2.9-1.8 2.9-1.7.1.1-3 3.5-2.9 3.5 0 .1 2.9-1.8 3-1.7.1.1-3 4-3 4.1.1.1 4.7-2.9 4.8-2.8.1.1-4.9 5.5-4.8 5.6 0 .1 2.9-1.8 2.9-1.7.1.1-3 4.3-2.9 4.4 0 .1 2.9-1.8 2.9-1.7.1.1-3 3.9-2.9 4 0 .1 2.9-1.8 2.9-1.7.1.1-3 3.8-2.9 4 0 .1 2.9-1.8 3-1.7M816.7 364.7c.1.1 4.1-2.6 4.2-2.4 0 .1-1 2.5-.9 2.6.1.1 2.9-1.8 2.9-1.7 0 .1-1.4 2.5-1.4 2.6 0 .1 2.6-1.6 2.6-1.5 0 .1-1.6 2.7-1.6 2.7 0 .1 2.5-1.5 2.5-1.5 0 .1-1.7 3.3-1.7 3.4 0 .1 2.6-1.6 2.6-1.5.1.1-2.3 3.6-2.2 3.7 0 .1 2.7-1.7 2.8-1.6.1.1-2.8 4-2.7 4.1 0 .1 2.9-1.7 2.9-1.7 0 .1-3 3.6-2.9 3.6 0 .1 2.9-1.8 2.9-1.7.1.1-3 3.4-2.9 3.5 0 .1 2.9-1.7 2.9-1.7.1.1-3.4 4.6-3.3 4.8.1.1 3.1-1.9 3.2-1.8.1.2-4.8 4.7-4.7 4.9.1.1 4.4-2.7 4.5-2.6"/><path d="M812.2 364c0 .1 2.8-1.7 2.8-1.6.1.1-5 4.5-5 4.7.1.2 8.6-5.2 8.7-5 .1.2-9.6 8-9.4 8.3.1.1 3.3-2 3.4-2 .1.1-3.6 4.7-3.5 4.8 0 .1 2.9-1.8 3-1.7.1.1-3 4.5-3 4.5 0 .1 2.9-1.8 2.9-1.7.1.1-2.9 3.4-2.9 3.5 0 .1 2.9-1.7 2.9-1.7.1.1-2.8 3.8-2.7 4 0 .1 2.7-1.7 2.8-1.6.1.1-2.2 4-2.2 4.1 0 .1 2.6-1.6 2.6-1.5.1.1-1.6 3.5-1.5 3.6 0 .1 2.4-1.5 2.5-1.4 0 .1-1.1 2.9-1.1 2.9 0 .1 2.7-1.6 2.7-1.6 0 .1-.8 2.6-.7 2.7 0 .1 3.4-2.1 3.5-2 0 .1-1.1 2.5-1.1 2.6.1.2 8.9-5.5 9.1-5.2.1.2-5 4.7-4.9 4.9 0 .1 2.8-1.7 2.8-1.6M846 378.7l.5-.3c0 .1-.9 2.7-.8 2.8.1.1 3.2-2 3.3-1.9M838.7 364.8c.1.1 4.3-2.6 4.3-2.5 0 .1-1 2.5-1 2.6.1.1 2.9-1.8 3-1.7 0 .1-1.4 2.5-1.3 2.6 0 .1 2.6-1.6 2.6-1.5 0 .1-1.6 2.7-1.6 2.7 0 .1 2.5-1.6 2.6-1.5 0 .1-1.8 3.4-1.7 3.5 0 .1 2.7-1.6 2.7-1.6.1.1-2.4 3.7-2.4 3.8 0 .1 2.8-1.7 2.9-1.6"/><path d="M834.4 363.9c0 .1 2.8-1.7 2.8-1.6.1.1-5 4.5-5 4.7.1.2 8.6-5.2 8.7-5 .1.2-9.7 8-9.5 8.4.1.1 3.4-2.1 3.5-2 .1.1-3.7 4.7-3.6 4.8 0 .1 3-1.8 3-1.8.1.1-3.1 4.5-3 4.6 0 .1 2.9-1.8 3-1.7.1.1-3 3.5-3 3.6 0 .1 2.9-1.8 3-1.7.1.1-2.8 3.9-2.8 4 0 .1 2.8-1.7 2.8-1.6.1.1-2.3 4-2.2 4.1 0 .1 2.6-1.6 2.6-1.5.1.1-1.6 3.5-1.6 3.6 0 .1 2.5-1.5 2.5-1.5 0 .1-1.2 2.9-1.1 3 0 .1 2.7-1.7 2.8-1.6 0 .1-.8 2.7-.8 2.7 0 .1 3.5-2.2 3.6-2.1 0 .1-1.2 2.6-1.2 2.6.1.2 9.3-5.7 9.4-5.4.1.2-5.4 5-5.3 5.1 0 .1 3.3-2 3.3-1.9M857.9 376.3c.1.1 4.8-2.9 4.8-2.8 0 .1-.9 2.7-.8 2.8.1.1 4.8-2.9 4.8-2.8 0 .1-1.6 2.7-1.6 2.8.1.1 4.2-2.5 4.3-2.5 0 0-.7 2.4-.7 2.5l.7-.4M857.9 365.1c.1.1 4.8-2.9 4.8-2.8 0 .1-1.3 2.7-1.3 2.8.1.1 4.8-2.9 4.8-2.8 0 .1-1.7 2.7-1.7 2.8.1.1 4.8-2.9 4.8-2.8 0 .1-1.7 2.7-1.7 2.8l1.9-1.1"/><path d="M854.4 362.6l.5-.3-.5 2.1c0 .1 3.6-2.2 3.6-2.1.1.1-3.7 4.8-3.6 5 .1.1 2.9-1.8 3-1.7.1.1-3 4.3-3 4.5 0 .1 2.9-1.8 3-1.7.1.1-3 4.5-3 4.5 0 .1 2.9-1.8 3-1.7.1.1-3 3.5-3 3.6 0 .1 2.9-1.8 3-1.7.1.1-3.1 4-3 4.1.1.2 6.2-3.8 6.3-3.6.1.2-6.4 6.3-6.3 6.5 0 .1 2.9-1.8 3-1.7.1.1-3 4.3-3 4.4 0 .1 2.9-1.8 3-1.7.1.1-3.1 3.9-3 4 .1.1 2.9-1.8 3-1.7.1.1-3.1 3.9-3 4 .1.1 4.3-2.7 4.4-2.5 0 .1-1.5 2.7-1.4 2.8.1.1 4.7-2.9 4.8-2.8 0 .1.1 2.7.2 2.8.1.1 4.8-2.9 4.8-2.8 0 .1-1.2 2.7-1.2 2.8.1.1 3.8-2.3 3.8-2.2l-.5 2.2.5-.3M874.7 378l.5-.3c0 .1-.4 2.4-.4 2.5 0 .1 2.8-1.7 2.8-1.6.1.1-2.5 3.2-2.5 3.3 0 .1 2.6-1.6 2.6-1.5 0 .1-2 3.1-1.9 3.2 0 .1 2.5-1.5 2.5-1.4 0 .1-1.5 2.9-1.4 2.9 0 .1 2.5-1.5 2.5-1.5 0 .1-1.3 2.5-1.2 2.6 0 .1 2.7-1.7 2.8-1.6 0 .1-.2 2.8-.2 2.9.1.1 3.8-2.3 3.8-2.2 0 .1-.9 2.6-.8 2.7.1.2 8.9-5.5 9-5.2.1.1-4.9 4.6-4.8 4.8 0 .1 3.1-1.9 3.2-1.8M882.3 364.8c.1.1 4.5-2.8 4.6-2.6 0 .1-1.1 2.6-1 2.7.1.1 3.2-1.9 3.2-1.9 0 .1-1.4 2.5-1.4 2.6 0 .1 2.8-1.7 2.8-1.6 0 .1-1.5 2.6-1.5 2.7 0 .1 2.6-1.6 2.6-1.5 0 .1-1.7 3.3-1.7 3.4 0 .1 2.6-1.6 2.7-1.5.1.1-2.5 3.7-2.5 3.9 0 .1 2.8-1.7 2.9-1.7"/><path d="M877.7 364.1c0 .1 3.2-2 3.2-1.9.1.1-4.9 4.5-4.9 4.6.1.2 8.6-5.2 8.7-5 .1.2-9 7.7-8.8 8 .1.1 2.9-1.8 2.9-1.7.1.1-2.2 3.9-2.2 4 0 .1 2.6-1.6 2.6-1.5 0 .1-.9 3.3-.8 3.3 0 .1 2.9-1.8 2.9-1.7 0 .1-1.3 2.5-1.3 2.6 0 .1 3.3-2 3.3-1.9 0 .1-.6 2.7-.6 2.7.1.1 3.6-2.2 3.7-2.1v2.9c0 .1 3.1-1.9 3.2-1.8 0 .1-.7 3-.6 3.1 0 .1 2.6-1.6 2.7-1.5.1.1-1.7 3.2-1.6 3.2 0 .1 2.6-1.6 2.6-1.5.1.1-2.7 3.7-2.6 3.8 0 .1 3-1.8 3-1.7"/></g><g><path d="M819.6 431l.5-.3c0 .1-.4 2.4-.4 2.5 0 .1 2.8-1.7 2.8-1.6.1.1-2.5 3.2-2.5 3.3 0 .1 2.6-1.6 2.6-1.5 0 .1-2 3.1-1.9 3.2 0 .1 2.5-1.5 2.5-1.4 0 .1-1.5 2.9-1.4 2.9 0 .1 2.5-1.5 2.5-1.5 0 .1-1.3 2.5-1.2 2.6 0 .1 2.7-1.7 2.8-1.6 0 .1-.2 2.8-.2 2.9.1.1 3.8-2.3 3.8-2.2 0 .1-.9 2.6-.8 2.7.1.2 8.9-5.5 9-5.2.1.1-4.9 4.6-4.8 4.8 0 .1 3.1-1.9 3.2-1.8M827.2 417.8c.1.1 4.5-2.8 4.6-2.6 0 .1-1.1 2.6-1 2.7.1.1 3.2-1.9 3.2-1.9 0 .1-1.4 2.5-1.4 2.6 0 .1 2.8-1.7 2.8-1.6 0 .1-1.5 2.6-1.5 2.7 0 .1 2.6-1.6 2.6-1.5 0 .1-1.7 3.3-1.7 3.4 0 .1 2.6-1.6 2.7-1.5.1.1-2.5 3.7-2.5 3.9 0 .1 2.8-1.7 2.9-1.7"/><path d="M822.6 417.1c0 .1 3.2-2 3.2-1.9.1.1-4.9 4.5-4.9 4.6.1.2 8.6-5.2 8.7-5 .1.2-9 7.7-8.8 8 .1.1 2.9-1.8 2.9-1.7.1.1-2.2 3.9-2.2 4 0 .1 2.6-1.6 2.6-1.5 0 .1-.9 3.3-.8 3.3 0 .1 2.9-1.8 2.9-1.7 0 .1-1.3 2.5-1.3 2.6 0 .1 3.3-2 3.3-1.9 0 .1-.6 2.7-.6 2.7.1.1 3.6-2.2 3.7-2.1v2.9c0 .1 3.1-1.9 3.2-1.8 0 .1-.7 3-.6 3.1 0 .1 2.6-1.6 2.7-1.5.1.1-1.7 3.2-1.6 3.2 0 .1 2.6-1.6 2.6-1.5.1.1-2.7 3.7-2.6 3.8 0 .1 3-1.8 3-1.7"/></g></g><path fill="none" stroke="#000" stroke-width="3" d="M26.5 263.3c17.1-37 33.1-74.5 51.4-110.9 2.6-5.2 6.7-9.8 11.1-13.6 38.2-33.1 76.6-66.1 116.6-97.1 7.9-6.1 16.9-11 26.5-13.7 30.9-8.8 62.2-17 94.2-20.8 25-3 68.5 8.5 90.5 19 68.2 32.6 127 90.7 173.1 149.8 34.3 44 63.6 88.2 86.7 139.1 8.3 18.4 13.5 41.8 17.2 61.4 2.1 11.1 3.2 22.4 5.1 33.6.3 1.7.4 3.8 1.7 4.9 1.1 1 3.1.9 4.4.3 1.9-1 4.2-2.6 4.4-4.7.2-1.3-2.5-.6-3.7-.8M672.2 434.5c-10.8 21-20.8 42.4-32.3 63.1-26 46.9-113.7 91.8-159.7 112.5-38.1 17.1-88 25.8-128.1 32.9-37.2 6.5-81.4 13.6-119.3 8.3C145.3 639.2 76.3 558.8 55.3 477c-16.4-63.8-34.1-122.1-17.2-185.3M138.3 74.7c.2 6.5 0 13.1.7 19.6 0 .4 1.4.2 1.2-.1l2.4-15.5c-4.4-8.5-10.5 6.2-9.3 8 9.2 13.5 11.8-12.8 11.2-14.7-.3-.9-8.8 6.4-2.8 6.4"/><path fill="none" stroke="#000" stroke-width="3" d="M383.5 2.9c-5.3.2-11.8-2.6-15.9.7-3.9 3-7.4 11.6-3.3 14.4 5.5 3.8 25.7.6 20-2.9l.7-1.8c-10.1-6.2-11.1-7.3-16.5 1.9-.6 1-1.1 2.5-.6 3.6 3.6 7.2 17.5 1.9 15.5-5.7C381.2 5 365 22.2 370.5 25c.6.3 16.5-6.6.1-6M575 172.3c-3.4 1.5-7.1 2.6-10.3 4.6-.5.3-.6 1.7 0 1.7l11.2 2.8c5.2-.6 15.2-15 9.6-19.1-5.2-3.8-18.6 8.8-13.7 11.8 6.5 4 16.3-2.6 17.6-9.2.2-.8-.1-2.4-1-2.4-4.9.3-13.7 13-4.3 12.5 9.2-.5-.3-14.6-7.6-4.2M686.3 344.6c.5 4.1-2.1 14.1 1.5 12.2 6.5-3.5 15.7-13.3 11.1-19-7.4-9.1-42.3 36.2-6.2 11.1 2.9-2 5-5.3 6.5-8.5.8-1.7 1.4-4.1.3-5.5-5.7-7.5-19.3 12.5-16.9 15.9 1.6 2.3 10.7-3.1 8-2.2l1.9-3.7c-6.4 2-4.2 4.3-2.8 7.4M634.8 478.5c-1 10-5.5 20.3-2.9 30 1 3.8 6.3-4.6 9-7.5 3.3-3.5-9.7-4.4-14.8 5.3-.9 1.6-2 4-.8 5.4 10.1 11.6 18-22.7 5.5-8.2-3.6 4.2-6.6 8.9-9.8 13.3M372.7 634.4c0 .3-.8 28.6 4.7 5.3.7-3.1-13.5-3.3-14.8 2.5-2.8 12 26.3-10.5 3.6-9.8-3.4.1-13.1 9.7-6.2 11.6 1.5.4 18.7-3.9-4.2-.1M61.4 454.5c-1.5.9-5.2 4.5-4.6 2.8l5.1 2.1c.2-.6 3.4-21.2-6.9-19.4-.6.1-27.5 16-11.5 20.1 8.2 2.1 13.7-13.6 7.5-17.6-6.1-3.9-11.2 8-10 12.3 2.3 8.6 13.3-.4 4.6-2.2-2.5-.5-5.2-.2-7.8-.3M2 352.1c3.5-6.4 7.4-12.6 10.5-19.1 27-55.8 10.3-70 62.8 9.2 1.7 2.6-4.3-4.5-6.4-6.8M694.5 372.6c7.6 13.7 15 27.5 22.9 41 1.2 2.1 2.6 4.1 4.3 5.8 26.8 26.9 101.7 32.2 138.2 20 51.4-17.1 99.4-69 99.6-125.2 0-9.6-.6-32.9-7.1-44-40.9-69.6-136.7-58-186.6-4.2-27.8 30-7.8 14.7-33.4 53.4-1 1.5-3.7 2-5.3 1.1-2-1.1-2.4-3.9-3.6-5.8"/><path fill="none" stroke="#000" stroke-width="3" d="M722.7 305.8c-3.7 9.1-3.2 6-1 22.3 4.2 30.9 20.7 3.2 36.9-.6.7-.2-.7 1.3-1.4 1.7-3.7 1.9-7.4 3.6-11.4 4.9-1.4.4-3.1.7-4.3 0-1.1-.6-1-2.3-1.5-3.5"/></symbol><symbol viewBox="0 0 500 500" id="screen_1"><g fill-rule="evenodd" clip-rule="evenodd" fill="#FFF" stroke="#000" stroke-width="4" stroke-miterlimit="10"><path d="M87.9 41.7h324.3v416.6H87.9z"/><path d="M109.3 68.4h149.2v193.8H109.3zM275.8 68.3h113.4M275.8 89.9h113.4M275.8 111.5h113.4M275.8 133.1h113.4M275.8 154.7h113.4M275.8 176.3h113.4M275.8 197.9h113.4M275.8 219.5h113.4M275.8 241.2h113.4M275.8 262.8h113.4M107.5 284.4h281.7M107.5 306h281.7M107.5 327.6h281.7M107.5 349.2h281.7M107.5 370.8h281.7M107.5 392.4h281.7M107.5 414h281.7M107.5 435.6h281.7"/></g></symbol><symbol viewBox="0 0 500 500" id="screen_2"><g fill-rule="evenodd" clip-rule="evenodd" fill="#FFF" stroke="#000" stroke-width="4" stroke-miterlimit="10"><path d="M87.9 41.7h324.3v416.6H87.9z"/><path d="M109.3 68.4h280.3v165.9H109.3z"/><circle cx="255.4" cy="348.1" r="58.8"/><path d="M237 321.3v54.8l46-29.2z"/></g></symbol><symbol viewBox="0 0 500 500" id="screen_3"><g fill-rule="evenodd" clip-rule="evenodd" fill="#FFF" stroke="#000" stroke-width="4" stroke-miterlimit="10"><path d="M87.9 41.7h324.3v416.6H87.9z"/><path d="M114.6 77.3H191v69.4h-76.4zM211.8 77.3h76.4v69.4h-76.4zM309 77.3h76.4v69.4H309zM114.6 169.3H191v69.4h-76.4zM211.8 169.3h76.4v69.4h-76.4zM309 169.3h76.4v69.4H309zM114.6 261.3H191v69.4h-76.4zM211.8 261.3h76.4v69.4h-76.4zM309 261.3h76.4v69.4H309zM114.6 353.3H191v69.4h-76.4zM211.8 353.3h76.4v69.4h-76.4zM309 353.3h76.4v69.4H309z"/></g></symbol><symbol viewBox="0 0 500 500" id="thing"><path fill-rule="evenodd" clip-rule="evenodd" fill="#FFF" stroke="#000" stroke-width="4" stroke-miterlimit="10" d="M95.7 330.7V153l153.9-88.8L403.5 153v177.7l-153.9 88.9z"/><path fill-rule="evenodd" clip-rule="evenodd" fill="#FFF" stroke="#000" stroke-width="4" stroke-miterlimit="10" d="M403.5 153.5l-153.9 88.9-153.9-88.9M249.6 242.4v177.2"/><path fill-rule="evenodd" clip-rule="evenodd" fill="#FFF" stroke="#000" stroke-width="4" stroke-miterlimit="10" d="M249 212.2L96.4 123.6 249 35.1l152.6 88.5z"/><g fill-rule="evenodd" clip-rule="evenodd" fill="#FFF" stroke="#000" stroke-width="4" stroke-miterlimit="10"><path d="M228.6 464.6L74 375.3V169.2l154.6 89.3z"/><path d="M179.6 335c0 19.2-11.7 28-26.1 19.7-14.4-8.3-26.1-30.6-26.1-49.8 0-19.2 11.7-28 26.1-19.7 14.4 8.3 26.1 30.6 26.1 49.8z"/><path d="M165.4 342.6c0 19.2-11.7 28-26.1 19.7-14.4-8.3-26.1-30.6-26.1-49.8 0-19.2 11.7-28 26.1-19.7s26.1 30.6 26.1 49.8z"/></g><g fill-rule="evenodd" clip-rule="evenodd" fill="#FFF" stroke="#000" stroke-width="4" stroke-miterlimit="10"><path d="M426 375.7l-154.6 89.2V258.8L426 169.5z"/><path d="M358.6 313.4c0 5.6-3.4 12.1-7.6 14.5s-7.6-.1-7.6-5.8 3.4-12.1 7.6-14.5 7.6.2 7.6 5.8zM365.6 328.8c-8.1 15.4-21.1 22.9-29.2 16.8M336.4 306.7c8.1-15.4 21.1-22.9 29.2-16.8M373.1 334.5c-12.2 23.4-32 34.8-44.3 25.6M328.8 301c12.2-23.4 32-34.8 44.3-25.6"/></g><path fill-rule="evenodd" clip-rule="evenodd" fill="#FFF" stroke="#000" stroke-width="4" stroke-miterlimit="10" d="M286.2 124.2c-.6-19.6-16.7-35.3-36.4-35.3-20.1 0-36.4 16.3-36.4 36.4 0 .7.1 1.4.3 2 .6 4.9 4.1 9.6 10.5 13.4 14.2 8.2 37.3 8.2 51.5 0 7.7-4.6 11.2-10.6 10.5-16.5zM209.2 69.4l15.4 21.8M243.9 61.6l2.9 23M276.2 67.7l-7.8 20.2"/></symbol></svg>