<?xml version="1.0" encoding="utf-8"?><!DOCTYPE svg PUBLIC "-//W3C//DTD SVG 1.1//EN" "http://www.w3.org/Graphics/SVG/1.1/DTD/svg11.dtd"><svg xmlns="http://www.w3.org/2000/svg" xmlns:xlink="http://www.w3.org/1999/xlink"><symbol viewBox="0 0 595.3 841.9" id="double_arrow"><g fill="none" stroke="#000" stroke-miterlimit="10"><path d="M76.2 273.3L295 491.8l218.7-219.1"/><path d="M76.2 350.7L295 569.2l218.7-219.1"/></g></symbol><symbol viewBox="0 0 971 655" id="process"><title>Group 3</title><g transform="translate(2 2)" fill="none" fill-rule="evenodd"><ellipse fill="#FDFF59" cx="825.186" cy="345.2" rx="143.018" ry="143.278"/><g transform="translate(284.944 284.012)" font-size="36" font-family="SpaceMono-Regular, Space Mono" fill="#000"><text><tspan x="29.059" y="40">YOUR </tspan> <tspan x="7.027" y="93">PROCES</tspan> <tspan x="62.107" y="146">S</tspan></text><text><tspan x="509.007" y="48.492">OUR </tspan> <tspan x="475.959" y="101.492">PROCES</tspan> <tspan x="531.039" y="154.492">S</tspan></text></g><path d="M24.532 261.31c17.146-36.978 33.146-74.51 51.439-110.935 2.623-5.225 6.675-9.757 11.093-13.586 38.225-33.12 76.628-66.106 116.62-97.07 7.862-6.088 16.925-10.993 26.485-13.73 30.9-8.843 62.232-17.034 94.151-20.798 25.022-2.952 68.514 8.462 90.545 18.999 68.184 32.61 127.048 90.663 173.053 149.762 34.261 44.013 63.632 88.17 86.664 139.08 8.326 18.405 13.537 41.787 17.192 61.433 2.07 11.124 3.161 22.414 5.133 33.556.298 1.684.355 3.752 1.663 4.853 1.133.954 3.11.943 4.435.28 1.93-.965 4.168-2.574 4.435-4.715.158-1.269-2.496-.557-3.744-.835M670.217 432.503c-10.77 21.031-20.84 42.437-32.31 63.095-26.049 46.91-113.733 91.835-159.736 112.456-38.081 17.07-87.982 25.794-128.124 32.866-37.173 6.548-81.405 13.564-119.254 8.322-87.51-12.122-156.483-92.54-177.489-174.306-16.402-63.846-34.118-122.082-17.192-185.263M136.31 72.679c.23 6.518.044 13.064.692 19.553.041.416 1.439.234 1.246-.137l2.36-15.53c-4.425-8.486-10.542 6.217-9.293 8.043 9.207 13.462 11.786-12.848 11.23-14.701-.281-.94-8.815 6.379-2.771 6.379" stroke="#000" stroke-width="3"/><path d="M381.507.91c-5.315.23-11.76-2.592-15.946.69-3.882 3.045-7.383 11.615-3.326 14.421 5.53 3.827 25.696.608 19.963-2.909l.698-1.806c-10.103-6.2-11.08-7.261-16.5 1.943-.618 1.048-1.098 2.519-.555 3.607 3.583 7.172 17.545 1.866 15.529-5.687-2.163-8.105-18.383 9.102-12.894 11.929.622.32 16.49-6.642.137-5.968M572.991 170.297c-3.422 1.524-7.064 2.627-10.265 4.572-.474.288-.551 1.725 0 1.663l11.23 2.778c5.229-.584 15.227-15.002 9.568-19.136-5.22-3.813-18.62 8.78-13.722 11.786 6.496 3.988 16.342-2.577 17.61-9.157.16-.834-.126-2.413-.973-2.355-4.878.334-13.652 12.978-4.298 12.484 9.218-.487-.35-14.628-7.624-4.161M684.3 342.559c.508 4.068-2.084 14.146 1.525 12.203 6.457-3.477 15.705-13.296 11.094-19-7.354-9.096-42.33 36.19-6.241 11.095 2.922-2.032 4.961-5.257 6.515-8.46.808-1.664 1.4-4.07.28-5.543-5.698-7.492-19.307 12.542-16.917 15.947 1.597 2.276 10.694-3.059 8.041-2.224l1.944-3.744c-6.426 2.022-4.225 4.308-2.772 7.35M632.818 476.498c-.97 9.983-5.54 20.27-2.909 29.95 1.024 3.77 6.335-4.645 9.013-7.488 3.296-3.498-9.713-4.442-14.837 5.27-.851 1.613-2.029 4.029-.835 5.407 10.078 11.634 17.972-22.688 5.55-8.179-3.59 4.193-6.565 8.875-9.848 13.312M370.74 632.391c-.017.316-.85 28.592 4.715 5.27.738-3.094-13.496-3.302-14.837 2.492-2.77 11.958 26.335-10.455 3.606-9.843-3.415.093-13.082 9.718-6.241 11.65 1.545.435 18.678-3.891-4.161-.138M59.43 452.477c-1.525.924-5.157 4.46-4.578 2.772l5.133 2.08c.218-.636 3.415-21.172-6.933-19.41-.559.095-27.503 15.985-11.511 20.102 8.177 2.104 13.746-13.587 7.487-17.61-6.134-3.944-11.16 7.995-9.985 12.34 2.322 8.587 13.323-.362 4.578-2.218-2.534-.538-5.178-.183-7.767-.274M0 350.105c3.511-6.379 7.358-12.584 10.533-19.136 27.018-55.757 10.342-69.952 62.82 9.157 1.717 2.589-4.253-4.53-6.379-6.796M692.547 370.596c7.627 13.681 15.022 27.494 22.88 41.044 1.21 2.087 2.591 4.118 4.297 5.824 26.85 26.85 101.694 32.16 138.246 19.971 51.403-17.14 99.396-68.955 99.558-125.22.028-9.582-.585-32.914-7.07-43.959-40.879-69.63-136.71-57.953-186.639-4.161-27.807 29.957-7.765 14.745-33.418 53.39-.993 1.496-3.685 1.951-5.27 1.11-2.017-1.072-2.404-3.884-3.607-5.825" stroke="#000" stroke-width="3"/><path d="M720.721 303.826c-3.7 9.117-3.165 6.023-.971 22.326 4.163 30.945 20.725 3.246 36.888-.555.703-.165-.746 1.335-1.39 1.664-3.669 1.874-7.432 3.633-11.367 4.852-1.369.424-3.067.732-4.298 0-1.085-.645-1.018-2.309-1.526-3.463" stroke="#000" stroke-width="3"/></g></symbol></svg>